M48
; DRILL file {KiCad (7.0.0-0)} date Friday, August 11, 2023 at 06:05:39 PM
; FORMAT={-:-/ absolute / inch / decimal}
; #@! TF.CreationDate,2023-08-11T18:05:39-07:00
; #@! TF.GenerationSoftware,Kicad,Pcbnew,(7.0.0-0)
; #@! TF.FileFunction,Plated,1,4,PTH
FMAT,2
INCH
; #@! TA.AperFunction,Plated,PTH,ViaDrill
T1C0.0079
; #@! TA.AperFunction,Plated,PTH,ComponentDrill
T2C0.0118
; #@! TA.AperFunction,Plated,PTH,ViaDrill
T3C0.0150
; #@! TA.AperFunction,Plated,PTH,ComponentDrill
T4C0.0197
; #@! TA.AperFunction,Plated,PTH,ComponentDrill
T5C0.0335
; #@! TA.AperFunction,Plated,PTH,ComponentDrill
T6C0.1260
%
G90
G05
T1
X4.97Y-2.86
X5.02Y-2.87
X5.02Y-2.9
X5.02Y-2.94
X5.02Y-2.98
X5.14Y-2.99
X5.15Y-2.9617
X5.24Y-2.64
X5.26Y-2.96
X5.28Y-2.64
X5.2907Y-2.96
X5.32Y-2.64
X5.36Y-2.99
X5.39Y-2.99
X5.44Y-2.64
X5.47Y-2.6
X5.48Y-2.91
X5.5Y-2.64
X5.55Y-2.91
X5.58Y-2.64
X5.66Y-2.64
X5.75Y-3.01
X6.35Y-2.9
X6.35Y-2.96
X6.52Y-3.18
X6.52Y-3.27
X6.55Y-3.27
T2
X5.5661Y-3.0511
X5.5661Y-3.0889
X5.6Y-3.07
X5.6339Y-3.0511
X5.6339Y-3.0889
T3
X4.89Y-2.83
X4.89Y-2.87
X5.2Y-2.75
X5.25Y-2.75
X5.3Y-2.75
X5.48Y-3.48
X5.53Y-3.01
X5.55Y-3.42
X5.55Y-3.48
X5.66Y-3.18
X5.78Y-3.15
X5.81Y-2.94
X5.81Y-2.99
X5.81Y-3.04
X5.96Y-2.72
X5.96Y-2.78
X5.96Y-2.84
X5.98Y-2.96
X5.98Y-3.02
X5.98Y-3.08
X6.02Y-2.72
X6.02Y-2.78
X6.02Y-2.84
X6.04Y-2.96
X6.04Y-3.02
X6.04Y-3.08
X6.17Y-2.8
X6.17Y-2.86
X6.17Y-2.92
X6.17Y-2.98
X6.17Y-3.04
X6.17Y-3.1
X6.26Y-2.71
X6.34Y-3.19
X6.37Y-3.16
X6.37Y-3.22
X6.4Y-3.19
X6.4Y-3.25
X6.43Y-2.64
X6.43Y-2.74
X6.43Y-3.22
X6.43Y-3.28
X6.46Y-3.25
X6.51Y-2.69
X6.59Y-2.64
X6.59Y-2.74
T4
X5.6555Y-2.5
X5.6555Y-3.6
X5.6832Y-2.4332
X5.6832Y-2.5668
X5.6832Y-3.5332
X5.6832Y-3.6668
X5.75Y-2.4055
X5.75Y-2.5945
X5.75Y-3.5055
X5.75Y-3.6945
X5.8168Y-2.4332
X5.8168Y-2.5668
X5.8168Y-3.5332
X5.8168Y-3.6668
X5.8445Y-2.5
X5.8445Y-3.6
T5
X4.92Y-3.0673
X4.92Y-3.2327
X5.2073Y-3.44
X5.3727Y-3.44
T6
X5.75Y-2.5
X5.75Y-3.6
T0
M30
