%TF.GenerationSoftware,KiCad,Pcbnew,(7.0.0-0)*%
%TF.CreationDate,2023-08-11T18:05:37-07:00*%
%TF.ProjectId,Headlights_Driver,48656164-6c69-4676-9874-735f44726976,rev?*%
%TF.SameCoordinates,Original*%
%TF.FileFunction,Copper,L1,Top*%
%TF.FilePolarity,Positive*%
%FSLAX46Y46*%
G04 Gerber Fmt 4.6, Leading zero omitted, Abs format (unit mm)*
G04 Created by KiCad (PCBNEW (7.0.0-0)) date 2023-08-11 18:05:37*
%MOMM*%
%LPD*%
G01*
G04 APERTURE LIST*
G04 Aperture macros list*
%AMRoundRect*
0 Rectangle with rounded corners*
0 $1 Rounding radius*
0 $2 $3 $4 $5 $6 $7 $8 $9 X,Y pos of 4 corners*
0 Add a 4 corners polygon primitive as box body*
4,1,4,$2,$3,$4,$5,$6,$7,$8,$9,$2,$3,0*
0 Add four circle primitives for the rounded corners*
1,1,$1+$1,$2,$3*
1,1,$1+$1,$4,$5*
1,1,$1+$1,$6,$7*
1,1,$1+$1,$8,$9*
0 Add four rect primitives between the rounded corners*
20,1,$1+$1,$2,$3,$4,$5,0*
20,1,$1+$1,$4,$5,$6,$7,0*
20,1,$1+$1,$6,$7,$8,$9,0*
20,1,$1+$1,$8,$9,$2,$3,0*%
G04 Aperture macros list end*
%TA.AperFunction,SMDPad,CuDef*%
%ADD10RoundRect,0.250000X0.750000X-0.250000X0.750000X0.250000X-0.750000X0.250000X-0.750000X-0.250000X0*%
%TD*%
%TA.AperFunction,SMDPad,CuDef*%
%ADD11RoundRect,0.200000X-1.110000X0.200000X-1.110000X-0.200000X1.110000X-0.200000X1.110000X0.200000X0*%
%TD*%
%TA.AperFunction,SMDPad,CuDef*%
%ADD12RoundRect,0.250000X-0.325000X-0.650000X0.325000X-0.650000X0.325000X0.650000X-0.325000X0.650000X0*%
%TD*%
%TA.AperFunction,SMDPad,CuDef*%
%ADD13RoundRect,0.140000X0.170000X-0.140000X0.170000X0.140000X-0.170000X0.140000X-0.170000X-0.140000X0*%
%TD*%
%TA.AperFunction,SMDPad,CuDef*%
%ADD14RoundRect,0.135000X0.185000X-0.135000X0.185000X0.135000X-0.185000X0.135000X-0.185000X-0.135000X0*%
%TD*%
%TA.AperFunction,SMDPad,CuDef*%
%ADD15R,0.280000X0.850000*%
%TD*%
%TA.AperFunction,ComponentPad*%
%ADD16C,0.600000*%
%TD*%
%TA.AperFunction,SMDPad,CuDef*%
%ADD17R,0.700000X0.280000*%
%TD*%
%TA.AperFunction,SMDPad,CuDef*%
%ADD18R,2.400000X1.650000*%
%TD*%
%TA.AperFunction,SMDPad,CuDef*%
%ADD19RoundRect,0.140000X-0.170000X0.140000X-0.170000X-0.140000X0.170000X-0.140000X0.170000X0.140000X0*%
%TD*%
%TA.AperFunction,SMDPad,CuDef*%
%ADD20RoundRect,0.135000X0.135000X0.185000X-0.135000X0.185000X-0.135000X-0.185000X0.135000X-0.185000X0*%
%TD*%
%TA.AperFunction,SMDPad,CuDef*%
%ADD21RoundRect,0.062500X-0.375000X-0.062500X0.375000X-0.062500X0.375000X0.062500X-0.375000X0.062500X0*%
%TD*%
%TA.AperFunction,SMDPad,CuDef*%
%ADD22RoundRect,0.062500X-0.062500X-0.375000X0.062500X-0.375000X0.062500X0.375000X-0.062500X0.375000X0*%
%TD*%
%TA.AperFunction,SMDPad,CuDef*%
%ADD23R,3.450000X3.450000*%
%TD*%
%TA.AperFunction,SMDPad,CuDef*%
%ADD24RoundRect,0.140000X-0.140000X-0.170000X0.140000X-0.170000X0.140000X0.170000X-0.140000X0.170000X0*%
%TD*%
%TA.AperFunction,SMDPad,CuDef*%
%ADD25R,0.400000X0.650000*%
%TD*%
%TA.AperFunction,SMDPad,CuDef*%
%ADD26RoundRect,0.140000X0.140000X0.170000X-0.140000X0.170000X-0.140000X-0.170000X0.140000X-0.170000X0*%
%TD*%
%TA.AperFunction,ComponentPad*%
%ADD27C,0.800000*%
%TD*%
%TA.AperFunction,ComponentPad*%
%ADD28C,6.400000*%
%TD*%
%TA.AperFunction,SMDPad,CuDef*%
%ADD29RoundRect,0.135000X-0.185000X0.135000X-0.185000X-0.135000X0.185000X-0.135000X0.185000X0.135000X0*%
%TD*%
%TA.AperFunction,SMDPad,CuDef*%
%ADD30RoundRect,0.250000X0.312500X0.625000X-0.312500X0.625000X-0.312500X-0.625000X0.312500X-0.625000X0*%
%TD*%
%TA.AperFunction,SMDPad,CuDef*%
%ADD31RoundRect,0.250000X-0.625000X0.312500X-0.625000X-0.312500X0.625000X-0.312500X0.625000X0.312500X0*%
%TD*%
%TA.AperFunction,SMDPad,CuDef*%
%ADD32RoundRect,0.147500X-0.172500X0.147500X-0.172500X-0.147500X0.172500X-0.147500X0.172500X0.147500X0*%
%TD*%
%TA.AperFunction,SMDPad,CuDef*%
%ADD33RoundRect,0.135000X-0.135000X-0.185000X0.135000X-0.185000X0.135000X0.185000X-0.135000X0.185000X0*%
%TD*%
%TA.AperFunction,SMDPad,CuDef*%
%ADD34RoundRect,0.150000X0.150000X0.200000X-0.150000X0.200000X-0.150000X-0.200000X0.150000X-0.200000X0*%
%TD*%
%TA.AperFunction,SMDPad,CuDef*%
%ADD35R,0.850000X0.500000*%
%TD*%
%TA.AperFunction,SMDPad,CuDef*%
%ADD36R,4.550000X4.410000*%
%TD*%
%TA.AperFunction,SMDPad,CuDef*%
%ADD37RoundRect,0.150000X-0.200000X0.150000X-0.200000X-0.150000X0.200000X-0.150000X0.200000X0.150000X0*%
%TD*%
%TA.AperFunction,ComponentPad*%
%ADD38RoundRect,0.250000X-0.675000X-0.675000X0.675000X-0.675000X0.675000X0.675000X-0.675000X0.675000X0*%
%TD*%
%TA.AperFunction,ComponentPad*%
%ADD39C,1.850000*%
%TD*%
%TA.AperFunction,ComponentPad*%
%ADD40RoundRect,0.250000X0.675000X-0.675000X0.675000X0.675000X-0.675000X0.675000X-0.675000X-0.675000X0*%
%TD*%
%TA.AperFunction,ViaPad*%
%ADD41C,0.450000*%
%TD*%
%TA.AperFunction,ViaPad*%
%ADD42C,0.762000*%
%TD*%
%TA.AperFunction,Conductor*%
%ADD43C,0.254000*%
%TD*%
G04 APERTURE END LIST*
D10*
%TO.P,J6,1,Pin_1*%
%TO.N,/UART_RX*%
X141478000Y-69088000D03*
%TD*%
D11*
%TO.P,J3,1,Pin_1*%
%TO.N,VDD*%
X129124000Y-78740000D03*
%TO.P,J3,2,Pin_2*%
%TO.N,/SWDIO*%
X133004000Y-78740000D03*
%TO.P,J3,3,Pin_3*%
%TO.N,GND*%
X129124000Y-80010000D03*
%TO.P,J3,4,Pin_4*%
%TO.N,/SWCLK*%
X133004000Y-80010000D03*
%TO.P,J3,5,Pin_5*%
%TO.N,unconnected-(J3-Pin_5-Pad5)*%
X129124000Y-81280000D03*
%TO.P,J3,6,Pin_6*%
%TO.N,unconnected-(J3-Pin_6-Pad6)*%
X133004000Y-81280000D03*
%TO.P,J3,7,Pin_7*%
%TO.N,unconnected-(J3-Pin_7-Pad7)*%
X129124000Y-82550000D03*
%TO.P,J3,8,Pin_8*%
%TO.N,unconnected-(J3-Pin_8-Pad8)*%
X133004000Y-82550000D03*
%TO.P,J3,9,Pin_9*%
%TO.N,unconnected-(J3-Pin_9-Pad9)*%
X129124000Y-83820000D03*
%TO.P,J3,10,Pin_10*%
%TO.N,unconnected-(J3-Pin_10-Pad10)*%
X133004000Y-83820000D03*
%TD*%
D12*
%TO.P,C17,1*%
%TO.N,Net-(U3-HB)*%
X142289000Y-81788000D03*
%TO.P,C17,2*%
%TO.N,Net-(Q2-D)*%
X145239000Y-81788000D03*
%TD*%
D13*
%TO.P,C2,1*%
%TO.N,VDD*%
X129286000Y-68552000D03*
%TO.P,C2,2*%
%TO.N,GND*%
X129286000Y-67592000D03*
%TD*%
D14*
%TO.P,R8,1*%
%TO.N,Net-(U2-+)*%
X167894000Y-78996000D03*
%TO.P,R8,2*%
%TO.N,Net-(R10-Pad2)*%
X167894000Y-77976000D03*
%TD*%
D15*
%TO.P,U3,1,VDD*%
%TO.N,Net-(U3-VDD)*%
X141239999Y-79452999D03*
%TO.P,U3,2,NC*%
%TO.N,unconnected-(U3-NC-Pad2)*%
X141739999Y-79452999D03*
%TO.P,U3,3,HB*%
%TO.N,Net-(U3-HB)*%
X142239999Y-79452999D03*
%TO.P,U3,4,HO*%
%TO.N,Net-(D1-K)*%
X142739999Y-79452999D03*
%TO.P,U3,5,HS*%
%TO.N,Net-(Q2-D)*%
X143239999Y-79452999D03*
%TO.P,U3,6,EN*%
%TO.N,/DRVR_EN*%
X143239999Y-76502999D03*
%TO.P,U3,7,HI*%
%TO.N,Net-(U3-HI)*%
X142739999Y-76502999D03*
%TO.P,U3,8,LI*%
%TO.N,Net-(U3-LI)*%
X142239999Y-76502999D03*
%TO.P,U3,9,VSS*%
%TO.N,GND*%
X141739999Y-76502999D03*
%TO.P,U3,10,LO*%
%TO.N,Net-(D2-K)*%
X141239999Y-76502999D03*
D16*
%TO.P,U3,11,EP*%
%TO.N,GND*%
X141380000Y-78458000D03*
X143100000Y-78458000D03*
D17*
X140689999Y-78227999D03*
X143789999Y-78227999D03*
D16*
X142240000Y-77978000D03*
D18*
X142239999Y-77977999D03*
D17*
X140689999Y-77727999D03*
X143789999Y-77727999D03*
D16*
X141380000Y-77498000D03*
X143100000Y-77498000D03*
%TD*%
D19*
%TO.P,C13,1*%
%TO.N,/DRVR_EN*%
X145288000Y-76482000D03*
%TO.P,C13,2*%
%TO.N,GND*%
X145288000Y-77442000D03*
%TD*%
D20*
%TO.P,R3,1*%
%TO.N,/SENSE*%
X129288000Y-74676000D03*
%TO.P,R3,2*%
%TO.N,Net-(R3-Pad2)*%
X128268000Y-74676000D03*
%TD*%
D21*
%TO.P,U1,1,VDD*%
%TO.N,VDD*%
X130912500Y-69370000D03*
%TO.P,U1,2,PF0*%
%TO.N,unconnected-(U1-PF0-Pad2)*%
X130912500Y-69870000D03*
%TO.P,U1,3,PF1*%
%TO.N,unconnected-(U1-PF1-Pad3)*%
X130912500Y-70370000D03*
%TO.P,U1,4,NRST*%
%TO.N,Net-(U1-NRST)*%
X130912500Y-70870000D03*
%TO.P,U1,5,VDDA*%
%TO.N,VDD*%
X130912500Y-71370000D03*
%TO.P,U1,6,PA0*%
%TO.N,unconnected-(U1-PA0-Pad6)*%
X130912500Y-71870000D03*
%TO.P,U1,7,PA1*%
%TO.N,unconnected-(U1-PA1-Pad7)*%
X130912500Y-72370000D03*
%TO.P,U1,8,PA2*%
%TO.N,/SENSE*%
X130912500Y-72870000D03*
D22*
%TO.P,U1,9,PA3*%
%TO.N,unconnected-(U1-PA3-Pad9)*%
X131600000Y-73557500D03*
%TO.P,U1,10,PA4*%
%TO.N,unconnected-(U1-PA4-Pad10)*%
X132100000Y-73557500D03*
%TO.P,U1,11,PA5*%
%TO.N,/TEMP*%
X132600000Y-73557500D03*
%TO.P,U1,12,PA6*%
%TO.N,/STATUS*%
X133100000Y-73557500D03*
%TO.P,U1,13,PA7*%
%TO.N,/LOW*%
X133600000Y-73557500D03*
%TO.P,U1,14,PB0*%
%TO.N,unconnected-(U1-PB0-Pad14)*%
X134100000Y-73557500D03*
%TO.P,U1,15,PB1*%
%TO.N,unconnected-(U1-PB1-Pad15)*%
X134600000Y-73557500D03*
%TO.P,U1,16,PB2*%
%TO.N,unconnected-(U1-PB2-Pad16)*%
X135100000Y-73557500D03*
D21*
%TO.P,U1,17,VDD*%
%TO.N,VDD*%
X135787500Y-72870000D03*
%TO.P,U1,18,PA8*%
%TO.N,/HIGH*%
X135787500Y-72370000D03*
%TO.P,U1,19,PA9*%
%TO.N,/UART_TX*%
X135787500Y-71870000D03*
%TO.P,U1,20,PA10*%
%TO.N,/UART_RX*%
X135787500Y-71370000D03*
%TO.P,U1,21,PA11*%
%TO.N,unconnected-(U1-PA11-Pad21)*%
X135787500Y-70870000D03*
%TO.P,U1,22,PA12*%
%TO.N,/DRVR_EN*%
X135787500Y-70370000D03*
%TO.P,U1,23,PA13*%
%TO.N,/SWDIO*%
X135787500Y-69870000D03*
%TO.P,U1,24,PA14*%
%TO.N,/SWCLK*%
X135787500Y-69370000D03*
D22*
%TO.P,U1,25,PA15*%
%TO.N,unconnected-(U1-PA15-Pad25)*%
X135100000Y-68682500D03*
%TO.P,U1,26,PB3*%
%TO.N,unconnected-(U1-PB3-Pad26)*%
X134600000Y-68682500D03*
%TO.P,U1,27,PB4*%
%TO.N,unconnected-(U1-PB4-Pad27)*%
X134100000Y-68682500D03*
%TO.P,U1,28,PB5*%
%TO.N,unconnected-(U1-PB5-Pad28)*%
X133600000Y-68682500D03*
%TO.P,U1,29,PB6*%
%TO.N,unconnected-(U1-PB6-Pad29)*%
X133100000Y-68682500D03*
%TO.P,U1,30,PB7*%
%TO.N,unconnected-(U1-PB7-Pad30)*%
X132600000Y-68682500D03*
%TO.P,U1,31,BOOT0*%
%TO.N,Net-(U1-BOOT0)*%
X132100000Y-68682500D03*
%TO.P,U1,32,PB8*%
%TO.N,unconnected-(U1-PB8-Pad32)*%
X131600000Y-68682500D03*
D23*
%TO.P,U1,33,VSS*%
%TO.N,GND*%
X133349999Y-71119999D03*
%TD*%
D14*
%TO.P,R13,1*%
%TO.N,Net-(D2-K)*%
X147828000Y-79758000D03*
%TO.P,R13,2*%
%TO.N,Net-(D2-A)*%
X147828000Y-78738000D03*
%TD*%
D20*
%TO.P,R12,1*%
%TO.N,Net-(D1-K)*%
X157990000Y-68580000D03*
%TO.P,R12,2*%
%TO.N,Net-(D1-A)*%
X156970000Y-68580000D03*
%TD*%
%TO.P,R2,1*%
%TO.N,Net-(U1-BOOT0)*%
X132082000Y-67056000D03*
%TO.P,R2,2*%
%TO.N,GND*%
X131062000Y-67056000D03*
%TD*%
D24*
%TO.P,C4,1*%
%TO.N,VDD*%
X137188000Y-73152000D03*
%TO.P,C4,2*%
%TO.N,GND*%
X138148000Y-73152000D03*
%TD*%
D25*
%TO.P,U2,1,REF*%
%TO.N,GND*%
X166227999Y-83753999D03*
%TO.P,U2,2,GND*%
X166877999Y-83753999D03*
%TO.P,U2,3,V+*%
%TO.N,VDD*%
X167527999Y-83753999D03*
%TO.P,U2,4,+*%
%TO.N,Net-(U2-+)*%
X167527999Y-81853999D03*
%TO.P,U2,5,-*%
%TO.N,Net-(U2--)*%
X166877999Y-81853999D03*
%TO.P,U2,6*%
%TO.N,Net-(R3-Pad2)*%
X166227999Y-81853999D03*
%TD*%
D26*
%TO.P,C15,1*%
%TO.N,VDD*%
X167358000Y-85344000D03*
%TO.P,C15,2*%
%TO.N,GND*%
X166398000Y-85344000D03*
%TD*%
D14*
%TO.P,TH1,1*%
%TO.N,VDD*%
X159004000Y-75694000D03*
%TO.P,TH1,2*%
%TO.N,Net-(R15-Pad1)*%
X159004000Y-74674000D03*
%TD*%
D26*
%TO.P,C11,1*%
%TO.N,Net-(U3-LI)*%
X140434000Y-74930000D03*
%TO.P,C11,2*%
%TO.N,GND*%
X139474000Y-74930000D03*
%TD*%
%TO.P,C8,1*%
%TO.N,/TEMP*%
X132560000Y-75184000D03*
%TO.P,C8,2*%
%TO.N,GND*%
X131600000Y-75184000D03*
%TD*%
D14*
%TO.P,R6,1*%
%TO.N,Net-(U3-LI)*%
X141732000Y-74932000D03*
%TO.P,R6,2*%
%TO.N,/LOW*%
X141732000Y-73912000D03*
%TD*%
D13*
%TO.P,C1,1*%
%TO.N,VDD*%
X128016000Y-68552000D03*
%TO.P,C1,2*%
%TO.N,GND*%
X128016000Y-67592000D03*
%TD*%
D27*
%TO.P,H2,1,1*%
%TO.N,GND*%
X143650000Y-91440000D03*
X144352944Y-89742944D03*
X144352944Y-93137056D03*
X146050000Y-89040000D03*
D28*
X146050000Y-91440000D03*
D27*
X146050000Y-93840000D03*
X147747056Y-89742944D03*
X147747056Y-93137056D03*
X148450000Y-91440000D03*
%TD*%
D29*
%TO.P,R5,1*%
%TO.N,/HIGH*%
X143256000Y-73912000D03*
%TO.P,R5,2*%
%TO.N,Net-(U3-HI)*%
X143256000Y-74932000D03*
%TD*%
D19*
%TO.P,C5,1*%
%TO.N,VDD*%
X128016000Y-71148000D03*
%TO.P,C5,2*%
%TO.N,GND*%
X128016000Y-72108000D03*
%TD*%
D10*
%TO.P,J5,1,Pin_1*%
%TO.N,/UART_TX*%
X141478000Y-70866000D03*
%TD*%
D26*
%TO.P,C12,1*%
%TO.N,VDD*%
X167358000Y-86614000D03*
%TO.P,C12,2*%
%TO.N,GND*%
X166398000Y-86614000D03*
%TD*%
D24*
%TO.P,C9,1*%
%TO.N,Net-(U3-HI)*%
X144554000Y-74930000D03*
%TO.P,C9,2*%
%TO.N,GND*%
X145514000Y-74930000D03*
%TD*%
D27*
%TO.P,H1,1,1*%
%TO.N,GND*%
X143650000Y-63500000D03*
X144352944Y-61802944D03*
X144352944Y-65197056D03*
X146050000Y-61100000D03*
D28*
X146050000Y-63500000D03*
D27*
X146050000Y-65900000D03*
X147747056Y-61802944D03*
X147747056Y-65197056D03*
X148450000Y-63500000D03*
%TD*%
D29*
%TO.P,R7,1*%
%TO.N,Net-(U3-VDD)*%
X139192000Y-80770000D03*
%TO.P,R7,2*%
%TO.N,Vdrive*%
X139192000Y-81790000D03*
%TD*%
D30*
%TO.P,R11,1*%
%TO.N,Net-(R10-Pad2)*%
X164276500Y-77216000D03*
%TO.P,R11,2*%
%TO.N,GND*%
X161351500Y-77216000D03*
%TD*%
D13*
%TO.P,C10,1*%
%TO.N,Net-(U3-VDD)*%
X137922000Y-79474000D03*
%TO.P,C10,2*%
%TO.N,GND*%
X137922000Y-78514000D03*
%TD*%
D26*
%TO.P,C16,1*%
%TO.N,Net-(U2-+)*%
X167866000Y-80264000D03*
%TO.P,C16,2*%
%TO.N,Net-(U2--)*%
X166906000Y-80264000D03*
%TD*%
D31*
%TO.P,R10,1*%
%TO.N,Net-(F1-Pad2)*%
X167132000Y-73213500D03*
%TO.P,R10,2*%
%TO.N,Net-(R10-Pad2)*%
X167132000Y-76138500D03*
%TD*%
D32*
%TO.P,F1,1*%
%TO.N,/LED-*%
X163576000Y-71905000D03*
%TO.P,F1,2*%
%TO.N,Net-(F1-Pad2)*%
X163576000Y-72875000D03*
%TD*%
D26*
%TO.P,C7,1*%
%TO.N,/SENSE*%
X129258000Y-73406000D03*
%TO.P,C7,2*%
%TO.N,GND*%
X128298000Y-73406000D03*
%TD*%
D33*
%TO.P,R1,1*%
%TO.N,VDD*%
X128014000Y-69850000D03*
%TO.P,R1,2*%
%TO.N,Net-(U1-NRST)*%
X129034000Y-69850000D03*
%TD*%
D34*
%TO.P,D2,1,K*%
%TO.N,Net-(D2-K)*%
X147890000Y-81280000D03*
%TO.P,D2,2,A*%
%TO.N,Net-(D2-A)*%
X149290000Y-81280000D03*
%TD*%
D24*
%TO.P,C3,1*%
%TO.N,VDD*%
X137188000Y-74422000D03*
%TO.P,C3,2*%
%TO.N,GND*%
X138148000Y-74422000D03*
%TD*%
D14*
%TO.P,R15,1*%
%TO.N,Net-(R15-Pad1)*%
X160274000Y-74678000D03*
%TO.P,R15,2*%
%TO.N,GND*%
X160274000Y-73658000D03*
%TD*%
D20*
%TO.P,R9,1*%
%TO.N,Net-(U2--)*%
X166626000Y-78994000D03*
%TO.P,R9,2*%
%TO.N,GND*%
X165606000Y-78994000D03*
%TD*%
D35*
%TO.P,Q1,1,S*%
%TO.N,Net-(Q2-D)*%
X155299999Y-72516999D03*
%TO.P,Q1,2,S*%
X155299999Y-71246999D03*
%TO.P,Q1,3,S*%
X155299999Y-69976999D03*
%TO.P,Q1,4,G*%
%TO.N,Net-(D1-A)*%
X155299999Y-68706999D03*
D36*
%TO.P,Q1,5,D*%
%TO.N,VS*%
X151349999Y-70611999D03*
%TD*%
D35*
%TO.P,Q2,1,S*%
%TO.N,GND*%
X149499999Y-74802999D03*
%TO.P,Q2,2,S*%
X149499999Y-76072999D03*
%TO.P,Q2,3,S*%
X149499999Y-77342999D03*
%TO.P,Q2,4,G*%
%TO.N,Net-(D2-A)*%
X149499999Y-78612999D03*
D36*
%TO.P,Q2,5,D*%
%TO.N,Net-(Q2-D)*%
X153449999Y-76707999D03*
%TD*%
D20*
%TO.P,R4,1*%
%TO.N,/TEMP*%
X132590000Y-76454000D03*
%TO.P,R4,2*%
%TO.N,Net-(R15-Pad1)*%
X131570000Y-76454000D03*
%TD*%
D19*
%TO.P,C6,1*%
%TO.N,VDD*%
X129286000Y-71148000D03*
%TO.P,C6,2*%
%TO.N,GND*%
X129286000Y-72108000D03*
%TD*%
D13*
%TO.P,C14,1*%
%TO.N,Net-(U3-VDD)*%
X139192000Y-79474000D03*
%TO.P,C14,2*%
%TO.N,GND*%
X139192000Y-78514000D03*
%TD*%
D37*
%TO.P,D1,1,K*%
%TO.N,Net-(D1-K)*%
X160020000Y-68772000D03*
%TO.P,D1,2,A*%
%TO.N,Net-(D1-A)*%
X160020000Y-67372000D03*
%TD*%
D38*
%TO.P,J7,1,Pin_1*%
%TO.N,GND*%
X132266000Y-87376000D03*
D39*
%TO.P,J7,2,Pin_2*%
%TO.N,Vdrive*%
X136466000Y-87376000D03*
%TD*%
D40*
%TO.P,J4,1,Pin_1*%
%TO.N,GND*%
X124968000Y-82110000D03*
D39*
%TO.P,J4,2,Pin_2*%
%TO.N,VDD*%
X124968000Y-77910000D03*
%TD*%
D41*
%TO.N,GND*%
X165608000Y-83058000D03*
D42*
X162560000Y-81026000D03*
D41*
X130810000Y-75227500D03*
D42*
X134620000Y-69850000D03*
X161798000Y-80264000D03*
X124206000Y-72898000D03*
D41*
X133096000Y-67056000D03*
X135128000Y-67056000D03*
X143764000Y-67056000D03*
D42*
X147574000Y-77216000D03*
D41*
X134112000Y-67056000D03*
D42*
X124206000Y-71882000D03*
X161036000Y-81026000D03*
X162560000Y-82550000D03*
D41*
X127508000Y-72898000D03*
D42*
X161798000Y-81788000D03*
D41*
X166370000Y-83058000D03*
X141732000Y-67056000D03*
D42*
X147574000Y-75946000D03*
X163322000Y-81788000D03*
D41*
X127508000Y-73660000D03*
D42*
X133350000Y-69850000D03*
X147574000Y-74676000D03*
D41*
X139192000Y-73914000D03*
X161290000Y-73660000D03*
X127508000Y-75692000D03*
D42*
X164084000Y-82550000D03*
X163322000Y-83312000D03*
X132080000Y-69850000D03*
%TO.N,VDD*%
X140970000Y-88392000D03*
X139192000Y-88392000D03*
X140970000Y-86868000D03*
D41*
%TO.N,/SWDIO*%
X138938000Y-66040000D03*
X136144000Y-75946000D03*
%TO.N,/SWCLK*%
X136906000Y-75946000D03*
X138176000Y-67056000D03*
%TO.N,/DRVR_EN*%
X146050000Y-76454000D03*
X139700000Y-67056000D03*
D42*
%TO.N,Net-(Q2-D)*%
X156718000Y-74168000D03*
X153416000Y-78232000D03*
X151892000Y-76708000D03*
X151892000Y-75184000D03*
X156718000Y-72644000D03*
X153416000Y-75184000D03*
X156718000Y-77216000D03*
X156718000Y-71120000D03*
X156718000Y-75692000D03*
X156718000Y-78740000D03*
X153416000Y-76708000D03*
X151892000Y-78232000D03*
D41*
%TO.N,/STATUS*%
X126238000Y-72644000D03*
X133604000Y-75184000D03*
D42*
%TO.N,/LED-*%
X163322000Y-67056000D03*
X167386000Y-67056000D03*
X165354000Y-68326000D03*
X163322000Y-69596000D03*
X167386000Y-69596000D03*
%TO.N,VS*%
X152908000Y-70612000D03*
X152908000Y-69088000D03*
X151384000Y-70612000D03*
X151384000Y-69088000D03*
X151384000Y-72136000D03*
X152908000Y-72136000D03*
%TO.N,Net-(D1-K)*%
X159004000Y-68834000D03*
X143764000Y-80772000D03*
D41*
%TO.N,/LOW*%
X140970000Y-73914000D03*
X134384646Y-75184000D03*
D42*
%TO.N,Net-(D2-K)*%
X140462000Y-76454000D03*
X146812000Y-80010000D03*
D41*
%TO.N,Net-(R3-Pad2)*%
X165608000Y-80772000D03*
X127508000Y-74676000D03*
%TO.N,Net-(R15-Pad1)*%
X130556000Y-75946000D03*
X161290000Y-75184000D03*
%TD*%
D43*
%TO.N,/SENSE*%
X129258000Y-74646000D02*
X129288000Y-74676000D01*
X129540000Y-73406000D02*
X129258000Y-73406000D01*
X129258000Y-73406000D02*
X129258000Y-74646000D01*
X130912500Y-72870000D02*
X130076000Y-72870000D01*
X130076000Y-72870000D02*
X129540000Y-73406000D01*
%TO.N,GND*%
X161290000Y-73660000D02*
X161288000Y-73658000D01*
X161288000Y-73658000D02*
X160274000Y-73658000D01*
X141740000Y-76503000D02*
X141740000Y-77138000D01*
X141740000Y-77138000D02*
X141380000Y-77498000D01*
X131600000Y-75184000D02*
X130853500Y-75184000D01*
X130853500Y-75184000D02*
X130810000Y-75227500D01*
%TO.N,Net-(U3-HI)*%
X142740000Y-76503000D02*
X142740000Y-75954000D01*
X143256000Y-75438000D02*
X143256000Y-74932000D01*
X142740000Y-75954000D02*
X143256000Y-75438000D01*
%TO.N,Net-(U3-LI)*%
X141732000Y-75438000D02*
X141732000Y-74932000D01*
X142240000Y-75946000D02*
X141732000Y-75438000D01*
X142240000Y-76503000D02*
X142240000Y-75946000D01*
%TO.N,/SWDIO*%
X136144000Y-77216000D02*
X136144000Y-75946000D01*
X134620000Y-78740000D02*
X136144000Y-77216000D01*
X133004000Y-78740000D02*
X134620000Y-78740000D01*
X136632000Y-69870000D02*
X135787500Y-69870000D01*
X138938000Y-66040000D02*
X138938000Y-67564000D01*
X138938000Y-67564000D02*
X136632000Y-69870000D01*
%TO.N,/SWCLK*%
X136906000Y-77724000D02*
X136906000Y-75946000D01*
X135787500Y-69370000D02*
X136370000Y-69370000D01*
X136370000Y-69370000D02*
X138176000Y-67564000D01*
X138176000Y-67564000D02*
X138176000Y-67056000D01*
X133004000Y-80010000D02*
X134620000Y-80010000D01*
X134620000Y-80010000D02*
X136906000Y-77724000D01*
%TO.N,/UART_RX*%
X139446000Y-69088000D02*
X141478000Y-69088000D01*
X137164000Y-71370000D02*
X139446000Y-69088000D01*
X135787500Y-71370000D02*
X137164000Y-71370000D01*
%TO.N,/UART_TX*%
X138442000Y-71870000D02*
X139446000Y-70866000D01*
X135787500Y-71870000D02*
X138442000Y-71870000D01*
X139446000Y-70866000D02*
X141478000Y-70866000D01*
%TO.N,Net-(U2--)*%
X166878000Y-80292000D02*
X166906000Y-80264000D01*
X166624000Y-79502000D02*
X166626000Y-79500000D01*
X166906000Y-79784000D02*
X166624000Y-79502000D01*
X166626000Y-79500000D02*
X166626000Y-78994000D01*
X166878000Y-81854000D02*
X166878000Y-80292000D01*
X166906000Y-80264000D02*
X166906000Y-79784000D01*
%TO.N,/DRVR_EN*%
X146001000Y-76503000D02*
X143240000Y-76503000D01*
X139700000Y-67564000D02*
X136894000Y-70370000D01*
X146050000Y-76454000D02*
X146001000Y-76503000D01*
X139700000Y-67056000D02*
X139700000Y-67564000D01*
X136894000Y-70370000D02*
X135787500Y-70370000D01*
%TO.N,/STATUS*%
X133100000Y-74680000D02*
X133100000Y-73557500D01*
X133604000Y-75184000D02*
X133100000Y-74680000D01*
%TO.N,Net-(D1-K)*%
X143764000Y-80772000D02*
X143340000Y-80772000D01*
X142740000Y-80172000D02*
X142740000Y-79453000D01*
X143340000Y-80772000D02*
X142740000Y-80172000D01*
%TO.N,Net-(U1-NRST)*%
X130306000Y-70870000D02*
X129286000Y-69850000D01*
X129286000Y-69850000D02*
X129034000Y-69850000D01*
X130912500Y-70870000D02*
X130306000Y-70870000D01*
%TO.N,/HIGH*%
X135787500Y-72370000D02*
X142982000Y-72370000D01*
X143256000Y-72644000D02*
X143256000Y-73658000D01*
X142982000Y-72370000D02*
X143256000Y-72644000D01*
%TO.N,/LOW*%
X140970000Y-73914000D02*
X140972000Y-73912000D01*
X134384646Y-75184000D02*
X133600000Y-74399354D01*
X133600000Y-74399354D02*
X133600000Y-73557500D01*
X140972000Y-73912000D02*
X141732000Y-73912000D01*
%TO.N,Net-(U2-+)*%
X167866000Y-80264000D02*
X167866000Y-79024000D01*
X167866000Y-79024000D02*
X167894000Y-78996000D01*
X167528000Y-81854000D02*
X167528000Y-81138000D01*
X167528000Y-81138000D02*
X167866000Y-80800000D01*
X167866000Y-80800000D02*
X167866000Y-80264000D01*
%TO.N,/TEMP*%
X132560000Y-76424000D02*
X132590000Y-76454000D01*
X132600000Y-73557500D02*
X132600000Y-75144000D01*
X132560000Y-75184000D02*
X132560000Y-76424000D01*
X132600000Y-75144000D02*
X132560000Y-75184000D01*
%TO.N,Net-(U1-BOOT0)*%
X132100000Y-67074000D02*
X132082000Y-67056000D01*
X132100000Y-68682500D02*
X132100000Y-67074000D01*
%TO.N,Net-(R3-Pad2)*%
X166228000Y-81392000D02*
X165608000Y-80772000D01*
X166228000Y-81854000D02*
X166228000Y-81392000D01*
X128268000Y-74676000D02*
X127508000Y-74676000D01*
%TO.N,Net-(R15-Pad1)*%
X131570000Y-76454000D02*
X131064000Y-76454000D01*
X160780000Y-74674000D02*
X159004000Y-74674000D01*
X161290000Y-75184000D02*
X160780000Y-74674000D01*
X131064000Y-76454000D02*
X130556000Y-75946000D01*
%TD*%
%TA.AperFunction,Conductor*%
%TO.N,Net-(F1-Pad2)*%
G36*
X163307435Y-72391315D02*
G01*
X163370472Y-72400500D01*
X163776966Y-72400500D01*
X163781528Y-72400500D01*
X163844564Y-72391315D01*
X163862730Y-72390000D01*
X168519500Y-72390000D01*
X168582500Y-72406881D01*
X168628619Y-72453000D01*
X168645500Y-72516000D01*
X168645500Y-74804000D01*
X168628619Y-74867000D01*
X168582500Y-74913119D01*
X168519500Y-74930000D01*
X162178000Y-74930000D01*
X162115000Y-74913119D01*
X162068881Y-74867000D01*
X162052000Y-74804000D01*
X162052000Y-72516000D01*
X162068881Y-72453000D01*
X162115000Y-72406881D01*
X162178000Y-72390000D01*
X163289270Y-72390000D01*
X163307435Y-72391315D01*
G37*
%TD.AperFunction*%
%TD*%
%TA.AperFunction,Conductor*%
%TO.N,Net-(D2-K)*%
G36*
X148273000Y-79518881D02*
G01*
X148319119Y-79565000D01*
X148336000Y-79628000D01*
X148336000Y-81662000D01*
X148319119Y-81725000D01*
X148273000Y-81771119D01*
X148210000Y-81788000D01*
X146938000Y-81788000D01*
X146875000Y-81771119D01*
X146828881Y-81725000D01*
X146812000Y-81662000D01*
X146812000Y-80784410D01*
X146812000Y-80772000D01*
X146340905Y-80300904D01*
X146313591Y-80260028D01*
X146304000Y-80211810D01*
X146304000Y-79628000D01*
X146320881Y-79565000D01*
X146367000Y-79518881D01*
X146430000Y-79502000D01*
X148210000Y-79502000D01*
X148273000Y-79518881D01*
G37*
%TD.AperFunction*%
%TD*%
%TA.AperFunction,Conductor*%
%TO.N,Vdrive*%
G36*
X140145000Y-81296881D02*
G01*
X140191119Y-81343000D01*
X140208000Y-81406000D01*
X140208000Y-84456000D01*
X140191119Y-84519000D01*
X140145000Y-84565119D01*
X140082000Y-84582000D01*
X138430000Y-84582000D01*
X138430000Y-84598590D01*
X138430000Y-88774000D01*
X138413119Y-88837000D01*
X138367000Y-88883119D01*
X138304000Y-88900000D01*
X135540911Y-88900000D01*
X135521198Y-88898448D01*
X135469617Y-88890277D01*
X135469609Y-88890276D01*
X135464727Y-88889503D01*
X135459788Y-88889502D01*
X135459778Y-88889502D01*
X135366037Y-88889500D01*
X131698000Y-88889500D01*
X131635000Y-88872619D01*
X131588881Y-88826500D01*
X131572000Y-88763500D01*
X131572000Y-88627500D01*
X131588881Y-88564500D01*
X131635000Y-88518381D01*
X131698000Y-88501500D01*
X132992313Y-88501500D01*
X132995266Y-88501500D01*
X133025699Y-88498646D01*
X133153882Y-88453793D01*
X133263150Y-88373150D01*
X133343793Y-88263882D01*
X133388646Y-88135699D01*
X133391500Y-88105266D01*
X133391500Y-86646734D01*
X133388646Y-86616301D01*
X133343793Y-86488118D01*
X133263150Y-86378850D01*
X133255557Y-86373246D01*
X133161480Y-86303814D01*
X133161477Y-86303812D01*
X133153882Y-86298207D01*
X133025699Y-86253354D01*
X133018067Y-86252638D01*
X133018066Y-86252638D01*
X132998201Y-86250775D01*
X132998195Y-86250774D01*
X132995266Y-86250500D01*
X131698000Y-86250500D01*
X131635000Y-86233619D01*
X131588881Y-86187500D01*
X131572000Y-86124500D01*
X131572000Y-84511038D01*
X131588065Y-84449472D01*
X131632165Y-84403605D01*
X131693053Y-84385135D01*
X131755203Y-84398771D01*
X131768696Y-84405646D01*
X131862481Y-84420500D01*
X134145518Y-84420499D01*
X134239304Y-84405646D01*
X134352342Y-84348050D01*
X134442050Y-84258342D01*
X134499646Y-84145304D01*
X134514500Y-84051519D01*
X134514499Y-83588482D01*
X134499646Y-83494696D01*
X134495144Y-83485860D01*
X134492244Y-83476934D01*
X134487630Y-83418287D01*
X134510143Y-83363938D01*
X134554876Y-83325733D01*
X134612078Y-83312000D01*
X137397410Y-83312000D01*
X137414000Y-83312000D01*
X137414000Y-81406000D01*
X137430881Y-81343000D01*
X137477000Y-81296881D01*
X137540000Y-81280000D01*
X140082000Y-81280000D01*
X140145000Y-81296881D01*
G37*
%TD.AperFunction*%
%TD*%
%TA.AperFunction,Conductor*%
%TO.N,Net-(U3-HI)*%
G36*
X144765500Y-74438881D02*
G01*
X144811619Y-74485000D01*
X144828500Y-74548000D01*
X144828500Y-74712489D01*
X144828508Y-74713010D01*
X144828509Y-74713077D01*
X144828600Y-74718647D01*
X144828609Y-74719194D01*
X144828622Y-74719612D01*
X144828625Y-74719712D01*
X144828724Y-74722727D01*
X144828775Y-74724279D01*
X144828818Y-74724804D01*
X144828999Y-74731131D01*
X144828999Y-75128871D01*
X144828817Y-75135203D01*
X144828777Y-75135703D01*
X144828610Y-75140803D01*
X144828603Y-75141228D01*
X144828601Y-75141312D01*
X144828509Y-75146963D01*
X144828500Y-75147529D01*
X144828500Y-75148084D01*
X144828500Y-75312000D01*
X144811619Y-75375000D01*
X144765500Y-75421119D01*
X144702500Y-75438000D01*
X142874000Y-75438000D01*
X142811000Y-75421119D01*
X142764881Y-75375000D01*
X142748000Y-75312000D01*
X142748000Y-74548000D01*
X142764881Y-74485000D01*
X142811000Y-74438881D01*
X142874000Y-74422000D01*
X144702500Y-74422000D01*
X144765500Y-74438881D01*
G37*
%TD.AperFunction*%
%TD*%
%TA.AperFunction,Conductor*%
%TO.N,VDD*%
G36*
X159449000Y-75454881D02*
G01*
X159495119Y-75501000D01*
X159512000Y-75564000D01*
X159512000Y-84836000D01*
X159528590Y-84836000D01*
X164768500Y-84836000D01*
X164831500Y-84852881D01*
X164877619Y-84899000D01*
X164894500Y-84962000D01*
X164894500Y-86996000D01*
X164901502Y-87049188D01*
X164902565Y-87053158D01*
X164902568Y-87053169D01*
X164917317Y-87108213D01*
X164917321Y-87108225D01*
X164918383Y-87112188D01*
X164919958Y-87115991D01*
X164919959Y-87115993D01*
X164935751Y-87154118D01*
X164935753Y-87154121D01*
X164938913Y-87161750D01*
X164971571Y-87204310D01*
X165017690Y-87250429D01*
X165060250Y-87283087D01*
X165109812Y-87303617D01*
X165113783Y-87304681D01*
X165113786Y-87304682D01*
X165164442Y-87318255D01*
X165172812Y-87320498D01*
X165226000Y-87327500D01*
X166747878Y-87327500D01*
X166752000Y-87327500D01*
X166805188Y-87320498D01*
X166868188Y-87303617D01*
X166917750Y-87283087D01*
X166960310Y-87250429D01*
X167006429Y-87204310D01*
X167039087Y-87161750D01*
X167059617Y-87112188D01*
X167076498Y-87049188D01*
X167083500Y-86996000D01*
X167083500Y-86831511D01*
X167083389Y-86824767D01*
X167083222Y-86819681D01*
X167083181Y-86819188D01*
X167083000Y-86812871D01*
X167083000Y-86415148D01*
X167083182Y-86408808D01*
X167083221Y-86408337D01*
X167083389Y-86403238D01*
X167083500Y-86396471D01*
X167083500Y-85561511D01*
X167083389Y-85554767D01*
X167083222Y-85549681D01*
X167083181Y-85549188D01*
X167083000Y-85542871D01*
X167083000Y-85145148D01*
X167083182Y-85138808D01*
X167083221Y-85138337D01*
X167083389Y-85133238D01*
X167083500Y-85126471D01*
X167083500Y-84609832D01*
X167093091Y-84561614D01*
X167120404Y-84520737D01*
X167161280Y-84493424D01*
X167161456Y-84493350D01*
X167171750Y-84489087D01*
X167214310Y-84456429D01*
X167260429Y-84410310D01*
X167293087Y-84367750D01*
X167313617Y-84318188D01*
X167330498Y-84255188D01*
X167337500Y-84202000D01*
X167337500Y-84133781D01*
X167336510Y-84113639D01*
X167334089Y-84089058D01*
X167333934Y-84088017D01*
X167333000Y-84072799D01*
X167333000Y-83438000D01*
X167349881Y-83375000D01*
X167396000Y-83328881D01*
X167459000Y-83312000D01*
X168519500Y-83312000D01*
X168582500Y-83328881D01*
X168628619Y-83375000D01*
X168645500Y-83438000D01*
X168645500Y-87625044D01*
X168645112Y-87634930D01*
X168630771Y-87817143D01*
X168627678Y-87836671D01*
X168586170Y-88009566D01*
X168580060Y-88028370D01*
X168512018Y-88192637D01*
X168503042Y-88210254D01*
X168410137Y-88361861D01*
X168398515Y-88377857D01*
X168283040Y-88513060D01*
X168269060Y-88527040D01*
X168133857Y-88642515D01*
X168117861Y-88654137D01*
X167966254Y-88747042D01*
X167948637Y-88756018D01*
X167784370Y-88824060D01*
X167765566Y-88830170D01*
X167592671Y-88871678D01*
X167573143Y-88874771D01*
X167390930Y-88889112D01*
X167381044Y-88889500D01*
X156759690Y-88889500D01*
X156711472Y-88879909D01*
X156670595Y-88852595D01*
X155456775Y-87638775D01*
X155448000Y-87630000D01*
X155435590Y-87630000D01*
X141494590Y-87630000D01*
X141478000Y-87630000D01*
X141478000Y-87646590D01*
X141478000Y-88774000D01*
X141461119Y-88837000D01*
X141415000Y-88883119D01*
X141352000Y-88900000D01*
X138810000Y-88900000D01*
X138747000Y-88883119D01*
X138700881Y-88837000D01*
X138684000Y-88774000D01*
X138684000Y-86232000D01*
X138700881Y-86169000D01*
X138747000Y-86122881D01*
X138810000Y-86106000D01*
X158479410Y-86106000D01*
X158496000Y-86106000D01*
X158496000Y-75564000D01*
X158512881Y-75501000D01*
X158559000Y-75454881D01*
X158622000Y-75438000D01*
X159386000Y-75438000D01*
X159449000Y-75454881D01*
G37*
%TD.AperFunction*%
%TD*%
%TA.AperFunction,Conductor*%
%TO.N,Net-(D2-K)*%
G36*
X141336500Y-75962881D02*
G01*
X141382619Y-76009000D01*
X141399500Y-76072000D01*
X141399500Y-76797000D01*
X141382619Y-76860000D01*
X141336500Y-76906119D01*
X141273500Y-76923000D01*
X141164113Y-76923000D01*
X141111645Y-76911556D01*
X141068708Y-76879304D01*
X141059516Y-76868649D01*
X141059515Y-76868648D01*
X141056997Y-76865729D01*
X141021154Y-76833244D01*
X141014488Y-76827202D01*
X141014486Y-76827200D01*
X141011629Y-76824611D01*
X140970497Y-76795643D01*
X140937516Y-76782921D01*
X140927168Y-76778929D01*
X140927165Y-76778928D01*
X140923559Y-76777537D01*
X140919814Y-76776598D01*
X140919808Y-76776597D01*
X140867915Y-76763598D01*
X140867902Y-76763595D01*
X140864163Y-76762659D01*
X140857905Y-76761887D01*
X140818075Y-76756974D01*
X140818070Y-76756973D01*
X140814230Y-76756500D01*
X140780175Y-76756500D01*
X140777104Y-76756802D01*
X140777092Y-76756803D01*
X140743166Y-76760144D01*
X140743148Y-76760146D01*
X140740088Y-76760448D01*
X140737062Y-76761049D01*
X140737054Y-76761051D01*
X140694915Y-76769432D01*
X140694903Y-76769434D01*
X140691871Y-76770038D01*
X140688922Y-76770932D01*
X140688900Y-76770938D01*
X140656284Y-76780832D01*
X140656276Y-76780834D01*
X140653315Y-76781733D01*
X140650465Y-76782913D01*
X140650444Y-76782921D01*
X140575476Y-76813974D01*
X140543704Y-76822487D01*
X140478444Y-76831078D01*
X140445554Y-76831078D01*
X140380293Y-76822487D01*
X140348520Y-76813974D01*
X140273534Y-76782913D01*
X140273517Y-76782907D01*
X140270683Y-76781733D01*
X140267742Y-76780840D01*
X140267734Y-76780838D01*
X140232129Y-76770038D01*
X140232432Y-76769037D01*
X140177843Y-76738093D01*
X140146978Y-76683558D01*
X140145960Y-76683867D01*
X140134266Y-76645316D01*
X140129662Y-76634201D01*
X140102025Y-76567479D01*
X140093512Y-76535711D01*
X140084919Y-76470438D01*
X140084919Y-76437562D01*
X140093512Y-76372280D01*
X140102021Y-76340525D01*
X140134266Y-76262682D01*
X140145960Y-76224133D01*
X140155551Y-76175917D01*
X140159500Y-76135825D01*
X140159500Y-76072000D01*
X140176381Y-76009000D01*
X140222500Y-75962881D01*
X140285500Y-75946000D01*
X141273500Y-75946000D01*
X141336500Y-75962881D01*
G37*
%TD.AperFunction*%
%TD*%
%TA.AperFunction,Conductor*%
%TO.N,Net-(U3-HB)*%
G36*
X142336500Y-79049881D02*
G01*
X142382619Y-79096000D01*
X142399500Y-79159000D01*
X142399500Y-79897748D01*
X142400705Y-79903807D01*
X142400706Y-79903815D01*
X142410079Y-79950932D01*
X142412500Y-79975513D01*
X142412500Y-80152206D01*
X142412020Y-80163188D01*
X142408713Y-80200984D01*
X142411565Y-80211629D01*
X142411566Y-80211636D01*
X142418533Y-80237637D01*
X142420911Y-80248363D01*
X142425587Y-80274881D01*
X142425589Y-80274888D01*
X142427503Y-80285739D01*
X142433011Y-80295280D01*
X142434235Y-80298642D01*
X142435753Y-80301898D01*
X142438606Y-80312543D01*
X142444927Y-80321571D01*
X142444928Y-80321572D01*
X142460368Y-80343622D01*
X142466271Y-80352888D01*
X142485250Y-80385760D01*
X142493691Y-80392843D01*
X142493694Y-80392846D01*
X142514322Y-80410154D01*
X142522427Y-80417581D01*
X143094423Y-80989578D01*
X143101849Y-80997682D01*
X143117019Y-81015760D01*
X143126240Y-81026750D01*
X143158541Y-81045398D01*
X143159103Y-81045723D01*
X143168375Y-81051630D01*
X143199457Y-81073394D01*
X143197485Y-81076209D01*
X143236265Y-81110216D01*
X143256000Y-81177919D01*
X143256000Y-82932000D01*
X143239119Y-82995000D01*
X143193000Y-83041119D01*
X143130000Y-83058000D01*
X141604000Y-83058000D01*
X141541000Y-83041119D01*
X141494881Y-82995000D01*
X141478000Y-82932000D01*
X141478000Y-80898000D01*
X141494881Y-80835000D01*
X141541000Y-80788881D01*
X141604000Y-80772000D01*
X141715410Y-80772000D01*
X141732000Y-80772000D01*
X141732000Y-80204500D01*
X141748881Y-80141500D01*
X141795000Y-80095381D01*
X141858000Y-80078500D01*
X141893561Y-80078500D01*
X141899748Y-80078500D01*
X141958231Y-80066867D01*
X142024552Y-80022552D01*
X142068867Y-79956231D01*
X142080500Y-79897748D01*
X142080500Y-79159000D01*
X142097381Y-79096000D01*
X142143500Y-79049881D01*
X142206500Y-79033000D01*
X142273500Y-79033000D01*
X142336500Y-79049881D01*
G37*
%TD.AperFunction*%
%TD*%
%TA.AperFunction,Conductor*%
%TO.N,GND*%
G36*
X130747000Y-79518881D02*
G01*
X130793119Y-79565000D01*
X130810000Y-79628000D01*
X130810000Y-80803459D01*
X130792453Y-80867598D01*
X130744701Y-80913874D01*
X130680042Y-80929397D01*
X130616486Y-80909844D01*
X130571733Y-80860662D01*
X130566550Y-80850490D01*
X130562050Y-80841658D01*
X130472342Y-80751950D01*
X130463510Y-80747450D01*
X130463509Y-80747449D01*
X130368137Y-80698854D01*
X130368133Y-80698852D01*
X130359304Y-80694354D01*
X130349512Y-80692803D01*
X130270409Y-80680274D01*
X130270402Y-80680273D01*
X130265519Y-80679500D01*
X130260565Y-80679500D01*
X127987436Y-80679500D01*
X127987423Y-80679500D01*
X127982482Y-80679501D01*
X127977601Y-80680273D01*
X127977588Y-80680275D01*
X127898493Y-80692802D01*
X127898490Y-80692802D01*
X127888696Y-80694354D01*
X127879859Y-80698856D01*
X127879858Y-80698857D01*
X127784490Y-80747449D01*
X127784486Y-80747451D01*
X127775658Y-80751950D01*
X127768649Y-80758958D01*
X127768646Y-80758961D01*
X127692961Y-80834646D01*
X127692958Y-80834649D01*
X127685950Y-80841658D01*
X127681451Y-80850486D01*
X127681449Y-80850490D01*
X127632854Y-80945862D01*
X127632851Y-80945868D01*
X127628354Y-80954696D01*
X127626803Y-80964485D01*
X127626803Y-80964487D01*
X127614274Y-81043590D01*
X127614273Y-81043598D01*
X127613500Y-81048481D01*
X127613500Y-81053432D01*
X127613500Y-81053433D01*
X127613500Y-81506563D01*
X127613500Y-81506575D01*
X127613501Y-81511518D01*
X127614274Y-81516399D01*
X127614275Y-81516411D01*
X127626802Y-81595506D01*
X127628354Y-81605304D01*
X127685950Y-81718342D01*
X127775658Y-81808050D01*
X127784493Y-81812551D01*
X127785201Y-81813066D01*
X127823405Y-81857799D01*
X127837137Y-81915000D01*
X127823405Y-81972201D01*
X127785201Y-82016934D01*
X127784493Y-82017448D01*
X127775658Y-82021950D01*
X127768646Y-82028961D01*
X127768643Y-82028964D01*
X127692961Y-82104646D01*
X127692958Y-82104649D01*
X127685950Y-82111658D01*
X127681451Y-82120486D01*
X127681449Y-82120490D01*
X127632854Y-82215862D01*
X127632851Y-82215868D01*
X127628354Y-82224696D01*
X127626803Y-82234485D01*
X127626803Y-82234487D01*
X127614274Y-82313590D01*
X127614273Y-82313598D01*
X127613500Y-82318481D01*
X127613500Y-82323432D01*
X127613500Y-82323433D01*
X127613500Y-82776563D01*
X127613500Y-82776575D01*
X127613501Y-82781518D01*
X127614274Y-82786399D01*
X127614275Y-82786411D01*
X127626802Y-82865506D01*
X127628354Y-82875304D01*
X127685950Y-82988342D01*
X127775658Y-83078050D01*
X127784497Y-83082553D01*
X127785198Y-83083063D01*
X127823403Y-83127795D01*
X127837137Y-83184996D01*
X127823406Y-83242197D01*
X127785203Y-83286931D01*
X127784486Y-83287451D01*
X127775658Y-83291950D01*
X127768650Y-83298957D01*
X127768647Y-83298960D01*
X127692961Y-83374646D01*
X127692958Y-83374649D01*
X127685950Y-83381658D01*
X127681451Y-83390486D01*
X127681449Y-83390490D01*
X127632854Y-83485862D01*
X127632851Y-83485868D01*
X127628354Y-83494696D01*
X127626803Y-83504485D01*
X127626803Y-83504487D01*
X127614274Y-83583590D01*
X127614273Y-83583598D01*
X127613500Y-83588481D01*
X127613500Y-83593434D01*
X127613500Y-83593435D01*
X127613500Y-83694000D01*
X127596619Y-83757000D01*
X127550500Y-83803119D01*
X127487500Y-83820000D01*
X123580500Y-83820000D01*
X123517500Y-83803119D01*
X123471381Y-83757000D01*
X123454500Y-83694000D01*
X123454500Y-79628000D01*
X123471381Y-79565000D01*
X123517500Y-79518881D01*
X123580500Y-79502000D01*
X130684000Y-79502000D01*
X130747000Y-79518881D01*
G37*
%TD.AperFunction*%
%TD*%
%TA.AperFunction,Conductor*%
%TO.N,Net-(R10-Pad2)*%
G36*
X168339000Y-75454881D02*
G01*
X168385119Y-75501000D01*
X168402000Y-75564000D01*
X168402000Y-78360000D01*
X168385119Y-78423000D01*
X168339000Y-78469119D01*
X168276000Y-78486000D01*
X167512000Y-78486000D01*
X167449000Y-78469119D01*
X167402881Y-78423000D01*
X167386000Y-78360000D01*
X167386000Y-78248590D01*
X167386000Y-78232000D01*
X167369410Y-78232000D01*
X163702000Y-78232000D01*
X163639000Y-78215119D01*
X163592881Y-78169000D01*
X163576000Y-78106000D01*
X163576000Y-75564000D01*
X163592881Y-75501000D01*
X163639000Y-75454881D01*
X163702000Y-75438000D01*
X168276000Y-75438000D01*
X168339000Y-75454881D01*
G37*
%TD.AperFunction*%
%TD*%
%TA.AperFunction,Conductor*%
%TO.N,Net-(Q2-D)*%
G36*
X156655000Y-69612881D02*
G01*
X156701119Y-69659000D01*
X156718000Y-69722000D01*
X156718000Y-70358000D01*
X157354000Y-70358000D01*
X157417000Y-70374881D01*
X157463119Y-70421000D01*
X157480000Y-70484000D01*
X157480000Y-84964000D01*
X157463119Y-85027000D01*
X157417000Y-85073119D01*
X157354000Y-85090000D01*
X144398000Y-85090000D01*
X144335000Y-85073119D01*
X144288881Y-85027000D01*
X144272000Y-84964000D01*
X144272000Y-81090175D01*
X144281590Y-81041958D01*
X144330533Y-80923802D01*
X144350518Y-80772000D01*
X144330533Y-80620198D01*
X144271939Y-80478741D01*
X144178731Y-80357269D01*
X144156576Y-80340269D01*
X144063810Y-80269087D01*
X144063806Y-80269084D01*
X144057259Y-80264061D01*
X144040119Y-80256961D01*
X143923428Y-80208625D01*
X143923422Y-80208623D01*
X143915802Y-80205467D01*
X143907618Y-80204389D01*
X143907616Y-80204389D01*
X143772188Y-80186560D01*
X143764000Y-80185482D01*
X143755812Y-80186560D01*
X143620383Y-80204389D01*
X143620379Y-80204389D01*
X143612198Y-80205467D01*
X143604579Y-80208622D01*
X143604571Y-80208625D01*
X143478367Y-80260901D01*
X143478359Y-80260905D01*
X143470741Y-80264061D01*
X143464196Y-80269082D01*
X143464189Y-80269087D01*
X143459086Y-80273004D01*
X143404262Y-80297126D01*
X143344494Y-80293208D01*
X143293289Y-80262135D01*
X143104405Y-80073251D01*
X143077091Y-80032374D01*
X143067500Y-79984156D01*
X143067500Y-79975513D01*
X143069921Y-79950932D01*
X143079293Y-79903815D01*
X143080500Y-79897748D01*
X143080500Y-79159000D01*
X143097381Y-79096000D01*
X143143500Y-79049881D01*
X143206500Y-79033000D01*
X143315888Y-79033000D01*
X143368357Y-79044444D01*
X143411294Y-79076698D01*
X143423002Y-79090270D01*
X143468371Y-79131389D01*
X143509503Y-79160357D01*
X143556441Y-79178463D01*
X143615837Y-79193341D01*
X143665770Y-79199500D01*
X143669643Y-79199500D01*
X145416000Y-79199500D01*
X145479000Y-79216381D01*
X145525119Y-79262500D01*
X145542000Y-79325500D01*
X145542000Y-80518000D01*
X145550775Y-80526775D01*
X146013095Y-80989095D01*
X146040409Y-81029972D01*
X146050000Y-81078190D01*
X146050000Y-82804000D01*
X146066590Y-82804000D01*
X151113410Y-82804000D01*
X151130000Y-82804000D01*
X151130000Y-74548000D01*
X151146881Y-74485000D01*
X151193000Y-74438881D01*
X151256000Y-74422000D01*
X154669410Y-74422000D01*
X154686000Y-74422000D01*
X154686000Y-69722000D01*
X154702881Y-69659000D01*
X154749000Y-69612881D01*
X154812000Y-69596000D01*
X156592000Y-69596000D01*
X156655000Y-69612881D01*
G37*
%TD.AperFunction*%
%TD*%
%TA.AperFunction,Conductor*%
%TO.N,Net-(D2-A)*%
G36*
X150051000Y-78248881D02*
G01*
X150097119Y-78295000D01*
X150114000Y-78358000D01*
X150114000Y-81662000D01*
X150097119Y-81725000D01*
X150051000Y-81771119D01*
X149988000Y-81788000D01*
X148970000Y-81788000D01*
X148907000Y-81771119D01*
X148860881Y-81725000D01*
X148844000Y-81662000D01*
X148844000Y-79010590D01*
X148844000Y-78994000D01*
X148827410Y-78994000D01*
X147446000Y-78994000D01*
X147383000Y-78977119D01*
X147336881Y-78931000D01*
X147320000Y-78868000D01*
X147320000Y-78358000D01*
X147336881Y-78295000D01*
X147383000Y-78248881D01*
X147446000Y-78232000D01*
X149988000Y-78232000D01*
X150051000Y-78248881D01*
G37*
%TD.AperFunction*%
%TD*%
%TA.AperFunction,Conductor*%
%TO.N,GND*%
G36*
X139700000Y-73660000D02*
G01*
X139700000Y-73676590D01*
X139700000Y-74042000D01*
X139683119Y-74105000D01*
X139637000Y-74151119D01*
X139574000Y-74168000D01*
X138684000Y-74168000D01*
X138684000Y-74184590D01*
X138684000Y-74550000D01*
X138667119Y-74613000D01*
X138621000Y-74659119D01*
X138558000Y-74676000D01*
X137999000Y-74676000D01*
X137936000Y-74659119D01*
X137889881Y-74613000D01*
X137873000Y-74550000D01*
X137873000Y-74223148D01*
X137873182Y-74216808D01*
X137873221Y-74216337D01*
X137873389Y-74211238D01*
X137873500Y-74204471D01*
X137873500Y-73369511D01*
X137873389Y-73362767D01*
X137873222Y-73357681D01*
X137873181Y-73357188D01*
X137873000Y-73350871D01*
X137873000Y-72953148D01*
X137873182Y-72946808D01*
X137873221Y-72946337D01*
X137873389Y-72941238D01*
X137873500Y-72934471D01*
X137873500Y-72823500D01*
X137873500Y-72823499D01*
X137890381Y-72760500D01*
X137936500Y-72714381D01*
X137999500Y-72697500D01*
X139700000Y-72697500D01*
X139700000Y-73660000D01*
G37*
%TD.AperFunction*%
%TD*%
%TA.AperFunction,Conductor*%
%TO.N,Net-(U3-VDD)*%
G36*
X141336500Y-79049881D02*
G01*
X141382619Y-79096000D01*
X141399500Y-79159000D01*
X141399500Y-79884000D01*
X141382619Y-79947000D01*
X141336500Y-79993119D01*
X141273500Y-80010000D01*
X139700000Y-80010000D01*
X139700000Y-80026590D01*
X139700000Y-80948500D01*
X139683119Y-81011500D01*
X139637000Y-81057619D01*
X139574000Y-81074500D01*
X137540000Y-81074500D01*
X137477000Y-81057619D01*
X137430881Y-81011500D01*
X137414000Y-80948500D01*
X137414000Y-79325500D01*
X137430881Y-79262500D01*
X137477000Y-79216381D01*
X137540000Y-79199500D01*
X137703944Y-79199500D01*
X137704489Y-79199500D01*
X137711234Y-79199389D01*
X137716319Y-79199222D01*
X137716817Y-79199181D01*
X137723136Y-79199000D01*
X138120851Y-79199000D01*
X138127178Y-79199181D01*
X138127663Y-79199221D01*
X138132763Y-79199389D01*
X138139529Y-79199500D01*
X138973944Y-79199500D01*
X138974489Y-79199500D01*
X138981234Y-79199389D01*
X138986319Y-79199222D01*
X138986817Y-79199181D01*
X138993136Y-79199000D01*
X139390851Y-79199000D01*
X139397178Y-79199181D01*
X139397663Y-79199221D01*
X139402763Y-79199389D01*
X139409529Y-79199500D01*
X140810357Y-79199500D01*
X140814230Y-79199500D01*
X140864163Y-79193341D01*
X140923559Y-79178463D01*
X140970497Y-79160357D01*
X141011629Y-79131389D01*
X141056998Y-79090270D01*
X141068705Y-79076698D01*
X141111643Y-79044444D01*
X141164112Y-79033000D01*
X141273500Y-79033000D01*
X141336500Y-79049881D01*
G37*
%TD.AperFunction*%
%TD*%
%TA.AperFunction,Conductor*%
%TO.N,GND*%
G36*
X167069000Y-82566881D02*
G01*
X167115119Y-82613000D01*
X167132000Y-82676000D01*
X167132000Y-83374219D01*
X167129578Y-83398800D01*
X167127500Y-83409252D01*
X167127500Y-84098748D01*
X167128706Y-84104815D01*
X167128707Y-84104816D01*
X167129579Y-84109200D01*
X167132000Y-84133781D01*
X167132000Y-84202000D01*
X167115119Y-84265000D01*
X167069000Y-84311119D01*
X167006000Y-84328000D01*
X166878000Y-84328000D01*
X166878000Y-84344590D01*
X166878000Y-85126471D01*
X166877832Y-85131570D01*
X166877500Y-85134099D01*
X166877500Y-85138219D01*
X166877500Y-85138220D01*
X166877500Y-85549775D01*
X166877500Y-85549790D01*
X166877501Y-85553900D01*
X166877833Y-85556425D01*
X166878000Y-85561511D01*
X166878000Y-86396471D01*
X166877832Y-86401570D01*
X166877500Y-86404099D01*
X166877500Y-86408219D01*
X166877500Y-86408220D01*
X166877500Y-86819775D01*
X166877500Y-86819790D01*
X166877501Y-86823900D01*
X166877833Y-86826425D01*
X166878000Y-86831511D01*
X166878000Y-86996000D01*
X166861119Y-87059000D01*
X166815000Y-87105119D01*
X166752000Y-87122000D01*
X165226000Y-87122000D01*
X165163000Y-87105119D01*
X165116881Y-87059000D01*
X165100000Y-86996000D01*
X165100000Y-82676000D01*
X165116881Y-82613000D01*
X165163000Y-82566881D01*
X165226000Y-82550000D01*
X167006000Y-82550000D01*
X167069000Y-82566881D01*
G37*
%TD.AperFunction*%
%TD*%
%TA.AperFunction,Conductor*%
%TO.N,/LED-*%
G36*
X167390929Y-66050887D02*
G01*
X167573154Y-66065229D01*
X167592661Y-66068319D01*
X167765571Y-66109830D01*
X167784365Y-66115937D01*
X167930576Y-66176500D01*
X167948637Y-66183981D01*
X167966254Y-66192957D01*
X168117861Y-66285862D01*
X168133857Y-66297484D01*
X168269060Y-66412959D01*
X168283040Y-66426939D01*
X168398515Y-66562142D01*
X168410137Y-66578138D01*
X168503042Y-66729745D01*
X168512018Y-66747362D01*
X168580060Y-66911629D01*
X168586170Y-66930433D01*
X168627678Y-67103328D01*
X168630771Y-67122856D01*
X168645112Y-67305070D01*
X168645500Y-67314956D01*
X168645500Y-72010000D01*
X168628619Y-72073000D01*
X168582500Y-72119119D01*
X168519500Y-72136000D01*
X162178000Y-72136000D01*
X162115000Y-72119119D01*
X162068881Y-72073000D01*
X162052000Y-72010000D01*
X162052000Y-66176500D01*
X162068881Y-66113500D01*
X162115000Y-66067381D01*
X162178000Y-66050500D01*
X167381044Y-66050500D01*
X167390929Y-66050887D01*
G37*
%TD.AperFunction*%
%TD*%
%TA.AperFunction,Conductor*%
%TO.N,Net-(U3-LI)*%
G36*
X142177000Y-74438881D02*
G01*
X142223119Y-74485000D01*
X142240000Y-74548000D01*
X142240000Y-75312000D01*
X142223119Y-75375000D01*
X142177000Y-75421119D01*
X142114000Y-75438000D01*
X140285500Y-75438000D01*
X140222500Y-75421119D01*
X140176381Y-75375000D01*
X140159500Y-75312000D01*
X140159500Y-75148056D01*
X140159500Y-75147511D01*
X140159389Y-75140767D01*
X140159222Y-75135681D01*
X140159181Y-75135188D01*
X140159000Y-75128871D01*
X140159000Y-74731148D01*
X140159182Y-74724808D01*
X140159221Y-74724337D01*
X140159389Y-74719238D01*
X140159500Y-74712471D01*
X140159500Y-74548000D01*
X140159500Y-74547999D01*
X140176381Y-74485000D01*
X140222500Y-74438881D01*
X140285500Y-74422000D01*
X142114000Y-74422000D01*
X142177000Y-74438881D01*
G37*
%TD.AperFunction*%
%TD*%
%TA.AperFunction,Conductor*%
%TO.N,GND*%
G36*
X149338889Y-59700889D02*
G01*
X149521089Y-59715235D01*
X149540609Y-59718327D01*
X149713510Y-59759843D01*
X149732308Y-59765952D01*
X149896580Y-59834002D01*
X149914185Y-59842973D01*
X149949863Y-59864838D01*
X150065792Y-59935885D01*
X150081786Y-59947506D01*
X150221104Y-60066501D01*
X150228366Y-60073215D01*
X153125095Y-62969944D01*
X153152409Y-63010821D01*
X153162000Y-63059039D01*
X153162000Y-65914000D01*
X153145119Y-65977000D01*
X153099000Y-66023119D01*
X153036000Y-66040000D01*
X145034000Y-66040000D01*
X145034000Y-66056590D01*
X145034000Y-73534000D01*
X145017119Y-73597000D01*
X144971000Y-73643119D01*
X144908000Y-73660000D01*
X143836896Y-73660000D01*
X143769196Y-73640267D01*
X143733138Y-73599152D01*
X143731047Y-73600617D01*
X143724724Y-73591587D01*
X143720065Y-73581596D01*
X143636404Y-73497935D01*
X143633474Y-73496568D01*
X143597736Y-73455816D01*
X143583500Y-73397637D01*
X143583500Y-72663809D01*
X143583979Y-72652827D01*
X143584751Y-72644000D01*
X143587287Y-72615016D01*
X143577461Y-72578349D01*
X143575084Y-72567623D01*
X143571701Y-72548434D01*
X143568497Y-72530261D01*
X143562982Y-72520710D01*
X143561758Y-72517345D01*
X143560249Y-72514109D01*
X143557395Y-72503457D01*
X143535618Y-72472357D01*
X143529726Y-72463108D01*
X143510750Y-72430240D01*
X143481677Y-72405844D01*
X143473572Y-72398417D01*
X143227584Y-72152429D01*
X143220158Y-72144326D01*
X143195760Y-72115250D01*
X143162888Y-72096271D01*
X143153622Y-72090368D01*
X143131572Y-72074928D01*
X143131571Y-72074927D01*
X143122543Y-72068606D01*
X143111898Y-72065753D01*
X143108642Y-72064235D01*
X143105280Y-72063011D01*
X143095739Y-72057503D01*
X143084888Y-72055589D01*
X143084881Y-72055587D01*
X143058363Y-72050911D01*
X143047637Y-72048533D01*
X143021636Y-72041566D01*
X143021629Y-72041565D01*
X143010984Y-72038713D01*
X142999999Y-72039674D01*
X142973189Y-72042020D01*
X142962206Y-72042500D01*
X139036845Y-72042500D01*
X138979642Y-72028767D01*
X138934909Y-71990561D01*
X138912396Y-71936211D01*
X138917012Y-71877564D01*
X138947750Y-71827404D01*
X139159260Y-71615895D01*
X139544750Y-71230404D01*
X139585628Y-71203091D01*
X139633846Y-71193500D01*
X140188433Y-71193500D01*
X140238819Y-71204013D01*
X140280797Y-71233798D01*
X140307362Y-71277884D01*
X140322087Y-71319967D01*
X140322088Y-71319969D01*
X140325207Y-71328882D01*
X140330812Y-71336477D01*
X140330814Y-71336480D01*
X140391348Y-71418500D01*
X140405850Y-71438150D01*
X140515118Y-71518793D01*
X140643301Y-71563646D01*
X140673734Y-71566500D01*
X142279313Y-71566500D01*
X142282266Y-71566500D01*
X142312699Y-71563646D01*
X142440882Y-71518793D01*
X142550150Y-71438150D01*
X142630793Y-71328882D01*
X142675646Y-71200699D01*
X142678500Y-71170266D01*
X142678500Y-70561734D01*
X142675646Y-70531301D01*
X142630793Y-70403118D01*
X142550150Y-70293850D01*
X142533552Y-70281600D01*
X142448480Y-70218814D01*
X142448477Y-70218812D01*
X142440882Y-70213207D01*
X142312699Y-70168354D01*
X142305067Y-70167638D01*
X142305066Y-70167638D01*
X142285201Y-70165775D01*
X142285195Y-70165774D01*
X142282266Y-70165500D01*
X140673734Y-70165500D01*
X140670805Y-70165774D01*
X140670798Y-70165775D01*
X140650933Y-70167638D01*
X140650930Y-70167638D01*
X140643301Y-70168354D01*
X140636063Y-70170886D01*
X140636061Y-70170887D01*
X140524034Y-70210087D01*
X140515118Y-70213207D01*
X140507525Y-70218810D01*
X140507519Y-70218814D01*
X140413442Y-70288246D01*
X140413438Y-70288249D01*
X140405850Y-70293850D01*
X140400249Y-70301438D01*
X140400246Y-70301442D01*
X140330814Y-70395519D01*
X140330810Y-70395525D01*
X140325207Y-70403118D01*
X140322089Y-70412027D01*
X140322087Y-70412032D01*
X140307362Y-70454116D01*
X140280797Y-70498202D01*
X140238819Y-70527987D01*
X140188433Y-70538500D01*
X139465796Y-70538500D01*
X139454814Y-70538021D01*
X139427991Y-70535674D01*
X139427989Y-70535674D01*
X139417015Y-70534714D01*
X139402885Y-70538500D01*
X139380359Y-70544535D01*
X139369636Y-70546912D01*
X139344094Y-70551416D01*
X139332261Y-70553503D01*
X139322720Y-70559010D01*
X139319359Y-70560234D01*
X139316100Y-70561753D01*
X139305457Y-70564606D01*
X139296429Y-70570926D01*
X139296427Y-70570928D01*
X139274376Y-70586368D01*
X139265113Y-70592269D01*
X139241783Y-70605739D01*
X139241778Y-70605742D01*
X139232240Y-70611250D01*
X139225160Y-70619686D01*
X139225153Y-70619693D01*
X139207843Y-70640322D01*
X139200420Y-70648423D01*
X138343251Y-71505595D01*
X138302373Y-71532909D01*
X138254155Y-71542500D01*
X137758844Y-71542500D01*
X137701641Y-71528767D01*
X137656908Y-71490561D01*
X137634395Y-71436211D01*
X137639011Y-71377564D01*
X137669749Y-71327405D01*
X138532685Y-70464470D01*
X139544749Y-69452405D01*
X139585627Y-69425091D01*
X139633845Y-69415500D01*
X140188433Y-69415500D01*
X140238819Y-69426013D01*
X140280797Y-69455798D01*
X140307362Y-69499884D01*
X140322087Y-69541967D01*
X140322088Y-69541969D01*
X140325207Y-69550882D01*
X140330812Y-69558477D01*
X140330814Y-69558480D01*
X140376217Y-69619999D01*
X140405850Y-69660150D01*
X140413442Y-69665753D01*
X140483124Y-69717181D01*
X140515118Y-69740793D01*
X140643301Y-69785646D01*
X140673734Y-69788500D01*
X142279313Y-69788500D01*
X142282266Y-69788500D01*
X142312699Y-69785646D01*
X142440882Y-69740793D01*
X142550150Y-69660150D01*
X142630793Y-69550882D01*
X142675646Y-69422699D01*
X142678500Y-69392266D01*
X142678500Y-68783734D01*
X142675646Y-68753301D01*
X142630793Y-68625118D01*
X142550150Y-68515850D01*
X142542557Y-68510246D01*
X142448480Y-68440814D01*
X142448477Y-68440812D01*
X142440882Y-68435207D01*
X142312699Y-68390354D01*
X142305067Y-68389638D01*
X142305066Y-68389638D01*
X142285201Y-68387775D01*
X142285195Y-68387774D01*
X142282266Y-68387500D01*
X140673734Y-68387500D01*
X140670805Y-68387774D01*
X140670798Y-68387775D01*
X140650933Y-68389638D01*
X140650930Y-68389638D01*
X140643301Y-68390354D01*
X140636063Y-68392886D01*
X140636061Y-68392887D01*
X140524034Y-68432087D01*
X140515118Y-68435207D01*
X140507525Y-68440810D01*
X140507519Y-68440814D01*
X140413442Y-68510246D01*
X140413438Y-68510249D01*
X140405850Y-68515850D01*
X140400249Y-68523438D01*
X140400246Y-68523442D01*
X140330814Y-68617519D01*
X140330810Y-68617525D01*
X140325207Y-68625118D01*
X140322089Y-68634027D01*
X140322087Y-68634032D01*
X140307362Y-68676116D01*
X140280797Y-68720202D01*
X140238819Y-68749987D01*
X140188433Y-68760500D01*
X139465796Y-68760500D01*
X139454814Y-68760021D01*
X139427991Y-68757674D01*
X139427989Y-68757674D01*
X139417015Y-68756714D01*
X139402885Y-68760500D01*
X139380359Y-68766535D01*
X139369636Y-68768912D01*
X139344094Y-68773416D01*
X139332261Y-68775503D01*
X139322720Y-68781010D01*
X139319359Y-68782234D01*
X139316100Y-68783753D01*
X139305457Y-68786606D01*
X139296429Y-68792926D01*
X139296427Y-68792928D01*
X139274376Y-68808368D01*
X139265106Y-68814273D01*
X139260566Y-68816894D01*
X139203062Y-68833653D01*
X139144317Y-68821967D01*
X139097605Y-68784476D01*
X139073483Y-68729651D01*
X139077401Y-68669883D01*
X139108469Y-68618683D01*
X139917598Y-67809555D01*
X139925656Y-67802171D01*
X139954750Y-67777760D01*
X139973727Y-67744888D01*
X139979633Y-67735619D01*
X140001394Y-67704543D01*
X140004249Y-67693885D01*
X140005762Y-67690641D01*
X140006981Y-67687291D01*
X140012497Y-67677739D01*
X140019090Y-67640339D01*
X140021466Y-67629629D01*
X140028433Y-67603631D01*
X140028433Y-67603630D01*
X140031286Y-67592984D01*
X140027978Y-67555184D01*
X140027500Y-67544203D01*
X140027500Y-67376463D01*
X140033668Y-67337525D01*
X140047635Y-67310112D01*
X140048528Y-67309220D01*
X140109719Y-67189126D01*
X140130804Y-67056000D01*
X140109719Y-66922874D01*
X140103989Y-66911629D01*
X140053028Y-66811612D01*
X140048528Y-66802780D01*
X139953220Y-66707472D01*
X139944388Y-66702972D01*
X139944387Y-66702971D01*
X139841959Y-66650781D01*
X139841955Y-66650779D01*
X139833126Y-66646281D01*
X139823334Y-66644730D01*
X139709793Y-66626747D01*
X139700000Y-66625196D01*
X139690207Y-66626747D01*
X139576665Y-66644730D01*
X139576663Y-66644730D01*
X139566874Y-66646281D01*
X139558046Y-66650778D01*
X139558040Y-66650781D01*
X139448703Y-66706492D01*
X139386553Y-66720128D01*
X139325665Y-66701658D01*
X139281565Y-66655791D01*
X139265500Y-66594225D01*
X139265500Y-66360463D01*
X139271668Y-66321525D01*
X139285635Y-66294112D01*
X139286528Y-66293220D01*
X139347719Y-66173126D01*
X139367137Y-66050524D01*
X139367253Y-66049793D01*
X139368804Y-66040000D01*
X139347719Y-65906874D01*
X139286528Y-65786780D01*
X139191220Y-65691472D01*
X139182388Y-65686972D01*
X139182387Y-65686971D01*
X139079959Y-65634781D01*
X139079955Y-65634779D01*
X139071126Y-65630281D01*
X139061334Y-65628730D01*
X138947793Y-65610747D01*
X138938000Y-65609196D01*
X138928207Y-65610747D01*
X138814665Y-65628730D01*
X138814663Y-65628730D01*
X138804874Y-65630281D01*
X138796046Y-65634778D01*
X138796040Y-65634781D01*
X138693612Y-65686971D01*
X138693608Y-65686973D01*
X138684780Y-65691472D01*
X138677771Y-65698480D01*
X138677768Y-65698483D01*
X138596483Y-65779768D01*
X138596480Y-65779771D01*
X138589472Y-65786780D01*
X138584973Y-65795608D01*
X138584971Y-65795612D01*
X138532781Y-65898040D01*
X138532778Y-65898046D01*
X138528281Y-65906874D01*
X138526730Y-65916663D01*
X138526730Y-65916665D01*
X138510400Y-66019771D01*
X138507196Y-66040000D01*
X138508747Y-66049793D01*
X138520391Y-66123314D01*
X138528281Y-66173126D01*
X138532779Y-66181955D01*
X138532781Y-66181959D01*
X138538385Y-66192957D01*
X138589472Y-66293220D01*
X138590364Y-66294112D01*
X138604332Y-66321525D01*
X138610500Y-66360463D01*
X138610500Y-66594225D01*
X138594435Y-66655791D01*
X138550335Y-66701658D01*
X138489447Y-66720128D01*
X138427297Y-66706492D01*
X138317959Y-66650781D01*
X138317955Y-66650779D01*
X138309126Y-66646281D01*
X138299334Y-66644730D01*
X138185793Y-66626747D01*
X138176000Y-66625196D01*
X138166207Y-66626747D01*
X138052665Y-66644730D01*
X138052663Y-66644730D01*
X138042874Y-66646281D01*
X138034046Y-66650778D01*
X138034040Y-66650781D01*
X137931612Y-66702971D01*
X137931608Y-66702973D01*
X137922780Y-66707472D01*
X137915771Y-66714480D01*
X137915768Y-66714483D01*
X137834483Y-66795768D01*
X137834480Y-66795771D01*
X137827472Y-66802780D01*
X137822973Y-66811608D01*
X137822971Y-66811612D01*
X137770781Y-66914040D01*
X137770778Y-66914046D01*
X137766281Y-66922874D01*
X137745196Y-67056000D01*
X137766281Y-67189126D01*
X137770779Y-67197955D01*
X137770781Y-67197959D01*
X137776520Y-67209222D01*
X137826033Y-67306396D01*
X137826034Y-67306398D01*
X137827472Y-67309220D01*
X137827250Y-67309333D01*
X137846818Y-67356570D01*
X137842204Y-67415219D01*
X137811465Y-67465379D01*
X136271248Y-69005597D01*
X136230374Y-69032909D01*
X136182156Y-69042500D01*
X135758848Y-69042500D01*
X135753430Y-69043454D01*
X135747953Y-69043934D01*
X135747915Y-69043500D01*
X135736481Y-69044500D01*
X135551499Y-69044500D01*
X135488499Y-69027619D01*
X135442380Y-68981500D01*
X135425499Y-68918500D01*
X135425499Y-68287788D01*
X135425499Y-68281600D01*
X135410240Y-68204883D01*
X135352112Y-68117888D01*
X135265117Y-68059760D01*
X135252949Y-68057339D01*
X135252948Y-68057339D01*
X135194467Y-68045706D01*
X135194460Y-68045705D01*
X135188401Y-68044500D01*
X135182214Y-68044500D01*
X135017787Y-68044500D01*
X135017777Y-68044500D01*
X135011600Y-68044501D01*
X135005534Y-68045707D01*
X135005529Y-68045708D01*
X134947056Y-68057338D01*
X134947052Y-68057339D01*
X134934883Y-68059760D01*
X134924565Y-68066653D01*
X134924560Y-68066656D01*
X134919994Y-68069707D01*
X134874575Y-68088517D01*
X134825415Y-68088515D01*
X134779998Y-68069703D01*
X134775434Y-68066653D01*
X134775432Y-68066652D01*
X134765117Y-68059760D01*
X134752916Y-68057333D01*
X134694467Y-68045706D01*
X134694460Y-68045705D01*
X134688401Y-68044500D01*
X134682214Y-68044500D01*
X134517787Y-68044500D01*
X134517777Y-68044500D01*
X134511600Y-68044501D01*
X134505534Y-68045707D01*
X134505529Y-68045708D01*
X134447056Y-68057338D01*
X134447052Y-68057339D01*
X134434883Y-68059760D01*
X134424565Y-68066653D01*
X134424560Y-68066656D01*
X134419994Y-68069707D01*
X134374575Y-68088517D01*
X134325415Y-68088515D01*
X134279998Y-68069703D01*
X134275434Y-68066653D01*
X134275432Y-68066652D01*
X134265117Y-68059760D01*
X134252916Y-68057333D01*
X134194467Y-68045706D01*
X134194460Y-68045705D01*
X134188401Y-68044500D01*
X134182214Y-68044500D01*
X134017787Y-68044500D01*
X134017777Y-68044500D01*
X134011600Y-68044501D01*
X134005534Y-68045707D01*
X134005529Y-68045708D01*
X133947056Y-68057338D01*
X133947052Y-68057339D01*
X133934883Y-68059760D01*
X133924565Y-68066653D01*
X133924560Y-68066656D01*
X133919994Y-68069707D01*
X133874575Y-68088517D01*
X133825415Y-68088515D01*
X133779998Y-68069703D01*
X133775434Y-68066653D01*
X133775432Y-68066652D01*
X133765117Y-68059760D01*
X133752916Y-68057333D01*
X133694467Y-68045706D01*
X133694460Y-68045705D01*
X133688401Y-68044500D01*
X133682214Y-68044500D01*
X133517787Y-68044500D01*
X133517777Y-68044500D01*
X133511600Y-68044501D01*
X133505534Y-68045707D01*
X133505529Y-68045708D01*
X133447056Y-68057338D01*
X133447052Y-68057339D01*
X133434883Y-68059760D01*
X133424565Y-68066653D01*
X133424560Y-68066656D01*
X133419994Y-68069707D01*
X133374575Y-68088517D01*
X133325415Y-68088515D01*
X133279998Y-68069703D01*
X133275434Y-68066653D01*
X133275432Y-68066652D01*
X133265117Y-68059760D01*
X133252916Y-68057333D01*
X133194467Y-68045706D01*
X133194460Y-68045705D01*
X133188401Y-68044500D01*
X133182214Y-68044500D01*
X133017787Y-68044500D01*
X133017777Y-68044500D01*
X133011600Y-68044501D01*
X133005534Y-68045707D01*
X133005529Y-68045708D01*
X132947056Y-68057338D01*
X132947052Y-68057339D01*
X132934883Y-68059760D01*
X132924565Y-68066653D01*
X132924560Y-68066656D01*
X132919994Y-68069707D01*
X132874575Y-68088517D01*
X132825415Y-68088515D01*
X132779998Y-68069703D01*
X132775434Y-68066653D01*
X132775432Y-68066652D01*
X132765117Y-68059760D01*
X132752916Y-68057333D01*
X132694467Y-68045706D01*
X132694460Y-68045705D01*
X132688401Y-68044500D01*
X132682214Y-68044500D01*
X132665653Y-68044500D01*
X132553500Y-68044500D01*
X132490501Y-68027621D01*
X132444381Y-67981501D01*
X132427500Y-67918501D01*
X132427500Y-67557159D01*
X132437091Y-67508941D01*
X132464405Y-67468064D01*
X132467090Y-67465379D01*
X132496065Y-67436404D01*
X132546068Y-67329173D01*
X132552500Y-67280316D01*
X132552500Y-66831684D01*
X132546068Y-66782827D01*
X132496065Y-66675596D01*
X132412404Y-66591935D01*
X132402411Y-66587275D01*
X132313910Y-66546006D01*
X132313909Y-66546005D01*
X132305173Y-66541932D01*
X132295615Y-66540673D01*
X132295613Y-66540673D01*
X132260403Y-66536038D01*
X132260402Y-66536037D01*
X132256316Y-66535500D01*
X131907684Y-66535500D01*
X131903598Y-66536037D01*
X131903596Y-66536038D01*
X131868386Y-66540673D01*
X131868382Y-66540674D01*
X131858827Y-66541932D01*
X131850092Y-66546004D01*
X131850089Y-66546006D01*
X131761588Y-66587275D01*
X131761585Y-66587276D01*
X131751596Y-66591935D01*
X131743800Y-66599730D01*
X131743797Y-66599733D01*
X131675733Y-66667797D01*
X131675730Y-66667800D01*
X131667935Y-66675596D01*
X131663276Y-66685585D01*
X131663275Y-66685588D01*
X131622006Y-66774089D01*
X131622004Y-66774092D01*
X131617932Y-66782827D01*
X131616674Y-66792382D01*
X131616673Y-66792386D01*
X131616228Y-66795768D01*
X131611500Y-66831684D01*
X131611500Y-67280316D01*
X131612037Y-67284402D01*
X131612038Y-67284403D01*
X131614933Y-67306398D01*
X131617932Y-67329173D01*
X131622005Y-67337909D01*
X131622006Y-67337910D01*
X131639984Y-67376463D01*
X131667935Y-67436404D01*
X131675732Y-67444201D01*
X131675733Y-67444202D01*
X131735595Y-67504064D01*
X131762909Y-67544941D01*
X131772500Y-67593159D01*
X131772500Y-67918500D01*
X131755619Y-67981500D01*
X131709500Y-68027619D01*
X131646500Y-68044500D01*
X131518664Y-68044500D01*
X131464792Y-68032403D01*
X131421265Y-67998434D01*
X131390908Y-67961444D01*
X131390906Y-67961442D01*
X131386490Y-67956061D01*
X131342963Y-67922092D01*
X131261556Y-67883590D01*
X131254768Y-67882065D01*
X131254763Y-67882064D01*
X131211078Y-67872255D01*
X131211075Y-67872254D01*
X131207684Y-67871493D01*
X131204235Y-67871110D01*
X131204220Y-67871108D01*
X131166126Y-67866884D01*
X131166119Y-67866883D01*
X131162660Y-67866500D01*
X129503511Y-67866500D01*
X129502990Y-67866508D01*
X129502922Y-67866509D01*
X129497356Y-67866600D01*
X129497346Y-67866600D01*
X129496807Y-67866609D01*
X129496295Y-67866625D01*
X129496283Y-67866626D01*
X129493290Y-67866723D01*
X129493258Y-67866724D01*
X129491721Y-67866775D01*
X129491191Y-67866818D01*
X129484872Y-67866999D01*
X129087114Y-67866999D01*
X129080801Y-67866818D01*
X129080297Y-67866777D01*
X129078784Y-67866727D01*
X129078759Y-67866726D01*
X129075818Y-67866630D01*
X129075780Y-67866629D01*
X129075198Y-67866610D01*
X129074626Y-67866600D01*
X129074600Y-67866600D01*
X129069036Y-67866509D01*
X129069007Y-67866508D01*
X129068471Y-67866500D01*
X128233511Y-67866500D01*
X128232990Y-67866508D01*
X128232922Y-67866509D01*
X128227356Y-67866600D01*
X128227346Y-67866600D01*
X128226807Y-67866609D01*
X128226295Y-67866625D01*
X128226283Y-67866626D01*
X128223290Y-67866723D01*
X128223258Y-67866724D01*
X128221721Y-67866775D01*
X128221191Y-67866818D01*
X128214872Y-67866999D01*
X127817114Y-67866999D01*
X127810801Y-67866818D01*
X127810297Y-67866777D01*
X127808784Y-67866727D01*
X127808759Y-67866726D01*
X127805818Y-67866630D01*
X127805780Y-67866629D01*
X127805198Y-67866610D01*
X127804626Y-67866600D01*
X127804600Y-67866600D01*
X127799036Y-67866509D01*
X127799007Y-67866508D01*
X127798471Y-67866500D01*
X125094000Y-67866500D01*
X125089914Y-67867037D01*
X125089912Y-67867038D01*
X125044903Y-67872963D01*
X125044896Y-67872964D01*
X125040812Y-67873502D01*
X125036844Y-67874565D01*
X125036830Y-67874568D01*
X124981786Y-67889317D01*
X124981769Y-67889322D01*
X124977812Y-67890383D01*
X124974013Y-67891956D01*
X124974006Y-67891959D01*
X124935881Y-67907751D01*
X124935874Y-67907754D01*
X124928250Y-67910913D01*
X124921699Y-67915939D01*
X124921697Y-67915941D01*
X124888961Y-67941060D01*
X124888951Y-67941068D01*
X124885690Y-67943571D01*
X124882777Y-67946483D01*
X124882769Y-67946491D01*
X124842491Y-67986769D01*
X124842483Y-67986777D01*
X124839571Y-67989690D01*
X124837068Y-67992951D01*
X124837060Y-67992961D01*
X124811962Y-68025670D01*
X124806913Y-68032250D01*
X124803754Y-68039874D01*
X124803751Y-68039881D01*
X124787959Y-68078006D01*
X124787956Y-68078013D01*
X124786383Y-68081812D01*
X124785322Y-68085769D01*
X124785317Y-68085786D01*
X124770568Y-68140830D01*
X124770565Y-68140844D01*
X124769502Y-68144812D01*
X124762500Y-68198000D01*
X124762500Y-68202122D01*
X124762500Y-73328500D01*
X124745619Y-73391500D01*
X124699500Y-73437619D01*
X124636500Y-73454500D01*
X123580500Y-73454500D01*
X123517500Y-73437619D01*
X123471381Y-73391500D01*
X123454500Y-73328500D01*
X123454500Y-67314956D01*
X123454888Y-67305071D01*
X123457161Y-67276194D01*
X123469229Y-67122845D01*
X123472318Y-67103340D01*
X123513831Y-66930424D01*
X123519935Y-66911638D01*
X123587983Y-66747356D01*
X123596953Y-66729750D01*
X123689864Y-66578134D01*
X123701481Y-66562145D01*
X123816960Y-66426937D01*
X123830939Y-66412959D01*
X123937994Y-66321525D01*
X123966145Y-66297481D01*
X123982134Y-66285864D01*
X124133750Y-66192953D01*
X124151356Y-66183983D01*
X124315638Y-66115935D01*
X124334424Y-66109831D01*
X124507340Y-66068318D01*
X124526845Y-66065229D01*
X124696793Y-66051854D01*
X124709071Y-66050888D01*
X124718956Y-66050500D01*
X135360537Y-66050500D01*
X135363863Y-66050500D01*
X135363949Y-66050511D01*
X135363949Y-66050522D01*
X135464728Y-66050525D01*
X135663805Y-66018997D01*
X135855498Y-65956711D01*
X136035085Y-65865199D01*
X136198142Y-65746716D01*
X136269399Y-65675450D01*
X136269403Y-65675444D01*
X141871956Y-60072891D01*
X141879187Y-60066205D01*
X142018197Y-59947464D01*
X142034173Y-59935855D01*
X142185789Y-59842935D01*
X142203401Y-59833960D01*
X142367685Y-59765908D01*
X142386468Y-59759804D01*
X142559387Y-59718290D01*
X142578896Y-59715201D01*
X142748604Y-59701850D01*
X142760840Y-59700888D01*
X142770721Y-59700500D01*
X149328998Y-59700500D01*
X149338889Y-59700889D01*
G37*
%TD.AperFunction*%
%TA.AperFunction,Conductor*%
G36*
X142842377Y-72707093D02*
G01*
X142883256Y-72734410D01*
X142891601Y-72742756D01*
X142918910Y-72783631D01*
X142928500Y-72831846D01*
X142928500Y-73397637D01*
X142914264Y-73455816D01*
X142878525Y-73496568D01*
X142875596Y-73497935D01*
X142867802Y-73505728D01*
X142867799Y-73505731D01*
X142799731Y-73573799D01*
X142799728Y-73573802D01*
X142791935Y-73581596D01*
X142787276Y-73591585D01*
X142780953Y-73600617D01*
X142778861Y-73599152D01*
X142742804Y-73640267D01*
X142675104Y-73660000D01*
X142312896Y-73660000D01*
X142245196Y-73640267D01*
X142209138Y-73599152D01*
X142207047Y-73600617D01*
X142200724Y-73591587D01*
X142196065Y-73581596D01*
X142112404Y-73497935D01*
X142097845Y-73491146D01*
X142013910Y-73452006D01*
X142013909Y-73452005D01*
X142005173Y-73447932D01*
X141995615Y-73446673D01*
X141995613Y-73446673D01*
X141960403Y-73442038D01*
X141960402Y-73442037D01*
X141956316Y-73441500D01*
X141507684Y-73441500D01*
X141503598Y-73442037D01*
X141503596Y-73442038D01*
X141468386Y-73446673D01*
X141468382Y-73446674D01*
X141458827Y-73447932D01*
X141450092Y-73452004D01*
X141450089Y-73452006D01*
X141361588Y-73493275D01*
X141361585Y-73493276D01*
X141351596Y-73497935D01*
X141343799Y-73505731D01*
X141343800Y-73505731D01*
X141328254Y-73521277D01*
X141284313Y-73549812D01*
X141232565Y-73558007D01*
X141181958Y-73544447D01*
X141111962Y-73508782D01*
X141111955Y-73508779D01*
X141103126Y-73504281D01*
X141093334Y-73502730D01*
X140979793Y-73484747D01*
X140970000Y-73483196D01*
X140960207Y-73484747D01*
X140846665Y-73502730D01*
X140846663Y-73502730D01*
X140836874Y-73504281D01*
X140828046Y-73508778D01*
X140828040Y-73508781D01*
X140725612Y-73560971D01*
X140725608Y-73560973D01*
X140716780Y-73565472D01*
X140709771Y-73572480D01*
X140709768Y-73572483D01*
X140659157Y-73623095D01*
X140618280Y-73650409D01*
X140570062Y-73660000D01*
X139700000Y-73660000D01*
X139700000Y-72697500D01*
X142794155Y-72697500D01*
X142842377Y-72707093D01*
G37*
%TD.AperFunction*%
%TA.AperFunction,Conductor*%
G36*
X131920004Y-69295298D02*
G01*
X131934883Y-69305240D01*
X132011599Y-69320500D01*
X132188400Y-69320499D01*
X132265117Y-69305240D01*
X132279995Y-69295298D01*
X132325417Y-69276482D01*
X132374583Y-69276482D01*
X132420004Y-69295298D01*
X132434883Y-69305240D01*
X132511599Y-69320500D01*
X132688400Y-69320499D01*
X132765117Y-69305240D01*
X132779995Y-69295298D01*
X132825417Y-69276482D01*
X132874583Y-69276482D01*
X132920004Y-69295298D01*
X132934883Y-69305240D01*
X133011599Y-69320500D01*
X133188400Y-69320499D01*
X133265117Y-69305240D01*
X133279995Y-69295298D01*
X133325417Y-69276482D01*
X133374583Y-69276482D01*
X133420004Y-69295298D01*
X133434883Y-69305240D01*
X133511599Y-69320500D01*
X133688400Y-69320499D01*
X133765117Y-69305240D01*
X133779995Y-69295298D01*
X133825417Y-69276482D01*
X133874583Y-69276482D01*
X133920004Y-69295298D01*
X133934883Y-69305240D01*
X134011599Y-69320500D01*
X134188400Y-69320499D01*
X134265117Y-69305240D01*
X134279995Y-69295298D01*
X134325417Y-69276482D01*
X134374583Y-69276482D01*
X134420004Y-69295298D01*
X134434883Y-69305240D01*
X134511599Y-69320500D01*
X134688400Y-69320499D01*
X134765117Y-69305240D01*
X134779995Y-69295298D01*
X134825417Y-69276482D01*
X134874583Y-69276482D01*
X134920004Y-69295298D01*
X134934883Y-69305240D01*
X135011599Y-69320500D01*
X135023492Y-69320499D01*
X135086491Y-69337375D01*
X135132614Y-69383490D01*
X135149500Y-69446488D01*
X135149500Y-69452207D01*
X135149500Y-69452216D01*
X135149501Y-69458400D01*
X135164760Y-69535117D01*
X135171654Y-69545434D01*
X135174704Y-69549999D01*
X135193517Y-69595418D01*
X135193517Y-69644580D01*
X135174705Y-69689999D01*
X135171655Y-69694562D01*
X135171653Y-69694566D01*
X135164760Y-69704883D01*
X135162339Y-69717053D01*
X135162338Y-69717056D01*
X135150706Y-69775532D01*
X135150705Y-69775540D01*
X135149500Y-69781599D01*
X135149500Y-69787784D01*
X135149500Y-69787785D01*
X135149500Y-69952212D01*
X135149500Y-69952221D01*
X135149501Y-69958400D01*
X135150707Y-69964466D01*
X135150708Y-69964470D01*
X135162338Y-70022943D01*
X135162339Y-70022945D01*
X135164760Y-70035117D01*
X135171652Y-70045432D01*
X135171654Y-70045436D01*
X135174703Y-70049998D01*
X135193515Y-70095415D01*
X135193517Y-70144575D01*
X135174707Y-70189994D01*
X135171655Y-70194561D01*
X135171653Y-70194567D01*
X135164760Y-70204883D01*
X135162339Y-70217052D01*
X135162339Y-70217053D01*
X135150706Y-70275532D01*
X135150705Y-70275540D01*
X135149500Y-70281599D01*
X135149500Y-70287784D01*
X135149500Y-70287785D01*
X135149500Y-70452212D01*
X135149500Y-70452221D01*
X135149501Y-70458400D01*
X135150707Y-70464466D01*
X135150708Y-70464470D01*
X135162338Y-70522943D01*
X135162339Y-70522945D01*
X135164760Y-70535117D01*
X135171653Y-70545433D01*
X135171655Y-70545438D01*
X135174705Y-70550002D01*
X135193516Y-70595420D01*
X135193516Y-70644580D01*
X135174705Y-70689998D01*
X135171654Y-70694563D01*
X135171651Y-70694568D01*
X135164760Y-70704883D01*
X135162339Y-70717052D01*
X135162339Y-70717053D01*
X135150706Y-70775532D01*
X135150705Y-70775540D01*
X135149500Y-70781599D01*
X135149500Y-70787784D01*
X135149500Y-70787785D01*
X135149500Y-70952212D01*
X135149500Y-70952221D01*
X135149501Y-70958400D01*
X135150707Y-70964464D01*
X135150708Y-70964470D01*
X135162338Y-71022943D01*
X135162339Y-71022945D01*
X135164760Y-71035117D01*
X135171653Y-71045433D01*
X135171655Y-71045438D01*
X135174705Y-71050002D01*
X135193516Y-71095420D01*
X135193516Y-71144580D01*
X135174705Y-71189998D01*
X135171654Y-71194563D01*
X135171651Y-71194568D01*
X135164760Y-71204883D01*
X135162339Y-71217052D01*
X135162339Y-71217053D01*
X135150706Y-71275532D01*
X135150705Y-71275540D01*
X135149500Y-71281599D01*
X135149500Y-71287784D01*
X135149500Y-71287785D01*
X135149500Y-71452212D01*
X135149500Y-71452221D01*
X135149501Y-71458400D01*
X135150707Y-71464466D01*
X135150708Y-71464470D01*
X135162338Y-71522943D01*
X135162339Y-71522945D01*
X135164760Y-71535117D01*
X135171653Y-71545433D01*
X135171655Y-71545438D01*
X135174705Y-71550002D01*
X135193516Y-71595420D01*
X135193516Y-71644580D01*
X135174705Y-71689998D01*
X135171654Y-71694563D01*
X135171651Y-71694568D01*
X135164760Y-71704883D01*
X135162339Y-71717052D01*
X135162339Y-71717053D01*
X135150706Y-71775532D01*
X135150705Y-71775540D01*
X135149500Y-71781599D01*
X135149500Y-71787784D01*
X135149500Y-71787785D01*
X135149500Y-71952212D01*
X135149500Y-71952221D01*
X135149501Y-71958400D01*
X135150707Y-71964466D01*
X135150708Y-71964470D01*
X135162338Y-72022943D01*
X135162339Y-72022945D01*
X135164760Y-72035117D01*
X135171652Y-72045432D01*
X135171654Y-72045436D01*
X135174703Y-72049998D01*
X135193515Y-72095415D01*
X135193517Y-72144575D01*
X135174707Y-72189994D01*
X135171655Y-72194561D01*
X135171652Y-72194568D01*
X135164760Y-72204883D01*
X135162339Y-72217052D01*
X135162339Y-72217053D01*
X135150706Y-72275532D01*
X135150705Y-72275540D01*
X135149500Y-72281599D01*
X135149500Y-72287784D01*
X135149500Y-72287785D01*
X135149500Y-72452212D01*
X135149500Y-72452221D01*
X135149501Y-72458400D01*
X135151383Y-72467863D01*
X135162314Y-72522819D01*
X135161442Y-72576010D01*
X135138697Y-72624101D01*
X135119443Y-72649193D01*
X135119438Y-72649200D01*
X135114413Y-72655750D01*
X135111254Y-72663374D01*
X135111251Y-72663381D01*
X135095459Y-72701506D01*
X135095456Y-72701513D01*
X135093883Y-72705312D01*
X135092822Y-72709269D01*
X135092817Y-72709286D01*
X135078068Y-72764330D01*
X135078065Y-72764344D01*
X135077002Y-72768312D01*
X135076464Y-72772393D01*
X135076463Y-72772402D01*
X135070106Y-72820690D01*
X135052902Y-72869609D01*
X135017454Y-72907457D01*
X134969764Y-72927822D01*
X134947056Y-72932338D01*
X134947052Y-72932339D01*
X134934883Y-72934760D01*
X134924568Y-72941652D01*
X134924561Y-72941655D01*
X134919998Y-72944705D01*
X134874580Y-72963516D01*
X134825420Y-72963516D01*
X134780002Y-72944705D01*
X134775436Y-72941654D01*
X134775432Y-72941652D01*
X134765117Y-72934760D01*
X134749774Y-72931708D01*
X134694467Y-72920706D01*
X134694460Y-72920705D01*
X134688401Y-72919500D01*
X134682214Y-72919500D01*
X134517787Y-72919500D01*
X134517777Y-72919500D01*
X134511600Y-72919501D01*
X134505534Y-72920707D01*
X134505529Y-72920708D01*
X134447056Y-72932338D01*
X134447052Y-72932339D01*
X134434883Y-72934760D01*
X134424568Y-72941652D01*
X134424561Y-72941655D01*
X134419998Y-72944705D01*
X134374580Y-72963516D01*
X134325420Y-72963516D01*
X134280002Y-72944705D01*
X134275436Y-72941654D01*
X134275432Y-72941652D01*
X134265117Y-72934760D01*
X134249774Y-72931708D01*
X134194467Y-72920706D01*
X134194460Y-72920705D01*
X134188401Y-72919500D01*
X134182214Y-72919500D01*
X134017787Y-72919500D01*
X134017777Y-72919500D01*
X134011600Y-72919501D01*
X134005534Y-72920707D01*
X134005529Y-72920708D01*
X133947056Y-72932338D01*
X133947052Y-72932339D01*
X133934883Y-72934760D01*
X133924565Y-72941653D01*
X133924560Y-72941656D01*
X133919994Y-72944707D01*
X133874575Y-72963517D01*
X133825415Y-72963515D01*
X133779998Y-72944703D01*
X133775434Y-72941653D01*
X133775432Y-72941652D01*
X133765117Y-72934760D01*
X133749774Y-72931708D01*
X133694467Y-72920706D01*
X133694460Y-72920705D01*
X133688401Y-72919500D01*
X133682214Y-72919500D01*
X133517787Y-72919500D01*
X133517777Y-72919500D01*
X133511600Y-72919501D01*
X133505534Y-72920707D01*
X133505529Y-72920708D01*
X133447056Y-72932338D01*
X133447052Y-72932339D01*
X133434883Y-72934760D01*
X133424565Y-72941653D01*
X133424560Y-72941656D01*
X133419994Y-72944707D01*
X133374575Y-72963517D01*
X133325415Y-72963515D01*
X133279998Y-72944703D01*
X133275434Y-72941653D01*
X133275432Y-72941652D01*
X133265117Y-72934760D01*
X133249774Y-72931708D01*
X133194467Y-72920706D01*
X133194460Y-72920705D01*
X133188401Y-72919500D01*
X133182214Y-72919500D01*
X133017787Y-72919500D01*
X133017777Y-72919500D01*
X133011600Y-72919501D01*
X133005534Y-72920707D01*
X133005529Y-72920708D01*
X132947056Y-72932338D01*
X132947052Y-72932339D01*
X132934883Y-72934760D01*
X132924565Y-72941653D01*
X132924560Y-72941656D01*
X132919994Y-72944707D01*
X132874575Y-72963517D01*
X132825415Y-72963515D01*
X132779998Y-72944703D01*
X132775434Y-72941653D01*
X132775432Y-72941652D01*
X132765117Y-72934760D01*
X132749774Y-72931708D01*
X132694467Y-72920706D01*
X132694460Y-72920705D01*
X132688401Y-72919500D01*
X132682214Y-72919500D01*
X132517787Y-72919500D01*
X132517777Y-72919500D01*
X132511600Y-72919501D01*
X132505534Y-72920707D01*
X132505529Y-72920708D01*
X132447056Y-72932338D01*
X132447052Y-72932339D01*
X132434883Y-72934760D01*
X132424565Y-72941653D01*
X132424560Y-72941656D01*
X132419994Y-72944707D01*
X132374575Y-72963517D01*
X132325415Y-72963515D01*
X132279998Y-72944703D01*
X132275434Y-72941653D01*
X132275432Y-72941652D01*
X132265117Y-72934760D01*
X132249774Y-72931708D01*
X132194467Y-72920706D01*
X132194460Y-72920705D01*
X132188401Y-72919500D01*
X132182214Y-72919500D01*
X132017787Y-72919500D01*
X132017777Y-72919500D01*
X132011600Y-72919501D01*
X132005534Y-72920707D01*
X132005529Y-72920708D01*
X131947056Y-72932338D01*
X131947052Y-72932339D01*
X131934883Y-72934760D01*
X131924565Y-72941653D01*
X131924560Y-72941656D01*
X131919994Y-72944707D01*
X131874575Y-72963517D01*
X131825415Y-72963515D01*
X131779998Y-72944703D01*
X131775434Y-72941653D01*
X131775432Y-72941652D01*
X131765117Y-72934760D01*
X131749774Y-72931708D01*
X131694468Y-72920706D01*
X131694459Y-72920705D01*
X131688401Y-72919500D01*
X131682214Y-72919500D01*
X131676499Y-72919500D01*
X131613499Y-72902619D01*
X131567380Y-72856500D01*
X131550499Y-72793500D01*
X131550499Y-72787788D01*
X131550499Y-72781600D01*
X131535240Y-72704883D01*
X131525298Y-72690004D01*
X131506482Y-72644583D01*
X131506482Y-72595417D01*
X131525298Y-72549995D01*
X131535240Y-72535117D01*
X131550500Y-72458401D01*
X131550499Y-72281600D01*
X131535240Y-72204883D01*
X131528345Y-72194564D01*
X131528344Y-72194561D01*
X131525295Y-72189998D01*
X131506482Y-72144577D01*
X131506484Y-72095415D01*
X131525296Y-72049997D01*
X131535240Y-72035117D01*
X131550500Y-71958401D01*
X131550499Y-71781600D01*
X131537686Y-71717180D01*
X131538557Y-71663987D01*
X131561303Y-71615896D01*
X131585587Y-71584250D01*
X131606117Y-71534688D01*
X131622998Y-71471688D01*
X131630000Y-71418500D01*
X131630000Y-71321499D01*
X131622998Y-71268311D01*
X131606117Y-71205311D01*
X131585587Y-71155749D01*
X131561303Y-71124102D01*
X131538557Y-71076010D01*
X131537686Y-71022819D01*
X131550500Y-70958401D01*
X131550499Y-70781600D01*
X131535240Y-70704883D01*
X131525294Y-70689998D01*
X131506482Y-70644578D01*
X131506483Y-70595412D01*
X131525299Y-70549994D01*
X131535240Y-70535117D01*
X131550500Y-70458401D01*
X131550499Y-70281600D01*
X131535240Y-70204883D01*
X131525294Y-70189998D01*
X131506482Y-70144578D01*
X131506483Y-70095412D01*
X131525299Y-70049994D01*
X131535240Y-70035117D01*
X131550500Y-69958401D01*
X131550499Y-69781600D01*
X131537686Y-69717180D01*
X131538557Y-69663987D01*
X131561303Y-69615896D01*
X131585587Y-69584250D01*
X131606117Y-69534688D01*
X131622998Y-69471688D01*
X131629893Y-69419309D01*
X131647096Y-69370390D01*
X131682547Y-69332541D01*
X131730233Y-69312178D01*
X131765117Y-69305240D01*
X131779995Y-69295298D01*
X131825417Y-69276482D01*
X131874583Y-69276482D01*
X131920004Y-69295298D01*
G37*
%TD.AperFunction*%
%TA.AperFunction,Conductor*%
G36*
X129794537Y-72420586D02*
G01*
X129794538Y-72420587D01*
X129800314Y-72464467D01*
X129801002Y-72469688D01*
X129802065Y-72473658D01*
X129802068Y-72473669D01*
X129816817Y-72528713D01*
X129816821Y-72528725D01*
X129817883Y-72532688D01*
X129824406Y-72548436D01*
X129833998Y-72596653D01*
X129824407Y-72644872D01*
X129797093Y-72685750D01*
X129794000Y-72688843D01*
X129794000Y-72416500D01*
X129794537Y-72420586D01*
G37*
%TD.AperFunction*%
%TD*%
%TA.AperFunction,Conductor*%
%TO.N,VDD*%
G36*
X127803570Y-68072167D02*
G01*
X127806099Y-68072500D01*
X128225900Y-68072499D01*
X128228425Y-68072166D01*
X128233511Y-68072000D01*
X129068471Y-68072000D01*
X129073570Y-68072167D01*
X129076099Y-68072500D01*
X129495900Y-68072499D01*
X129498425Y-68072166D01*
X129503511Y-68072000D01*
X131162660Y-68072000D01*
X131216532Y-68084097D01*
X131260059Y-68118066D01*
X131284884Y-68167384D01*
X131286239Y-68222581D01*
X131275707Y-68275529D01*
X131274500Y-68281599D01*
X131274500Y-68287784D01*
X131274500Y-68287785D01*
X131274500Y-69077211D01*
X131274500Y-69077221D01*
X131274501Y-69083400D01*
X131289760Y-69160117D01*
X131347888Y-69247112D01*
X131358203Y-69254004D01*
X131358204Y-69254005D01*
X131369387Y-69261477D01*
X131413288Y-69312368D01*
X131424202Y-69375252D01*
X131424500Y-69375252D01*
X131424500Y-69381443D01*
X131424500Y-69418500D01*
X131407619Y-69481500D01*
X131361500Y-69527619D01*
X131298500Y-69544500D01*
X130517788Y-69544500D01*
X130517777Y-69544500D01*
X130511600Y-69544501D01*
X130505534Y-69545707D01*
X130505529Y-69545708D01*
X130447054Y-69557339D01*
X130447053Y-69557339D01*
X130434883Y-69559760D01*
X130424567Y-69566652D01*
X130424564Y-69566654D01*
X130358203Y-69610995D01*
X130358200Y-69610997D01*
X130347888Y-69617888D01*
X130340997Y-69628200D01*
X130340995Y-69628203D01*
X130296653Y-69694566D01*
X130296652Y-69694568D01*
X130289760Y-69704883D01*
X130287340Y-69717048D01*
X130287339Y-69717051D01*
X130275706Y-69775532D01*
X130275705Y-69775540D01*
X130274500Y-69781599D01*
X130274500Y-69787784D01*
X130274500Y-69787785D01*
X130274500Y-69952212D01*
X130274500Y-69952221D01*
X130274501Y-69958400D01*
X130275707Y-69964466D01*
X130275708Y-69964470D01*
X130287338Y-70022943D01*
X130287339Y-70022945D01*
X130289760Y-70035117D01*
X130296654Y-70045435D01*
X130301404Y-70056902D01*
X130300113Y-70057436D01*
X130315482Y-70100401D01*
X130306494Y-70160967D01*
X130270018Y-70210145D01*
X130214666Y-70236323D01*
X130153511Y-70233317D01*
X130100993Y-70201838D01*
X129531581Y-69632426D01*
X129524158Y-69624327D01*
X129520086Y-69619475D01*
X129498321Y-69578753D01*
X129498068Y-69576827D01*
X129448065Y-69469596D01*
X129364404Y-69385935D01*
X129345179Y-69376970D01*
X129265910Y-69340006D01*
X129265909Y-69340005D01*
X129257173Y-69335932D01*
X129247615Y-69334673D01*
X129247613Y-69334673D01*
X129212403Y-69330038D01*
X129212402Y-69330037D01*
X129208316Y-69329500D01*
X128859684Y-69329500D01*
X128855598Y-69330037D01*
X128855596Y-69330038D01*
X128820386Y-69334673D01*
X128820382Y-69334674D01*
X128810827Y-69335932D01*
X128802092Y-69340004D01*
X128802089Y-69340006D01*
X128713588Y-69381275D01*
X128713585Y-69381276D01*
X128703596Y-69385935D01*
X128695800Y-69393730D01*
X128695797Y-69393733D01*
X128627733Y-69461797D01*
X128627730Y-69461800D01*
X128619935Y-69469596D01*
X128615276Y-69479585D01*
X128615275Y-69479588D01*
X128574006Y-69568089D01*
X128574004Y-69568092D01*
X128569932Y-69576827D01*
X128568674Y-69586382D01*
X128568673Y-69586386D01*
X128567370Y-69596286D01*
X128563500Y-69625684D01*
X128563500Y-70074316D01*
X128569932Y-70123173D01*
X128619935Y-70230404D01*
X128703596Y-70314065D01*
X128810827Y-70364068D01*
X128859684Y-70370500D01*
X129204194Y-70370500D01*
X129208316Y-70370500D01*
X129257173Y-70364068D01*
X129257371Y-70365577D01*
X129312662Y-70364671D01*
X129370477Y-70397632D01*
X130060417Y-71087572D01*
X130067844Y-71095676D01*
X130092240Y-71124750D01*
X130125114Y-71143730D01*
X130134369Y-71149626D01*
X130156426Y-71165071D01*
X130156428Y-71165071D01*
X130165457Y-71171394D01*
X130176107Y-71174247D01*
X130179358Y-71175763D01*
X130182712Y-71176983D01*
X130192261Y-71182497D01*
X130229631Y-71189085D01*
X130240343Y-71191460D01*
X130277016Y-71201287D01*
X130314811Y-71197979D01*
X130325794Y-71197500D01*
X130935655Y-71197500D01*
X130941152Y-71197500D01*
X130946563Y-71196545D01*
X130952055Y-71196065D01*
X130952092Y-71196498D01*
X130963526Y-71195499D01*
X131298500Y-71195499D01*
X131361500Y-71212380D01*
X131407619Y-71258499D01*
X131424500Y-71321499D01*
X131424500Y-71418500D01*
X131407619Y-71481500D01*
X131361500Y-71527619D01*
X131298500Y-71544500D01*
X130517788Y-71544500D01*
X130517777Y-71544500D01*
X130511600Y-71544501D01*
X130505534Y-71545707D01*
X130505529Y-71545708D01*
X130447054Y-71557339D01*
X130447053Y-71557339D01*
X130434883Y-71559760D01*
X130424567Y-71566652D01*
X130424564Y-71566654D01*
X130358203Y-71610995D01*
X130358200Y-71610997D01*
X130347888Y-71617888D01*
X130340997Y-71628200D01*
X130340995Y-71628203D01*
X130296653Y-71694566D01*
X130296652Y-71694568D01*
X130289760Y-71704883D01*
X130287340Y-71717048D01*
X130287339Y-71717051D01*
X130275706Y-71775532D01*
X130275705Y-71775540D01*
X130274500Y-71781599D01*
X130274500Y-71787784D01*
X130274500Y-71787785D01*
X130274500Y-71952212D01*
X130274500Y-71952221D01*
X130274501Y-71958400D01*
X130275707Y-71964466D01*
X130275708Y-71964470D01*
X130287338Y-72022943D01*
X130287339Y-72022945D01*
X130289760Y-72035117D01*
X130296652Y-72045432D01*
X130296654Y-72045436D01*
X130299703Y-72049998D01*
X130318515Y-72095415D01*
X130318517Y-72144575D01*
X130299707Y-72189994D01*
X130296655Y-72194561D01*
X130296652Y-72194568D01*
X130289760Y-72204883D01*
X130287339Y-72217052D01*
X130287339Y-72217053D01*
X130275706Y-72275532D01*
X130275705Y-72275540D01*
X130274500Y-72281599D01*
X130274500Y-72287784D01*
X130274500Y-72287785D01*
X130274501Y-72416499D01*
X130257621Y-72479499D01*
X130211501Y-72525619D01*
X130148501Y-72542500D01*
X130125500Y-72542500D01*
X130062500Y-72525619D01*
X130016381Y-72479500D01*
X129999500Y-72416500D01*
X129999500Y-71758122D01*
X129999500Y-71754000D01*
X129992498Y-71700812D01*
X129975617Y-71637812D01*
X129955087Y-71588250D01*
X129922429Y-71545690D01*
X129876310Y-71499571D01*
X129833750Y-71466913D01*
X129826121Y-71463753D01*
X129826118Y-71463751D01*
X129787993Y-71447959D01*
X129787991Y-71447958D01*
X129784188Y-71446383D01*
X129780225Y-71445321D01*
X129780213Y-71445317D01*
X129725169Y-71430568D01*
X129725158Y-71430565D01*
X129721188Y-71429502D01*
X129717100Y-71428963D01*
X129717096Y-71428963D01*
X129672087Y-71423038D01*
X129672086Y-71423037D01*
X129668000Y-71422500D01*
X129503511Y-71422500D01*
X129502990Y-71422508D01*
X129502922Y-71422509D01*
X129497356Y-71422600D01*
X129497346Y-71422600D01*
X129496807Y-71422609D01*
X129496295Y-71422625D01*
X129496283Y-71422626D01*
X129493290Y-71422723D01*
X129493258Y-71422724D01*
X129491721Y-71422775D01*
X129491191Y-71422818D01*
X129484872Y-71422999D01*
X129087114Y-71422999D01*
X129080801Y-71422818D01*
X129080297Y-71422777D01*
X129078784Y-71422727D01*
X129078759Y-71422726D01*
X129075818Y-71422630D01*
X129075780Y-71422629D01*
X129075198Y-71422610D01*
X129074626Y-71422600D01*
X129074600Y-71422600D01*
X129069036Y-71422509D01*
X129069007Y-71422508D01*
X129068471Y-71422500D01*
X128233511Y-71422500D01*
X128232990Y-71422508D01*
X128232922Y-71422509D01*
X128227356Y-71422600D01*
X128227346Y-71422600D01*
X128226807Y-71422609D01*
X128226295Y-71422625D01*
X128226283Y-71422626D01*
X128223290Y-71422723D01*
X128223258Y-71422724D01*
X128221721Y-71422775D01*
X128221191Y-71422818D01*
X128214872Y-71422999D01*
X127817114Y-71422999D01*
X127810801Y-71422818D01*
X127810297Y-71422777D01*
X127808784Y-71422727D01*
X127808759Y-71422726D01*
X127805818Y-71422630D01*
X127805780Y-71422629D01*
X127805198Y-71422610D01*
X127804626Y-71422600D01*
X127804600Y-71422600D01*
X127799036Y-71422509D01*
X127799007Y-71422508D01*
X127798471Y-71422500D01*
X127380000Y-71422500D01*
X127375914Y-71423037D01*
X127375912Y-71423038D01*
X127330903Y-71428963D01*
X127330896Y-71428964D01*
X127326812Y-71429502D01*
X127322844Y-71430565D01*
X127322830Y-71430568D01*
X127267786Y-71445317D01*
X127267769Y-71445322D01*
X127263812Y-71446383D01*
X127260013Y-71447956D01*
X127260006Y-71447959D01*
X127221881Y-71463751D01*
X127221874Y-71463754D01*
X127214250Y-71466913D01*
X127207699Y-71471939D01*
X127207697Y-71471941D01*
X127174961Y-71497060D01*
X127174951Y-71497068D01*
X127171690Y-71499571D01*
X127168777Y-71502483D01*
X127168769Y-71502491D01*
X127128491Y-71542769D01*
X127128483Y-71542777D01*
X127125571Y-71545690D01*
X127123068Y-71548951D01*
X127123060Y-71548961D01*
X127109484Y-71566654D01*
X127092913Y-71588250D01*
X127089754Y-71595874D01*
X127089751Y-71595881D01*
X127073959Y-71634006D01*
X127073956Y-71634013D01*
X127072383Y-71637812D01*
X127071322Y-71641769D01*
X127071317Y-71641786D01*
X127056568Y-71696830D01*
X127056565Y-71696844D01*
X127055502Y-71700812D01*
X127048500Y-71754000D01*
X127048500Y-73788000D01*
X127055502Y-73841188D01*
X127056565Y-73845158D01*
X127056568Y-73845169D01*
X127071317Y-73900213D01*
X127071321Y-73900225D01*
X127072383Y-73904188D01*
X127073958Y-73907991D01*
X127073959Y-73907993D01*
X127089751Y-73946118D01*
X127089753Y-73946121D01*
X127092913Y-73953750D01*
X127101139Y-73964470D01*
X127117953Y-73986383D01*
X127125571Y-73996310D01*
X127171690Y-74042429D01*
X127214250Y-74075087D01*
X127257316Y-74092926D01*
X127312466Y-74137287D01*
X127335000Y-74204382D01*
X127317806Y-74273040D01*
X127271394Y-74316801D01*
X127271640Y-74317139D01*
X127269011Y-74319049D01*
X127266310Y-74321596D01*
X127263616Y-74322968D01*
X127263607Y-74322974D01*
X127254780Y-74327472D01*
X127247771Y-74334480D01*
X127247768Y-74334483D01*
X127166483Y-74415768D01*
X127166480Y-74415771D01*
X127159472Y-74422780D01*
X127154973Y-74431608D01*
X127154971Y-74431612D01*
X127102781Y-74534040D01*
X127102778Y-74534046D01*
X127098281Y-74542874D01*
X127096730Y-74552663D01*
X127096730Y-74552665D01*
X127084174Y-74631940D01*
X127077196Y-74676000D01*
X127078747Y-74685793D01*
X127085133Y-74726116D01*
X127098281Y-74809126D01*
X127102779Y-74817955D01*
X127102781Y-74817959D01*
X127146827Y-74904403D01*
X127159472Y-74929220D01*
X127254780Y-75024528D01*
X127263612Y-75029028D01*
X127347424Y-75071733D01*
X127397654Y-75118165D01*
X127416221Y-75184000D01*
X127397654Y-75249835D01*
X127347424Y-75296267D01*
X127263612Y-75338971D01*
X127263608Y-75338973D01*
X127254780Y-75343472D01*
X127247771Y-75350480D01*
X127247768Y-75350483D01*
X127166483Y-75431768D01*
X127166480Y-75431771D01*
X127159472Y-75438780D01*
X127154973Y-75447608D01*
X127154971Y-75447612D01*
X127102781Y-75550040D01*
X127102778Y-75550046D01*
X127098281Y-75558874D01*
X127096730Y-75568663D01*
X127096730Y-75568665D01*
X127085134Y-75641883D01*
X127077196Y-75692000D01*
X127098281Y-75825126D01*
X127102779Y-75833955D01*
X127102781Y-75833959D01*
X127154971Y-75936387D01*
X127159472Y-75945220D01*
X127254780Y-76040528D01*
X127263612Y-76045028D01*
X127347868Y-76087959D01*
X127374874Y-76101719D01*
X127508000Y-76122804D01*
X127641126Y-76101719D01*
X127761220Y-76040528D01*
X127856528Y-75945220D01*
X127917719Y-75825126D01*
X127938804Y-75692000D01*
X127917719Y-75558874D01*
X127856528Y-75438780D01*
X127761220Y-75343472D01*
X127752388Y-75338972D01*
X127752387Y-75338971D01*
X127668575Y-75296267D01*
X127618345Y-75249835D01*
X127599778Y-75184001D01*
X127618345Y-75118166D01*
X127668574Y-75071734D01*
X127719956Y-75045553D01*
X127770565Y-75031992D01*
X127822314Y-75040188D01*
X127866255Y-75068724D01*
X127937596Y-75140065D01*
X128044827Y-75190068D01*
X128093684Y-75196500D01*
X128438194Y-75196500D01*
X128442316Y-75196500D01*
X128491173Y-75190068D01*
X128598404Y-75140065D01*
X128682065Y-75056404D01*
X128682424Y-75056763D01*
X128719810Y-75023971D01*
X128777990Y-75009730D01*
X128836173Y-75023963D01*
X128873576Y-75056762D01*
X128873935Y-75056404D01*
X128957596Y-75140065D01*
X129064827Y-75190068D01*
X129113684Y-75196500D01*
X129458194Y-75196500D01*
X129462316Y-75196500D01*
X129511173Y-75190068D01*
X129618404Y-75140065D01*
X129702065Y-75056404D01*
X129752068Y-74949173D01*
X129758500Y-74900316D01*
X129758500Y-74451684D01*
X129752068Y-74402827D01*
X129702065Y-74295596D01*
X129622405Y-74215936D01*
X129595091Y-74175059D01*
X129585500Y-74126841D01*
X129585500Y-73922230D01*
X129595091Y-73874012D01*
X129622405Y-73833135D01*
X129622404Y-73833135D01*
X129681224Y-73774316D01*
X129711704Y-73708948D01*
X129744656Y-73666005D01*
X129753760Y-73660750D01*
X129778162Y-73631667D01*
X129785565Y-73623587D01*
X130174750Y-73234404D01*
X130215628Y-73207091D01*
X130263846Y-73197500D01*
X130935655Y-73197500D01*
X130941152Y-73197500D01*
X130946563Y-73196545D01*
X130952055Y-73196065D01*
X130952092Y-73196498D01*
X130963526Y-73195499D01*
X131148500Y-73195499D01*
X131211500Y-73212380D01*
X131257619Y-73258499D01*
X131274500Y-73321499D01*
X131274500Y-73952211D01*
X131274500Y-73952221D01*
X131274501Y-73958400D01*
X131275707Y-73964466D01*
X131275708Y-73964470D01*
X131276709Y-73969502D01*
X131289760Y-74035117D01*
X131347888Y-74122112D01*
X131434883Y-74180240D01*
X131511599Y-74195500D01*
X131688400Y-74195499D01*
X131765117Y-74180240D01*
X131779995Y-74170298D01*
X131825417Y-74151482D01*
X131874583Y-74151482D01*
X131920004Y-74170298D01*
X131934883Y-74180240D01*
X132011599Y-74195500D01*
X132146499Y-74195499D01*
X132209499Y-74212379D01*
X132255619Y-74258499D01*
X132272500Y-74321499D01*
X132272500Y-74631940D01*
X132258264Y-74690119D01*
X132223251Y-74730045D01*
X132221684Y-74730776D01*
X132213888Y-74738571D01*
X132213885Y-74738574D01*
X132169095Y-74783365D01*
X132112611Y-74815977D01*
X132047389Y-74815977D01*
X131990905Y-74783365D01*
X131946114Y-74738574D01*
X131946113Y-74738573D01*
X131938316Y-74730776D01*
X131924383Y-74724279D01*
X131838224Y-74684102D01*
X131838223Y-74684101D01*
X131829487Y-74680028D01*
X131819929Y-74678769D01*
X131819927Y-74678769D01*
X131783988Y-74674038D01*
X131783987Y-74674037D01*
X131779901Y-74673500D01*
X131775779Y-74673500D01*
X131424224Y-74673500D01*
X131424208Y-74673500D01*
X131420100Y-74673501D01*
X131416018Y-74674038D01*
X131416007Y-74674039D01*
X131380071Y-74678769D01*
X131380065Y-74678770D01*
X131370513Y-74680028D01*
X131361780Y-74684099D01*
X131361777Y-74684101D01*
X131271676Y-74726116D01*
X131271673Y-74726117D01*
X131261684Y-74730776D01*
X131253888Y-74738571D01*
X131253885Y-74738574D01*
X131176776Y-74815684D01*
X131175213Y-74814121D01*
X131143118Y-74842266D01*
X131084942Y-74856500D01*
X131049367Y-74856500D01*
X130992164Y-74842767D01*
X130951959Y-74822281D01*
X130951955Y-74822279D01*
X130943126Y-74817781D01*
X130933334Y-74816230D01*
X130819793Y-74798247D01*
X130810000Y-74796696D01*
X130800207Y-74798247D01*
X130686665Y-74816230D01*
X130686663Y-74816230D01*
X130676874Y-74817781D01*
X130668046Y-74822278D01*
X130668040Y-74822281D01*
X130565612Y-74874471D01*
X130565608Y-74874473D01*
X130556780Y-74878972D01*
X130549771Y-74885980D01*
X130549768Y-74885983D01*
X130468483Y-74967268D01*
X130468480Y-74967271D01*
X130461472Y-74974280D01*
X130456973Y-74983108D01*
X130456971Y-74983112D01*
X130404781Y-75085540D01*
X130404778Y-75085546D01*
X130400281Y-75094374D01*
X130398730Y-75104163D01*
X130398730Y-75104165D01*
X130385770Y-75185993D01*
X130379196Y-75227500D01*
X130380747Y-75237293D01*
X130398674Y-75350483D01*
X130400281Y-75360626D01*
X130404779Y-75369455D01*
X130404782Y-75369462D01*
X130418788Y-75396950D01*
X130432348Y-75460747D01*
X130412194Y-75522776D01*
X130363725Y-75566418D01*
X130311614Y-75592969D01*
X130311605Y-75592975D01*
X130302780Y-75597472D01*
X130295771Y-75604480D01*
X130295768Y-75604483D01*
X130214483Y-75685768D01*
X130214480Y-75685771D01*
X130207472Y-75692780D01*
X130202973Y-75701608D01*
X130202971Y-75701612D01*
X130150781Y-75804040D01*
X130150778Y-75804046D01*
X130146281Y-75812874D01*
X130125196Y-75946000D01*
X130126747Y-75955793D01*
X130144170Y-76065801D01*
X130146281Y-76079126D01*
X130150779Y-76087955D01*
X130150781Y-76087959D01*
X130202971Y-76190387D01*
X130207472Y-76199220D01*
X130302780Y-76294528D01*
X130422874Y-76355719D01*
X130477124Y-76364310D01*
X130514616Y-76376492D01*
X130546509Y-76399663D01*
X130699000Y-76552155D01*
X130818423Y-76671578D01*
X130825849Y-76679682D01*
X130850240Y-76708750D01*
X130859786Y-76714261D01*
X130883103Y-76727723D01*
X130892375Y-76733630D01*
X130923457Y-76755394D01*
X130934110Y-76758248D01*
X130937361Y-76759764D01*
X130940712Y-76760983D01*
X130950261Y-76766497D01*
X130987643Y-76773088D01*
X130998351Y-76775461D01*
X131035015Y-76785286D01*
X131046173Y-76784309D01*
X131046276Y-76784301D01*
X131046829Y-76784398D01*
X131056982Y-76785287D01*
X131056904Y-76786174D01*
X131110508Y-76795624D01*
X131155426Y-76833313D01*
X131155935Y-76834404D01*
X131239596Y-76918065D01*
X131346827Y-76968068D01*
X131395684Y-76974500D01*
X131740194Y-76974500D01*
X131744316Y-76974500D01*
X131793173Y-76968068D01*
X131900404Y-76918065D01*
X131984065Y-76834404D01*
X131984423Y-76834762D01*
X132021818Y-76801967D01*
X132080000Y-76787730D01*
X132138182Y-76801967D01*
X132175576Y-76834762D01*
X132175935Y-76834404D01*
X132259596Y-76918065D01*
X132366827Y-76968068D01*
X132415684Y-76974500D01*
X132760194Y-76974500D01*
X132764316Y-76974500D01*
X132813173Y-76968068D01*
X132920404Y-76918065D01*
X133004065Y-76834404D01*
X133054068Y-76727173D01*
X133060500Y-76678316D01*
X133060500Y-76229684D01*
X133054068Y-76180827D01*
X133004065Y-76073596D01*
X132924405Y-75993936D01*
X132897091Y-75953059D01*
X132887500Y-75904841D01*
X132887500Y-75700230D01*
X132897091Y-75652012D01*
X132924405Y-75611135D01*
X132946322Y-75589218D01*
X132983224Y-75552316D01*
X133032690Y-75446235D01*
X133074163Y-75396591D01*
X133134805Y-75374067D01*
X133198632Y-75384604D01*
X133248818Y-75425423D01*
X133250970Y-75428385D01*
X133255472Y-75437220D01*
X133350780Y-75532528D01*
X133370004Y-75542323D01*
X133453045Y-75584635D01*
X133470874Y-75593719D01*
X133604000Y-75614804D01*
X133737126Y-75593719D01*
X133857220Y-75532528D01*
X133905228Y-75484520D01*
X133961712Y-75451908D01*
X134026934Y-75451908D01*
X134083418Y-75484520D01*
X134131426Y-75532528D01*
X134150650Y-75542323D01*
X134233691Y-75584635D01*
X134251520Y-75593719D01*
X134384646Y-75614804D01*
X134517772Y-75593719D01*
X134637866Y-75532528D01*
X134733174Y-75437220D01*
X134794365Y-75317126D01*
X134815450Y-75184000D01*
X134794365Y-75050874D01*
X134733174Y-74930780D01*
X134637866Y-74835472D01*
X134629034Y-74830972D01*
X134629033Y-74830971D01*
X134526606Y-74778782D01*
X134526605Y-74778781D01*
X134517772Y-74774281D01*
X134507984Y-74772730D01*
X134507973Y-74772727D01*
X134463516Y-74765686D01*
X134426024Y-74753504D01*
X134394133Y-74730333D01*
X134074394Y-74410594D01*
X134043656Y-74360435D01*
X134039040Y-74301788D01*
X134061553Y-74247438D01*
X134106286Y-74209232D01*
X134163488Y-74195499D01*
X134188400Y-74195499D01*
X134265117Y-74180240D01*
X134279995Y-74170298D01*
X134325417Y-74151482D01*
X134374583Y-74151482D01*
X134420004Y-74170298D01*
X134434883Y-74180240D01*
X134511599Y-74195500D01*
X134688400Y-74195499D01*
X134765117Y-74180240D01*
X134779995Y-74170298D01*
X134825417Y-74151482D01*
X134874583Y-74151482D01*
X134920004Y-74170298D01*
X134934883Y-74180240D01*
X135011599Y-74195500D01*
X135188400Y-74195499D01*
X135265117Y-74180240D01*
X135352112Y-74122112D01*
X135410240Y-74035117D01*
X135425500Y-73958401D01*
X135425499Y-73156600D01*
X135410240Y-73079883D01*
X135352112Y-72992888D01*
X135330610Y-72978520D01*
X135286707Y-72927623D01*
X135275802Y-72864748D01*
X135275500Y-72864748D01*
X135275500Y-72863009D01*
X135275500Y-72821500D01*
X135292381Y-72758500D01*
X135338500Y-72712381D01*
X135401500Y-72695500D01*
X135594020Y-72695499D01*
X135736476Y-72695499D01*
X135747910Y-72696498D01*
X135747948Y-72696065D01*
X135753432Y-72696544D01*
X135758848Y-72697500D01*
X137542000Y-72697500D01*
X137605000Y-72714381D01*
X137651119Y-72760500D01*
X137668000Y-72823500D01*
X137668000Y-72934471D01*
X137667832Y-72939570D01*
X137667500Y-72942099D01*
X137667500Y-72946219D01*
X137667500Y-72946220D01*
X137667500Y-73357775D01*
X137667500Y-73357790D01*
X137667501Y-73361900D01*
X137667833Y-73364425D01*
X137668000Y-73369511D01*
X137668000Y-74204471D01*
X137667832Y-74209570D01*
X137667500Y-74212099D01*
X137667500Y-74216220D01*
X137667500Y-74216221D01*
X137667500Y-74624307D01*
X137657909Y-74672525D01*
X137630595Y-74713402D01*
X136843223Y-75500774D01*
X136811388Y-75523917D01*
X136791666Y-75530341D01*
X136792097Y-75531667D01*
X136782672Y-75534729D01*
X136772874Y-75536281D01*
X136764037Y-75540783D01*
X136764036Y-75540784D01*
X136661612Y-75592971D01*
X136661608Y-75592973D01*
X136652780Y-75597472D01*
X136645771Y-75604480D01*
X136645768Y-75604483D01*
X136614095Y-75636157D01*
X136557611Y-75668769D01*
X136492389Y-75668769D01*
X136435905Y-75636157D01*
X136404231Y-75604483D01*
X136397220Y-75597472D01*
X136388388Y-75592972D01*
X136388387Y-75592971D01*
X136285959Y-75540781D01*
X136285955Y-75540779D01*
X136277126Y-75536281D01*
X136267334Y-75534730D01*
X136153793Y-75516747D01*
X136144000Y-75515196D01*
X136134207Y-75516747D01*
X136020665Y-75534730D01*
X136020663Y-75534730D01*
X136010874Y-75536281D01*
X136002046Y-75540778D01*
X136002040Y-75540781D01*
X135899612Y-75592971D01*
X135899608Y-75592973D01*
X135890780Y-75597472D01*
X135883771Y-75604480D01*
X135883768Y-75604483D01*
X135802483Y-75685768D01*
X135802480Y-75685771D01*
X135795472Y-75692780D01*
X135790973Y-75701608D01*
X135790971Y-75701612D01*
X135738781Y-75804040D01*
X135738778Y-75804046D01*
X135734281Y-75812874D01*
X135713196Y-75946000D01*
X135714747Y-75955793D01*
X135732170Y-76065801D01*
X135734281Y-76079126D01*
X135738779Y-76087955D01*
X135738781Y-76087959D01*
X135790969Y-76190383D01*
X135795472Y-76199220D01*
X135796364Y-76200112D01*
X135810332Y-76227525D01*
X135816500Y-76266463D01*
X135816500Y-76475310D01*
X135806909Y-76523528D01*
X135779595Y-76564405D01*
X134402905Y-77941095D01*
X134362028Y-77968409D01*
X134313810Y-77978000D01*
X130810000Y-77978000D01*
X130810000Y-77994590D01*
X130810000Y-79122000D01*
X130793119Y-79185000D01*
X130747000Y-79231119D01*
X130684000Y-79248000D01*
X123580500Y-79248000D01*
X123517500Y-79231119D01*
X123471381Y-79185000D01*
X123454500Y-79122000D01*
X123454500Y-73786000D01*
X123471381Y-73723000D01*
X123517500Y-73676881D01*
X123580500Y-73660000D01*
X124951410Y-73660000D01*
X124968000Y-73660000D01*
X124968000Y-72644000D01*
X125807196Y-72644000D01*
X125808747Y-72653793D01*
X125823382Y-72746198D01*
X125828281Y-72777126D01*
X125832779Y-72785955D01*
X125832781Y-72785959D01*
X125884971Y-72888387D01*
X125889472Y-72897220D01*
X125984780Y-72992528D01*
X126104874Y-73053719D01*
X126238000Y-73074804D01*
X126371126Y-73053719D01*
X126491220Y-72992528D01*
X126586528Y-72897220D01*
X126647719Y-72777126D01*
X126668804Y-72644000D01*
X126647719Y-72510874D01*
X126586528Y-72390780D01*
X126491220Y-72295472D01*
X126482388Y-72290972D01*
X126482387Y-72290971D01*
X126379959Y-72238781D01*
X126379955Y-72238779D01*
X126371126Y-72234281D01*
X126361334Y-72232730D01*
X126247793Y-72214747D01*
X126238000Y-72213196D01*
X126228207Y-72214747D01*
X126114665Y-72232730D01*
X126114663Y-72232730D01*
X126104874Y-72234281D01*
X126096046Y-72238778D01*
X126096040Y-72238781D01*
X125993612Y-72290971D01*
X125993608Y-72290973D01*
X125984780Y-72295472D01*
X125977771Y-72302480D01*
X125977768Y-72302483D01*
X125896483Y-72383768D01*
X125896480Y-72383771D01*
X125889472Y-72390780D01*
X125884973Y-72399608D01*
X125884971Y-72399612D01*
X125832781Y-72502040D01*
X125832778Y-72502046D01*
X125828281Y-72510874D01*
X125826730Y-72520663D01*
X125826730Y-72520665D01*
X125813414Y-72604741D01*
X125807196Y-72644000D01*
X124968000Y-72644000D01*
X124968000Y-68198000D01*
X124984881Y-68135000D01*
X125031000Y-68088881D01*
X125094000Y-68072000D01*
X127798471Y-68072000D01*
X127803570Y-68072167D01*
G37*
%TD.AperFunction*%
%TD*%
%TA.AperFunction,Conductor*%
%TO.N,GND*%
G36*
X127803570Y-71628167D02*
G01*
X127806099Y-71628500D01*
X128225900Y-71628499D01*
X128228425Y-71628166D01*
X128233511Y-71628000D01*
X129068471Y-71628000D01*
X129073570Y-71628167D01*
X129076099Y-71628500D01*
X129495900Y-71628499D01*
X129498425Y-71628166D01*
X129503511Y-71628000D01*
X129668000Y-71628000D01*
X129731000Y-71644881D01*
X129777119Y-71691000D01*
X129794000Y-71754000D01*
X129794000Y-72636654D01*
X129784409Y-72684872D01*
X129757097Y-72725746D01*
X129670591Y-72812253D01*
X129611313Y-72871531D01*
X129553501Y-72904490D01*
X129490559Y-72903460D01*
X129487487Y-72902028D01*
X129477932Y-72900770D01*
X129441988Y-72896038D01*
X129441987Y-72896037D01*
X129437901Y-72895500D01*
X129433779Y-72895500D01*
X129082224Y-72895500D01*
X129082208Y-72895500D01*
X129078100Y-72895501D01*
X129074018Y-72896038D01*
X129074007Y-72896039D01*
X129038071Y-72900769D01*
X129038065Y-72900770D01*
X129028513Y-72902028D01*
X129019780Y-72906099D01*
X129019777Y-72906101D01*
X128929676Y-72948116D01*
X128929673Y-72948117D01*
X128919684Y-72952776D01*
X128911888Y-72960571D01*
X128911885Y-72960574D01*
X128842574Y-73029885D01*
X128842571Y-73029888D01*
X128834776Y-73037684D01*
X128830117Y-73047673D01*
X128830116Y-73047676D01*
X128788102Y-73137775D01*
X128788100Y-73137778D01*
X128784028Y-73146513D01*
X128782770Y-73156068D01*
X128782769Y-73156072D01*
X128778038Y-73192011D01*
X128777500Y-73196099D01*
X128777500Y-73200219D01*
X128777500Y-73200220D01*
X128777500Y-73611775D01*
X128777500Y-73611790D01*
X128777501Y-73615900D01*
X128778038Y-73619982D01*
X128778039Y-73619992D01*
X128782769Y-73655928D01*
X128782770Y-73655932D01*
X128784028Y-73665487D01*
X128788100Y-73674220D01*
X128788101Y-73674222D01*
X128816326Y-73734750D01*
X128827861Y-73796241D01*
X128808398Y-73855700D01*
X128762736Y-73898468D01*
X128702131Y-73914000D01*
X127380000Y-73914000D01*
X127317000Y-73897119D01*
X127270881Y-73851000D01*
X127254000Y-73788000D01*
X127254000Y-71754000D01*
X127270881Y-71691000D01*
X127317000Y-71644881D01*
X127380000Y-71628000D01*
X127798471Y-71628000D01*
X127803570Y-71628167D01*
G37*
%TD.AperFunction*%
%TD*%
%TA.AperFunction,Conductor*%
%TO.N,Net-(D1-K)*%
G36*
X158159025Y-68266076D02*
G01*
X158171811Y-68267759D01*
X158182301Y-68269595D01*
X158183609Y-68269881D01*
X158188066Y-68271207D01*
X158217690Y-68275437D01*
X158246739Y-68277500D01*
X158248987Y-68277500D01*
X160656000Y-68277500D01*
X160719000Y-68294381D01*
X160765119Y-68340500D01*
X160782000Y-68403500D01*
X160782000Y-69216000D01*
X160765119Y-69279000D01*
X160719000Y-69325119D01*
X160656000Y-69342000D01*
X157606000Y-69342000D01*
X157543000Y-69325119D01*
X157496881Y-69279000D01*
X157480000Y-69216000D01*
X157480000Y-68403500D01*
X157496881Y-68340500D01*
X157543000Y-68294381D01*
X157606000Y-68277500D01*
X157731016Y-68277500D01*
X157733261Y-68277500D01*
X157762311Y-68275436D01*
X157791934Y-68271206D01*
X157796389Y-68269881D01*
X157797706Y-68269593D01*
X157808181Y-68267760D01*
X157820976Y-68266076D01*
X157837409Y-68265000D01*
X158142593Y-68265000D01*
X158159025Y-68266076D01*
G37*
%TD.AperFunction*%
%TD*%
%TA.AperFunction,Conductor*%
%TO.N,Net-(D1-A)*%
G36*
X160719000Y-66818881D02*
G01*
X160765119Y-66865000D01*
X160782000Y-66928000D01*
X160782000Y-67946000D01*
X160765119Y-68009000D01*
X160719000Y-68055119D01*
X160656000Y-68072000D01*
X158246739Y-68072000D01*
X158217115Y-68067770D01*
X158213173Y-68065932D01*
X158164316Y-68059500D01*
X157815684Y-68059500D01*
X157811598Y-68060037D01*
X157811596Y-68060038D01*
X157776382Y-68064674D01*
X157776381Y-68064674D01*
X157766827Y-68065932D01*
X157762884Y-68067770D01*
X157733261Y-68072000D01*
X157226000Y-68072000D01*
X157226000Y-68088590D01*
X157226000Y-68962000D01*
X157209119Y-69025000D01*
X157163000Y-69071119D01*
X157100000Y-69088000D01*
X154812000Y-69088000D01*
X154749000Y-69071119D01*
X154702881Y-69025000D01*
X154686000Y-68962000D01*
X154686000Y-66928000D01*
X154702881Y-66865000D01*
X154749000Y-66818881D01*
X154812000Y-66802000D01*
X160656000Y-66802000D01*
X160719000Y-66818881D01*
G37*
%TD.AperFunction*%
%TD*%
%TA.AperFunction,Conductor*%
%TO.N,GND*%
G36*
X150051000Y-74184881D02*
G01*
X150097119Y-74231000D01*
X150114000Y-74294000D01*
X150114000Y-77598000D01*
X150097119Y-77661000D01*
X150051000Y-77707119D01*
X149988000Y-77724000D01*
X146812000Y-77724000D01*
X146812000Y-77740590D01*
X146812000Y-78868000D01*
X146795119Y-78931000D01*
X146749000Y-78977119D01*
X146686000Y-78994000D01*
X143665770Y-78994000D01*
X143606374Y-78979122D01*
X143561005Y-78938003D01*
X143531443Y-78893761D01*
X143524552Y-78883448D01*
X143458231Y-78839133D01*
X143399748Y-78827500D01*
X143080252Y-78827500D01*
X143074184Y-78828706D01*
X143074183Y-78828707D01*
X143021769Y-78839133D01*
X143021592Y-78838247D01*
X142989993Y-78844531D01*
X142958407Y-78838247D01*
X142958231Y-78839133D01*
X142905816Y-78828707D01*
X142905815Y-78828706D01*
X142899748Y-78827500D01*
X142580252Y-78827500D01*
X142574184Y-78828706D01*
X142574183Y-78828707D01*
X142521769Y-78839133D01*
X142521592Y-78838247D01*
X142489993Y-78844531D01*
X142458407Y-78838247D01*
X142458231Y-78839133D01*
X142405816Y-78828707D01*
X142405815Y-78828706D01*
X142399748Y-78827500D01*
X142080252Y-78827500D01*
X142074184Y-78828706D01*
X142074183Y-78828707D01*
X142021769Y-78839133D01*
X142021592Y-78838247D01*
X141989993Y-78844531D01*
X141958407Y-78838247D01*
X141958231Y-78839133D01*
X141905816Y-78828707D01*
X141905815Y-78828706D01*
X141899748Y-78827500D01*
X141580252Y-78827500D01*
X141574184Y-78828706D01*
X141574183Y-78828707D01*
X141521769Y-78839133D01*
X141521592Y-78838247D01*
X141489993Y-78844531D01*
X141458407Y-78838247D01*
X141458231Y-78839133D01*
X141405816Y-78828707D01*
X141405815Y-78828706D01*
X141399748Y-78827500D01*
X141080252Y-78827500D01*
X141074184Y-78828706D01*
X141074183Y-78828707D01*
X141033939Y-78836712D01*
X141033937Y-78836712D01*
X141021769Y-78839133D01*
X141011454Y-78846024D01*
X141011452Y-78846026D01*
X140965761Y-78876556D01*
X140965758Y-78876558D01*
X140955448Y-78883448D01*
X140948558Y-78893758D01*
X140948556Y-78893761D01*
X140918995Y-78938003D01*
X140873626Y-78979122D01*
X140814230Y-78994000D01*
X139409529Y-78994000D01*
X139404429Y-78993832D01*
X139401901Y-78993500D01*
X139397779Y-78993500D01*
X138986224Y-78993500D01*
X138986208Y-78993500D01*
X138982100Y-78993501D01*
X138979574Y-78993833D01*
X138974489Y-78994000D01*
X138139529Y-78994000D01*
X138134429Y-78993832D01*
X138131901Y-78993500D01*
X138127779Y-78993500D01*
X137716224Y-78993500D01*
X137716208Y-78993500D01*
X137712100Y-78993501D01*
X137709574Y-78993833D01*
X137704489Y-78994000D01*
X137540000Y-78994000D01*
X137477000Y-78977119D01*
X137430881Y-78931000D01*
X137414000Y-78868000D01*
X137414000Y-77088000D01*
X137430881Y-77025000D01*
X137477000Y-76978881D01*
X137540000Y-76962000D01*
X138921410Y-76962000D01*
X138938000Y-76962000D01*
X138938000Y-74548000D01*
X138954881Y-74485000D01*
X139001000Y-74438881D01*
X139064000Y-74422000D01*
X139828000Y-74422000D01*
X139891000Y-74438881D01*
X139937119Y-74485000D01*
X139954000Y-74548000D01*
X139954000Y-74712471D01*
X139953832Y-74717570D01*
X139953500Y-74720099D01*
X139953500Y-74724219D01*
X139953500Y-74724220D01*
X139953500Y-75135775D01*
X139953500Y-75135790D01*
X139953501Y-75139900D01*
X139953833Y-75142425D01*
X139954000Y-75147511D01*
X139954000Y-76135825D01*
X139944409Y-76184041D01*
X139895467Y-76302198D01*
X139894390Y-76310378D01*
X139894388Y-76310386D01*
X139877149Y-76441333D01*
X139875482Y-76454000D01*
X139876560Y-76462188D01*
X139894388Y-76597613D01*
X139894389Y-76597619D01*
X139895467Y-76605802D01*
X139944409Y-76723958D01*
X139954000Y-76772175D01*
X139954000Y-76962000D01*
X139970590Y-76962000D01*
X140143825Y-76962000D01*
X140192041Y-76971590D01*
X140310198Y-77020533D01*
X140462000Y-77040518D01*
X140613802Y-77020533D01*
X140731958Y-76971590D01*
X140780175Y-76962000D01*
X140814230Y-76962000D01*
X140873626Y-76976878D01*
X140918994Y-77017996D01*
X140955448Y-77072552D01*
X141021769Y-77116867D01*
X141080252Y-77128500D01*
X141393561Y-77128500D01*
X141399748Y-77128500D01*
X141458231Y-77116867D01*
X141524552Y-77072552D01*
X141561005Y-77017996D01*
X141606374Y-76976878D01*
X141665770Y-76962000D01*
X141814230Y-76962000D01*
X141873626Y-76976878D01*
X141918994Y-77017996D01*
X141955448Y-77072552D01*
X142021769Y-77116867D01*
X142080252Y-77128500D01*
X142393561Y-77128500D01*
X142399748Y-77128500D01*
X142458231Y-77116867D01*
X142458407Y-77117753D01*
X142490000Y-77111468D01*
X142521592Y-77117753D01*
X142521769Y-77116867D01*
X142580252Y-77128500D01*
X142893561Y-77128500D01*
X142899748Y-77128500D01*
X142958231Y-77116867D01*
X142958407Y-77117753D01*
X142990000Y-77111468D01*
X143021592Y-77117753D01*
X143021769Y-77116867D01*
X143080252Y-77128500D01*
X143393561Y-77128500D01*
X143399748Y-77128500D01*
X143458231Y-77116867D01*
X143524552Y-77072552D01*
X143561005Y-77017996D01*
X143606374Y-76976878D01*
X143665770Y-76962000D01*
X145034000Y-76962000D01*
X145034000Y-76962020D01*
X145061001Y-76960249D01*
X145078099Y-76962500D01*
X145497900Y-76962499D01*
X145547487Y-76955972D01*
X145656316Y-76905224D01*
X145694135Y-76867405D01*
X145735012Y-76840091D01*
X145783230Y-76830500D01*
X145821428Y-76830500D01*
X145878630Y-76844232D01*
X145916874Y-76863719D01*
X146050000Y-76884804D01*
X146183126Y-76863719D01*
X146303220Y-76802528D01*
X146398528Y-76707220D01*
X146459719Y-76587126D01*
X146480804Y-76454000D01*
X146459719Y-76320874D01*
X146398528Y-76200780D01*
X146303220Y-76105472D01*
X146294388Y-76100972D01*
X146294387Y-76100971D01*
X146191959Y-76048781D01*
X146191955Y-76048779D01*
X146183126Y-76044281D01*
X146173334Y-76042730D01*
X146059793Y-76024747D01*
X146050000Y-76023196D01*
X146040207Y-76024747D01*
X145926665Y-76042730D01*
X145926663Y-76042730D01*
X145916874Y-76044281D01*
X145908046Y-76048779D01*
X145908037Y-76048782D01*
X145816227Y-76095562D01*
X145765619Y-76109122D01*
X145713870Y-76100926D01*
X145669930Y-76072390D01*
X145664114Y-76066574D01*
X145664114Y-76066573D01*
X145656316Y-76058776D01*
X145625231Y-76044281D01*
X145556224Y-76012102D01*
X145556223Y-76012101D01*
X145547487Y-76008028D01*
X145537929Y-76006769D01*
X145537927Y-76006769D01*
X145501988Y-76002038D01*
X145501987Y-76002037D01*
X145497901Y-76001500D01*
X145493779Y-76001500D01*
X145477784Y-76001500D01*
X145159999Y-76001500D01*
X145097000Y-75984620D01*
X145050881Y-75938501D01*
X145034000Y-75875501D01*
X145034000Y-75147529D01*
X145034167Y-75142429D01*
X145034500Y-75139901D01*
X145034499Y-74720100D01*
X145034166Y-74717574D01*
X145034000Y-74712489D01*
X145034000Y-74294000D01*
X145050881Y-74231000D01*
X145097000Y-74184881D01*
X145160000Y-74168000D01*
X149988000Y-74168000D01*
X150051000Y-74184881D01*
G37*
%TD.AperFunction*%
%TD*%
%TA.AperFunction,Conductor*%
%TO.N,GND*%
G36*
X163005000Y-75962881D02*
G01*
X163051119Y-76009000D01*
X163068000Y-76072000D01*
X163068000Y-78486000D01*
X165990000Y-78486000D01*
X166053000Y-78502881D01*
X166099119Y-78549000D01*
X166116000Y-78612000D01*
X166116000Y-79376000D01*
X166099119Y-79439000D01*
X166053000Y-79485119D01*
X165990000Y-79502000D01*
X165354000Y-79502000D01*
X165345227Y-79510772D01*
X165345224Y-79510775D01*
X164854775Y-80001224D01*
X164854772Y-80001227D01*
X164846000Y-80010000D01*
X164846000Y-80022410D01*
X164846000Y-84456000D01*
X164829119Y-84519000D01*
X164783000Y-84565119D01*
X164720000Y-84582000D01*
X159892000Y-84582000D01*
X159829000Y-84565119D01*
X159782881Y-84519000D01*
X159766000Y-84456000D01*
X159766000Y-76072000D01*
X159782881Y-76009000D01*
X159829000Y-75962881D01*
X159892000Y-75946000D01*
X162942000Y-75946000D01*
X163005000Y-75962881D01*
G37*
%TD.AperFunction*%
%TD*%
M02*
