%TF.GenerationSoftware,KiCad,Pcbnew,(7.0.0-0)*%
%TF.CreationDate,2023-08-11T18:05:37-07:00*%
%TF.ProjectId,Headlights_Driver,48656164-6c69-4676-9874-735f44726976,rev?*%
%TF.SameCoordinates,Original*%
%TF.FileFunction,Profile,NP*%
%FSLAX46Y46*%
G04 Gerber Fmt 4.6, Leading zero omitted, Abs format (unit mm)*
G04 Created by KiCad (PCBNEW (7.0.0-0)) date 2023-08-11 18:05:37*
%MOMM*%
%LPD*%
G01*
G04 APERTURE LIST*
%TA.AperFunction,Profile*%
%ADD10C,0.100000*%
%TD*%
G04 APERTURE END LIST*
D10*
X155838049Y-65668001D02*
G75*
G03*
X156736051Y-66040000I898051J898001D01*
G01*
X149333949Y-59690000D02*
X142766051Y-59690000D01*
X141868025Y-60061975D02*
X136261974Y-65668026D01*
X156736051Y-88899978D02*
G75*
G03*
X155838025Y-89271975I-51J-1269822D01*
G01*
X135363949Y-66040000D02*
X124714000Y-66040000D01*
X141868008Y-94878042D02*
G75*
G03*
X142766051Y-95250000I898092J898242D01*
G01*
X141868025Y-94878025D02*
X136261974Y-89271974D01*
X135363949Y-66040022D02*
G75*
G03*
X136261974Y-65668026I51J1269822D01*
G01*
X168656000Y-67310000D02*
G75*
G03*
X167386000Y-66040000I-1270000J0D01*
G01*
X123444000Y-87630000D02*
G75*
G03*
X124714000Y-88900000I1270000J0D01*
G01*
X124714000Y-66040000D02*
G75*
G03*
X123444000Y-67310000I0J-1270000D01*
G01*
X168656000Y-67310000D02*
X168656000Y-87630000D01*
X149333949Y-95250000D02*
X142766051Y-95250000D01*
X135363949Y-88900000D02*
X124714000Y-88900000D01*
X136261991Y-89271957D02*
G75*
G03*
X135363949Y-88900000I-898091J-898243D01*
G01*
X167386000Y-88900000D02*
G75*
G03*
X168656000Y-87630000I0J1270000D01*
G01*
X149333949Y-95250022D02*
G75*
G03*
X150231974Y-94878026I51J1269822D01*
G01*
X156736051Y-88900000D02*
X167386000Y-88900000D01*
X123444000Y-87630000D02*
X123444000Y-67310000D01*
X155838025Y-89271975D02*
X150231974Y-94878026D01*
X155838025Y-65668025D02*
X150231974Y-60061974D01*
X150231950Y-60061998D02*
G75*
G03*
X149333949Y-59690000I-898050J-898002D01*
G01*
X156736051Y-66040000D02*
X167386000Y-66040000D01*
X142766051Y-59689978D02*
G75*
G03*
X141868025Y-60061975I-51J-1269822D01*
G01*
M02*
