%TF.GenerationSoftware,KiCad,Pcbnew,(7.0.0-0)*%
%TF.CreationDate,2023-08-11T18:05:37-07:00*%
%TF.ProjectId,Headlights_Driver,48656164-6c69-4676-9874-735f44726976,rev?*%
%TF.SameCoordinates,Original*%
%TF.FileFunction,Copper,L4,Bot*%
%TF.FilePolarity,Positive*%
%FSLAX46Y46*%
G04 Gerber Fmt 4.6, Leading zero omitted, Abs format (unit mm)*
G04 Created by KiCad (PCBNEW (7.0.0-0)) date 2023-08-11 18:05:37*
%MOMM*%
%LPD*%
G01*
G04 APERTURE LIST*
G04 Aperture macros list*
%AMRoundRect*
0 Rectangle with rounded corners*
0 $1 Rounding radius*
0 $2 $3 $4 $5 $6 $7 $8 $9 X,Y pos of 4 corners*
0 Add a 4 corners polygon primitive as box body*
4,1,4,$2,$3,$4,$5,$6,$7,$8,$9,$2,$3,0*
0 Add four circle primitives for the rounded corners*
1,1,$1+$1,$2,$3*
1,1,$1+$1,$4,$5*
1,1,$1+$1,$6,$7*
1,1,$1+$1,$8,$9*
0 Add four rect primitives between the rounded corners*
20,1,$1+$1,$2,$3,$4,$5,0*
20,1,$1+$1,$4,$5,$6,$7,0*
20,1,$1+$1,$6,$7,$8,$9,0*
20,1,$1+$1,$8,$9,$2,$3,0*%
G04 Aperture macros list end*
%TA.AperFunction,ComponentPad*%
%ADD10C,0.600000*%
%TD*%
%TA.AperFunction,SMDPad,CuDef*%
%ADD11R,2.400000X1.650000*%
%TD*%
%TA.AperFunction,ComponentPad*%
%ADD12C,0.800000*%
%TD*%
%TA.AperFunction,ComponentPad*%
%ADD13C,6.400000*%
%TD*%
%TA.AperFunction,ComponentPad*%
%ADD14RoundRect,0.250000X-0.675000X-0.675000X0.675000X-0.675000X0.675000X0.675000X-0.675000X0.675000X0*%
%TD*%
%TA.AperFunction,ComponentPad*%
%ADD15C,1.850000*%
%TD*%
%TA.AperFunction,SMDPad,CuDef*%
%ADD16RoundRect,1.000000X2.000000X-1.000000X2.000000X1.000000X-2.000000X1.000000X-2.000000X-1.000000X0*%
%TD*%
%TA.AperFunction,SMDPad,CuDef*%
%ADD17RoundRect,0.135000X0.135000X0.185000X-0.135000X0.185000X-0.135000X-0.185000X0.135000X-0.185000X0*%
%TD*%
%TA.AperFunction,SMDPad,CuDef*%
%ADD18RoundRect,0.250000X2.450000X-0.650000X2.450000X0.650000X-2.450000X0.650000X-2.450000X-0.650000X0*%
%TD*%
%TA.AperFunction,SMDPad,CuDef*%
%ADD19RoundRect,0.250000X-2.450000X0.650000X-2.450000X-0.650000X2.450000X-0.650000X2.450000X0.650000X0*%
%TD*%
%TA.AperFunction,SMDPad,CuDef*%
%ADD20RoundRect,0.250000X-0.650000X0.325000X-0.650000X-0.325000X0.650000X-0.325000X0.650000X0.325000X0*%
%TD*%
%TA.AperFunction,ComponentPad*%
%ADD21RoundRect,0.250000X0.675000X-0.675000X0.675000X0.675000X-0.675000X0.675000X-0.675000X-0.675000X0*%
%TD*%
%TA.AperFunction,SMDPad,CuDef*%
%ADD22RoundRect,0.218750X0.218750X0.256250X-0.218750X0.256250X-0.218750X-0.256250X0.218750X-0.256250X0*%
%TD*%
%TA.AperFunction,SMDPad,CuDef*%
%ADD23R,8.200000X2.600000*%
%TD*%
%TA.AperFunction,ViaPad*%
%ADD24C,0.450000*%
%TD*%
%TA.AperFunction,ViaPad*%
%ADD25C,0.762000*%
%TD*%
%TA.AperFunction,Conductor*%
%ADD26C,0.254000*%
%TD*%
G04 APERTURE END LIST*
D10*
%TO.P,U3,11,EP*%
%TO.N,GND*%
X141380000Y-78458000D03*
X143100000Y-78458000D03*
X142240000Y-77978000D03*
D11*
X142239999Y-77977999D03*
D10*
X141380000Y-77498000D03*
X143100000Y-77498000D03*
%TD*%
D12*
%TO.P,H2,1,1*%
%TO.N,GND*%
X143650000Y-91440000D03*
X144352944Y-89742944D03*
X144352944Y-93137056D03*
X146050000Y-89040000D03*
D13*
X146050000Y-91440000D03*
D12*
X146050000Y-93840000D03*
X147747056Y-89742944D03*
X147747056Y-93137056D03*
X148450000Y-91440000D03*
%TD*%
%TO.P,H1,1,1*%
%TO.N,GND*%
X143650000Y-63500000D03*
X144352944Y-61802944D03*
X144352944Y-65197056D03*
X146050000Y-61100000D03*
D13*
X146050000Y-63500000D03*
D12*
X146050000Y-65900000D03*
X147747056Y-61802944D03*
X147747056Y-65197056D03*
X148450000Y-63500000D03*
%TD*%
D14*
%TO.P,J7,1,Pin_1*%
%TO.N,GND*%
X132266000Y-87376000D03*
D15*
%TO.P,J7,2,Pin_2*%
%TO.N,Vdrive*%
X136466000Y-87376000D03*
%TD*%
D16*
%TO.P,J9,1,Pin_1*%
%TO.N,/LED-*%
X165354000Y-68326000D03*
%TD*%
%TO.P,J8,1,Pin_1*%
%TO.N,/LED+*%
X165354000Y-86614000D03*
%TD*%
D17*
%TO.P,R14,1*%
%TO.N,/STATUS*%
X126240000Y-73406000D03*
%TO.P,R14,2*%
%TO.N,Net-(D3-A)*%
X125220000Y-73406000D03*
%TD*%
D18*
%TO.P,C22,1*%
%TO.N,/LED+*%
X145288000Y-83322000D03*
%TO.P,C22,2*%
%TO.N,GND*%
X145288000Y-78222000D03*
%TD*%
D16*
%TO.P,J1,1,Pin_1*%
%TO.N,VS*%
X126746000Y-68326000D03*
%TD*%
D19*
%TO.P,C19,1*%
%TO.N,VS*%
X132588000Y-72634000D03*
%TO.P,C19,2*%
%TO.N,GND*%
X132588000Y-77734000D03*
%TD*%
D20*
%TO.P,C23,1*%
%TO.N,VS*%
X141478000Y-72185000D03*
%TO.P,C23,2*%
%TO.N,GND*%
X141478000Y-75135000D03*
%TD*%
D21*
%TO.P,J4,1,Pin_1*%
%TO.N,GND*%
X124968000Y-82110000D03*
D15*
%TO.P,J4,2,Pin_2*%
%TO.N,VDD*%
X124968000Y-77910000D03*
%TD*%
D20*
%TO.P,C21,1*%
%TO.N,VS*%
X144272000Y-72185000D03*
%TO.P,C21,2*%
%TO.N,GND*%
X144272000Y-75135000D03*
%TD*%
D22*
%TO.P,D3,1,K*%
%TO.N,GND*%
X126009500Y-75184000D03*
%TO.P,D3,2,A*%
%TO.N,Net-(D3-A)*%
X124434500Y-75184000D03*
%TD*%
D20*
%TO.P,C20,1*%
%TO.N,VS*%
X147066000Y-72185000D03*
%TO.P,C20,2*%
%TO.N,GND*%
X147066000Y-75135000D03*
%TD*%
%TO.P,C25,1*%
%TO.N,VS*%
X138684000Y-72185000D03*
%TO.P,C25,2*%
%TO.N,GND*%
X138684000Y-75135000D03*
%TD*%
D18*
%TO.P,C24,1*%
%TO.N,/LED+*%
X138938000Y-84074000D03*
%TO.P,C24,2*%
%TO.N,GND*%
X138938000Y-78974000D03*
%TD*%
D23*
%TO.P,L1,1,1*%
%TO.N,Net-(Q2-D)*%
X153415999Y-77971999D03*
%TO.P,L1,2,2*%
%TO.N,/LED+*%
X153415999Y-83571999D03*
%TD*%
D16*
%TO.P,J2,1,Pin_1*%
%TO.N,GND*%
X126746000Y-86614000D03*
%TD*%
D24*
%TO.N,GND*%
X165608000Y-83058000D03*
D25*
X162560000Y-81026000D03*
D24*
X130810000Y-75227500D03*
D25*
X134620000Y-69850000D03*
X161798000Y-80264000D03*
X124206000Y-72898000D03*
D24*
X133096000Y-67056000D03*
X135128000Y-67056000D03*
X143764000Y-67056000D03*
D25*
X147574000Y-77216000D03*
D24*
X134112000Y-67056000D03*
D25*
X124206000Y-71882000D03*
X161036000Y-81026000D03*
X162560000Y-82550000D03*
D24*
X127508000Y-72898000D03*
D25*
X161798000Y-81788000D03*
D24*
X166370000Y-83058000D03*
X141732000Y-67056000D03*
D25*
X147574000Y-75946000D03*
X163322000Y-81788000D03*
D24*
X127508000Y-73660000D03*
D25*
X133350000Y-69850000D03*
X147574000Y-74676000D03*
D24*
X139192000Y-73914000D03*
X161290000Y-73660000D03*
X127508000Y-75692000D03*
D25*
X164084000Y-82550000D03*
X163322000Y-83312000D03*
X132080000Y-69850000D03*
%TO.N,VDD*%
X140970000Y-88392000D03*
X139192000Y-88392000D03*
X140970000Y-86868000D03*
D24*
%TO.N,/SWDIO*%
X138938000Y-66040000D03*
X136144000Y-75946000D03*
%TO.N,/SWCLK*%
X136906000Y-75946000D03*
X138176000Y-67056000D03*
%TO.N,/DRVR_EN*%
X146050000Y-76454000D03*
X139700000Y-67056000D03*
D25*
%TO.N,Net-(Q2-D)*%
X156718000Y-74168000D03*
X153416000Y-78232000D03*
X151892000Y-76708000D03*
X151892000Y-75184000D03*
X156718000Y-72644000D03*
X153416000Y-75184000D03*
X156718000Y-77216000D03*
X156718000Y-71120000D03*
X156718000Y-75692000D03*
X156718000Y-78740000D03*
X153416000Y-76708000D03*
X151892000Y-78232000D03*
D24*
%TO.N,/STATUS*%
X126238000Y-72644000D03*
X133604000Y-75184000D03*
D25*
%TO.N,/LED-*%
X163322000Y-67056000D03*
X167386000Y-67056000D03*
X165354000Y-68326000D03*
X163322000Y-69596000D03*
X167386000Y-69596000D03*
%TO.N,VS*%
X152908000Y-70612000D03*
X152908000Y-69088000D03*
X151384000Y-70612000D03*
X151384000Y-69088000D03*
X151384000Y-72136000D03*
X152908000Y-72136000D03*
%TO.N,Net-(D1-K)*%
X159004000Y-68834000D03*
X143764000Y-80772000D03*
D24*
%TO.N,/LOW*%
X140970000Y-73914000D03*
X134384646Y-75184000D03*
D25*
%TO.N,Net-(D2-K)*%
X140462000Y-76454000D03*
X146812000Y-80010000D03*
D24*
%TO.N,Net-(R3-Pad2)*%
X165608000Y-80772000D03*
X127508000Y-74676000D03*
%TO.N,Net-(R15-Pad1)*%
X130556000Y-75946000D03*
X161290000Y-75184000D03*
%TD*%
D26*
%TO.N,GND*%
X126009500Y-75184000D02*
X127000000Y-75184000D01*
X127000000Y-75184000D02*
X127508000Y-75692000D01*
%TO.N,/STATUS*%
X126240000Y-73406000D02*
X126240000Y-72646000D01*
X126240000Y-72646000D02*
X126238000Y-72644000D01*
%TO.N,Net-(D3-A)*%
X124434500Y-74447500D02*
X124434500Y-75184000D01*
X125220000Y-73406000D02*
X125220000Y-73662000D01*
X125220000Y-73662000D02*
X124434500Y-74447500D01*
%TD*%
%TA.AperFunction,Conductor*%
%TO.N,Net-(Q2-D)*%
G36*
X157417000Y-70374881D02*
G01*
X157463119Y-70421000D01*
X157480000Y-70484000D01*
X157480000Y-79376000D01*
X157463119Y-79439000D01*
X157417000Y-79485119D01*
X157354000Y-79502000D01*
X151256000Y-79502000D01*
X151193000Y-79485119D01*
X151146881Y-79439000D01*
X151130000Y-79376000D01*
X151130000Y-74548000D01*
X151146881Y-74485000D01*
X151193000Y-74438881D01*
X151256000Y-74422000D01*
X154669410Y-74422000D01*
X154686000Y-74422000D01*
X154686000Y-70484000D01*
X154702881Y-70421000D01*
X154749000Y-70374881D01*
X154812000Y-70358000D01*
X157354000Y-70358000D01*
X157417000Y-70374881D01*
G37*
%TD.AperFunction*%
%TD*%
%TA.AperFunction,Conductor*%
%TO.N,/LED+*%
G36*
X142236028Y-81543591D02*
G01*
X142276905Y-81570905D01*
X143002000Y-82296000D01*
X143014410Y-82296000D01*
X144513590Y-82296000D01*
X144526000Y-82296000D01*
X145251094Y-81570905D01*
X145291972Y-81543591D01*
X145340190Y-81534000D01*
X159205810Y-81534000D01*
X159254028Y-81543591D01*
X159294905Y-81570905D01*
X162052000Y-84328000D01*
X168519500Y-84328000D01*
X168582500Y-84344881D01*
X168628619Y-84391000D01*
X168645500Y-84454000D01*
X168645500Y-87625044D01*
X168645112Y-87634930D01*
X168630771Y-87817143D01*
X168627678Y-87836671D01*
X168586170Y-88009566D01*
X168580060Y-88028370D01*
X168512018Y-88192637D01*
X168503042Y-88210254D01*
X168410137Y-88361861D01*
X168398515Y-88377857D01*
X168283040Y-88513060D01*
X168269060Y-88527040D01*
X168133857Y-88642515D01*
X168117861Y-88654137D01*
X167966254Y-88747042D01*
X167948637Y-88756018D01*
X167784370Y-88824060D01*
X167765566Y-88830170D01*
X167592671Y-88871678D01*
X167573143Y-88874771D01*
X167390930Y-88889112D01*
X167381044Y-88889500D01*
X156736137Y-88889500D01*
X156736051Y-88889488D01*
X156736051Y-88889478D01*
X156735977Y-88889477D01*
X156735970Y-88889477D01*
X156640225Y-88889475D01*
X156640223Y-88889475D01*
X156635272Y-88889475D01*
X156630390Y-88890248D01*
X156630379Y-88890249D01*
X156578607Y-88898449D01*
X156558898Y-88900000D01*
X152452190Y-88900000D01*
X152403972Y-88890409D01*
X152363095Y-88863095D01*
X148090775Y-84590775D01*
X148082000Y-84582000D01*
X148069590Y-84582000D01*
X142760410Y-84582000D01*
X142748000Y-84582000D01*
X142739227Y-84590772D01*
X142739224Y-84590775D01*
X142022905Y-85307095D01*
X141982028Y-85334409D01*
X141933810Y-85344000D01*
X136016000Y-85344000D01*
X135953000Y-85327119D01*
X135906881Y-85281000D01*
X135890000Y-85218000D01*
X135890000Y-81660000D01*
X135906881Y-81597000D01*
X135953000Y-81550881D01*
X136016000Y-81534000D01*
X142187810Y-81534000D01*
X142236028Y-81543591D01*
G37*
%TD.AperFunction*%
%TD*%
%TA.AperFunction,Conductor*%
%TO.N,GND*%
G36*
X148019000Y-74438881D02*
G01*
X148065119Y-74485000D01*
X148082000Y-74548000D01*
X148082000Y-79884000D01*
X148065119Y-79947000D01*
X148019000Y-79993119D01*
X147956000Y-80010000D01*
X147509017Y-80010000D01*
X147450837Y-79995763D01*
X147405804Y-79956271D01*
X147384095Y-79900446D01*
X147381930Y-79884000D01*
X147378533Y-79858198D01*
X147319939Y-79716741D01*
X147226731Y-79595269D01*
X147220185Y-79590246D01*
X147111810Y-79507087D01*
X147111806Y-79507084D01*
X147105259Y-79502061D01*
X147088119Y-79494961D01*
X146971428Y-79446625D01*
X146971422Y-79446623D01*
X146963802Y-79443467D01*
X146955618Y-79442389D01*
X146955616Y-79442389D01*
X146820188Y-79424560D01*
X146812000Y-79423482D01*
X146803812Y-79424560D01*
X146668383Y-79442389D01*
X146668379Y-79442389D01*
X146660198Y-79443467D01*
X146652579Y-79446622D01*
X146652571Y-79446625D01*
X146526369Y-79498901D01*
X146526366Y-79498902D01*
X146518741Y-79502061D01*
X146512196Y-79507082D01*
X146512189Y-79507087D01*
X146403814Y-79590246D01*
X146403810Y-79590249D01*
X146397269Y-79595269D01*
X146392249Y-79601810D01*
X146392246Y-79601814D01*
X146309087Y-79710189D01*
X146309082Y-79710196D01*
X146304061Y-79716741D01*
X146300902Y-79724366D01*
X146300901Y-79724369D01*
X146248625Y-79850571D01*
X146248622Y-79850579D01*
X146245467Y-79858198D01*
X146244389Y-79866379D01*
X146244389Y-79866383D01*
X146239905Y-79900446D01*
X146218196Y-79956271D01*
X146173163Y-79995763D01*
X146114983Y-80010000D01*
X145340190Y-80010000D01*
X145291972Y-80000409D01*
X145251095Y-79973095D01*
X144534775Y-79256775D01*
X144526000Y-79248000D01*
X144513590Y-79248000D01*
X143014410Y-79248000D01*
X143002000Y-79248000D01*
X142993227Y-79256772D01*
X142993224Y-79256775D01*
X142276905Y-79973095D01*
X142236028Y-80000409D01*
X142187810Y-80010000D01*
X134874000Y-80010000D01*
X134874000Y-80026590D01*
X134874000Y-85726000D01*
X134857119Y-85789000D01*
X134811000Y-85835119D01*
X134748000Y-85852000D01*
X131064000Y-85852000D01*
X131055227Y-85860772D01*
X131055224Y-85860775D01*
X130056775Y-86859224D01*
X130056772Y-86859227D01*
X130048000Y-86868000D01*
X130048000Y-86880410D01*
X130048000Y-88763500D01*
X130031119Y-88826500D01*
X129985000Y-88872619D01*
X129922000Y-88889500D01*
X124718956Y-88889500D01*
X124709070Y-88889112D01*
X124526856Y-88874771D01*
X124507328Y-88871678D01*
X124334433Y-88830170D01*
X124315629Y-88824060D01*
X124151362Y-88756018D01*
X124133745Y-88747042D01*
X123982138Y-88654137D01*
X123966142Y-88642515D01*
X123830939Y-88527040D01*
X123816959Y-88513060D01*
X123701484Y-88377857D01*
X123689862Y-88361861D01*
X123596957Y-88210254D01*
X123587981Y-88192637D01*
X123519937Y-88028365D01*
X123513829Y-88009566D01*
X123472319Y-87836661D01*
X123469229Y-87817154D01*
X123454887Y-87634929D01*
X123454500Y-87625044D01*
X123454500Y-84454000D01*
X123471381Y-84391000D01*
X123517500Y-84344881D01*
X123580500Y-84328000D01*
X125463590Y-84328000D01*
X125476000Y-84328000D01*
X126492000Y-83312000D01*
X126492000Y-76580000D01*
X126508881Y-76517000D01*
X126555000Y-76470881D01*
X126618000Y-76454000D01*
X137397410Y-76454000D01*
X137414000Y-76454000D01*
X139875482Y-76454000D01*
X139895467Y-76605802D01*
X139898623Y-76613422D01*
X139898625Y-76613428D01*
X139933817Y-76698387D01*
X139954061Y-76747259D01*
X139959084Y-76753806D01*
X139959087Y-76753810D01*
X139996470Y-76802528D01*
X140047269Y-76868731D01*
X140053814Y-76873753D01*
X140162189Y-76956912D01*
X140162191Y-76956913D01*
X140168741Y-76961939D01*
X140268780Y-77003377D01*
X140302571Y-77017374D01*
X140302572Y-77017374D01*
X140310198Y-77020533D01*
X140462000Y-77040518D01*
X140613802Y-77020533D01*
X140755259Y-76961939D01*
X140876731Y-76868731D01*
X140969939Y-76747259D01*
X141028533Y-76605802D01*
X141048518Y-76454000D01*
X145619196Y-76454000D01*
X145640281Y-76587126D01*
X145644779Y-76595955D01*
X145644781Y-76595959D01*
X145696971Y-76698387D01*
X145701472Y-76707220D01*
X145796780Y-76802528D01*
X145916874Y-76863719D01*
X146050000Y-76884804D01*
X146183126Y-76863719D01*
X146303220Y-76802528D01*
X146398528Y-76707220D01*
X146459719Y-76587126D01*
X146480804Y-76454000D01*
X146459719Y-76320874D01*
X146398528Y-76200780D01*
X146303220Y-76105472D01*
X146294388Y-76100972D01*
X146294387Y-76100971D01*
X146191959Y-76048781D01*
X146191955Y-76048779D01*
X146183126Y-76044281D01*
X146173334Y-76042730D01*
X146059793Y-76024747D01*
X146050000Y-76023196D01*
X146040207Y-76024747D01*
X145926665Y-76042730D01*
X145926663Y-76042730D01*
X145916874Y-76044281D01*
X145908046Y-76048778D01*
X145908040Y-76048781D01*
X145805612Y-76100971D01*
X145805608Y-76100973D01*
X145796780Y-76105472D01*
X145789771Y-76112480D01*
X145789768Y-76112483D01*
X145708483Y-76193768D01*
X145708480Y-76193771D01*
X145701472Y-76200780D01*
X145696973Y-76209608D01*
X145696971Y-76209612D01*
X145644781Y-76312040D01*
X145644778Y-76312046D01*
X145640281Y-76320874D01*
X145638730Y-76330663D01*
X145638730Y-76330665D01*
X145620747Y-76444207D01*
X145619196Y-76454000D01*
X141048518Y-76454000D01*
X141028533Y-76302198D01*
X140969939Y-76160741D01*
X140950563Y-76135490D01*
X140881753Y-76045814D01*
X140876731Y-76039269D01*
X140870185Y-76034246D01*
X140761810Y-75951087D01*
X140761806Y-75951084D01*
X140755259Y-75946061D01*
X140738119Y-75938961D01*
X140621428Y-75890625D01*
X140621422Y-75890623D01*
X140613802Y-75887467D01*
X140605618Y-75886389D01*
X140605616Y-75886389D01*
X140470188Y-75868560D01*
X140462000Y-75867482D01*
X140453812Y-75868560D01*
X140318383Y-75886389D01*
X140318379Y-75886389D01*
X140310198Y-75887467D01*
X140302579Y-75890622D01*
X140302571Y-75890625D01*
X140176369Y-75942901D01*
X140176366Y-75942902D01*
X140168741Y-75946061D01*
X140162196Y-75951082D01*
X140162189Y-75951087D01*
X140053814Y-76034246D01*
X140053810Y-76034249D01*
X140047269Y-76039269D01*
X140042249Y-76045810D01*
X140042246Y-76045814D01*
X139959087Y-76154189D01*
X139959082Y-76154196D01*
X139954061Y-76160741D01*
X139950902Y-76168366D01*
X139950901Y-76168369D01*
X139898625Y-76294571D01*
X139898622Y-76294579D01*
X139895467Y-76302198D01*
X139875482Y-76454000D01*
X137414000Y-76454000D01*
X137414000Y-74548000D01*
X137430881Y-74485000D01*
X137477000Y-74438881D01*
X137540000Y-74422000D01*
X147956000Y-74422000D01*
X148019000Y-74438881D01*
G37*
%TD.AperFunction*%
%TD*%
%TA.AperFunction,Conductor*%
%TO.N,VS*%
G36*
X129985000Y-66067381D02*
G01*
X130031119Y-66113500D01*
X130048000Y-66176500D01*
X130048000Y-69596000D01*
X131572000Y-71120000D01*
X131584410Y-71120000D01*
X135115590Y-71120000D01*
X135128000Y-71120000D01*
X137885095Y-68362905D01*
X137925972Y-68335591D01*
X137974190Y-68326000D01*
X153544000Y-68326000D01*
X153607000Y-68342881D01*
X153653119Y-68389000D01*
X153670000Y-68452000D01*
X153670000Y-72772000D01*
X153653119Y-72835000D01*
X153607000Y-72881119D01*
X153544000Y-72898000D01*
X137414000Y-72898000D01*
X137405227Y-72906772D01*
X137405224Y-72906775D01*
X136434905Y-73877095D01*
X136394028Y-73904409D01*
X136345810Y-73914000D01*
X129666000Y-73914000D01*
X129603000Y-73897119D01*
X129556881Y-73851000D01*
X129540000Y-73788000D01*
X129540000Y-73164410D01*
X129540000Y-73152000D01*
X127000000Y-70612000D01*
X126987590Y-70612000D01*
X123580500Y-70612000D01*
X123517500Y-70595119D01*
X123471381Y-70549000D01*
X123454500Y-70486000D01*
X123454500Y-67314956D01*
X123454888Y-67305071D01*
X123455854Y-67292793D01*
X123469229Y-67122845D01*
X123472318Y-67103340D01*
X123513831Y-66930424D01*
X123519935Y-66911638D01*
X123587983Y-66747356D01*
X123596953Y-66729750D01*
X123689864Y-66578134D01*
X123701481Y-66562145D01*
X123816960Y-66426937D01*
X123830939Y-66412959D01*
X123924220Y-66333289D01*
X123966145Y-66297481D01*
X123982134Y-66285864D01*
X124133750Y-66192953D01*
X124151356Y-66183983D01*
X124315638Y-66115935D01*
X124334424Y-66109831D01*
X124507340Y-66068318D01*
X124526845Y-66065229D01*
X124696793Y-66051854D01*
X124709071Y-66050888D01*
X124718956Y-66050500D01*
X129922000Y-66050500D01*
X129985000Y-66067381D01*
G37*
%TD.AperFunction*%
%TD*%
M02*
