%TF.GenerationSoftware,KiCad,Pcbnew,(7.0.0-0)*%
%TF.CreationDate,2023-08-11T18:05:37-07:00*%
%TF.ProjectId,Headlights_Driver,48656164-6c69-4676-9874-735f44726976,rev?*%
%TF.SameCoordinates,Original*%
%TF.FileFunction,Legend,Bot*%
%TF.FilePolarity,Positive*%
%FSLAX46Y46*%
G04 Gerber Fmt 4.6, Leading zero omitted, Abs format (unit mm)*
G04 Created by KiCad (PCBNEW (7.0.0-0)) date 2023-08-11 18:05:37*
%MOMM*%
%LPD*%
G01*
G04 APERTURE LIST*
%ADD10C,0.150000*%
%ADD11C,0.120000*%
G04 APERTURE END LIST*
D10*
X130302000Y-66294000D02*
X130302000Y-70866000D01*
X161798000Y-70866000D02*
X168402000Y-70866000D01*
X126746000Y-84074000D02*
X126746000Y-80010000D01*
X134366000Y-85598000D02*
X134366000Y-88646000D01*
X161798000Y-66294000D02*
X161798000Y-70866000D01*
X134366000Y-85598000D02*
X130302000Y-85598000D01*
X135128000Y-85598000D02*
X135128000Y-81280000D01*
X130302000Y-84074000D02*
X126746000Y-84074000D01*
X130302000Y-70866000D02*
X123698000Y-70866000D01*
X130302000Y-85598000D02*
X130302000Y-84074000D01*
X126746000Y-80010000D02*
X123698000Y-80010000D01*
X126746000Y-76454000D02*
X126746000Y-79248000D01*
X137922000Y-85598000D02*
X135128000Y-85598000D01*
X161798000Y-84074000D02*
X161798000Y-88646000D01*
X168402000Y-84074000D02*
X161798000Y-84074000D01*
X128217619Y-79311332D02*
X127217619Y-78977999D01*
X127217619Y-78977999D02*
X128217619Y-78644666D01*
X127217619Y-78311332D02*
X128217619Y-78311332D01*
X128217619Y-78311332D02*
X128217619Y-78073237D01*
X128217619Y-78073237D02*
X128170000Y-77930380D01*
X128170000Y-77930380D02*
X128074761Y-77835142D01*
X128074761Y-77835142D02*
X127979523Y-77787523D01*
X127979523Y-77787523D02*
X127789047Y-77739904D01*
X127789047Y-77739904D02*
X127646190Y-77739904D01*
X127646190Y-77739904D02*
X127455714Y-77787523D01*
X127455714Y-77787523D02*
X127360476Y-77835142D01*
X127360476Y-77835142D02*
X127265238Y-77930380D01*
X127265238Y-77930380D02*
X127217619Y-78073237D01*
X127217619Y-78073237D02*
X127217619Y-78311332D01*
X127217619Y-77311332D02*
X128217619Y-77311332D01*
X128217619Y-77311332D02*
X128217619Y-77073237D01*
X128217619Y-77073237D02*
X128170000Y-76930380D01*
X128170000Y-76930380D02*
X128074761Y-76835142D01*
X128074761Y-76835142D02*
X127979523Y-76787523D01*
X127979523Y-76787523D02*
X127789047Y-76739904D01*
X127789047Y-76739904D02*
X127646190Y-76739904D01*
X127646190Y-76739904D02*
X127455714Y-76787523D01*
X127455714Y-76787523D02*
X127360476Y-76835142D01*
X127360476Y-76835142D02*
X127265238Y-76930380D01*
X127265238Y-76930380D02*
X127217619Y-77073237D01*
X127217619Y-77073237D02*
X127217619Y-77311332D01*
X161326380Y-85352095D02*
X161326380Y-84875905D01*
X161326380Y-84875905D02*
X160326380Y-84875905D01*
X160802571Y-85685429D02*
X160802571Y-86018762D01*
X161326380Y-86161619D02*
X161326380Y-85685429D01*
X161326380Y-85685429D02*
X160326380Y-85685429D01*
X160326380Y-85685429D02*
X160326380Y-86161619D01*
X161326380Y-86590191D02*
X160326380Y-86590191D01*
X160326380Y-86590191D02*
X160326380Y-86828286D01*
X160326380Y-86828286D02*
X160374000Y-86971143D01*
X160374000Y-86971143D02*
X160469238Y-87066381D01*
X160469238Y-87066381D02*
X160564476Y-87114000D01*
X160564476Y-87114000D02*
X160754952Y-87161619D01*
X160754952Y-87161619D02*
X160897809Y-87161619D01*
X160897809Y-87161619D02*
X161088285Y-87114000D01*
X161088285Y-87114000D02*
X161183523Y-87066381D01*
X161183523Y-87066381D02*
X161278761Y-86971143D01*
X161278761Y-86971143D02*
X161326380Y-86828286D01*
X161326380Y-86828286D02*
X161326380Y-86590191D01*
X160945428Y-87590191D02*
X160945428Y-88352096D01*
X161326380Y-87971143D02*
X160564476Y-87971143D01*
X161326380Y-67064095D02*
X161326380Y-66587905D01*
X161326380Y-66587905D02*
X160326380Y-66587905D01*
X160802571Y-67397429D02*
X160802571Y-67730762D01*
X161326380Y-67873619D02*
X161326380Y-67397429D01*
X161326380Y-67397429D02*
X160326380Y-67397429D01*
X160326380Y-67397429D02*
X160326380Y-67873619D01*
X161326380Y-68302191D02*
X160326380Y-68302191D01*
X160326380Y-68302191D02*
X160326380Y-68540286D01*
X160326380Y-68540286D02*
X160374000Y-68683143D01*
X160374000Y-68683143D02*
X160469238Y-68778381D01*
X160469238Y-68778381D02*
X160564476Y-68826000D01*
X160564476Y-68826000D02*
X160754952Y-68873619D01*
X160754952Y-68873619D02*
X160897809Y-68873619D01*
X160897809Y-68873619D02*
X161088285Y-68826000D01*
X161088285Y-68826000D02*
X161183523Y-68778381D01*
X161183523Y-68778381D02*
X161278761Y-68683143D01*
X161278761Y-68683143D02*
X161326380Y-68540286D01*
X161326380Y-68540286D02*
X161326380Y-68302191D01*
X160945428Y-69302191D02*
X160945428Y-70064096D01*
X153592857Y-86219380D02*
X153592857Y-85219380D01*
X153592857Y-85695571D02*
X153021429Y-85695571D01*
X153021429Y-86219380D02*
X153021429Y-85219380D01*
X152164286Y-86171761D02*
X152259524Y-86219380D01*
X152259524Y-86219380D02*
X152450000Y-86219380D01*
X152450000Y-86219380D02*
X152545238Y-86171761D01*
X152545238Y-86171761D02*
X152592857Y-86076523D01*
X152592857Y-86076523D02*
X152592857Y-85695571D01*
X152592857Y-85695571D02*
X152545238Y-85600333D01*
X152545238Y-85600333D02*
X152450000Y-85552714D01*
X152450000Y-85552714D02*
X152259524Y-85552714D01*
X152259524Y-85552714D02*
X152164286Y-85600333D01*
X152164286Y-85600333D02*
X152116667Y-85695571D01*
X152116667Y-85695571D02*
X152116667Y-85790809D01*
X152116667Y-85790809D02*
X152592857Y-85886047D01*
X151259524Y-86219380D02*
X151259524Y-85695571D01*
X151259524Y-85695571D02*
X151307143Y-85600333D01*
X151307143Y-85600333D02*
X151402381Y-85552714D01*
X151402381Y-85552714D02*
X151592857Y-85552714D01*
X151592857Y-85552714D02*
X151688095Y-85600333D01*
X151259524Y-86171761D02*
X151354762Y-86219380D01*
X151354762Y-86219380D02*
X151592857Y-86219380D01*
X151592857Y-86219380D02*
X151688095Y-86171761D01*
X151688095Y-86171761D02*
X151735714Y-86076523D01*
X151735714Y-86076523D02*
X151735714Y-85981285D01*
X151735714Y-85981285D02*
X151688095Y-85886047D01*
X151688095Y-85886047D02*
X151592857Y-85838428D01*
X151592857Y-85838428D02*
X151354762Y-85838428D01*
X151354762Y-85838428D02*
X151259524Y-85790809D01*
X150354762Y-86219380D02*
X150354762Y-85219380D01*
X150354762Y-86171761D02*
X150450000Y-86219380D01*
X150450000Y-86219380D02*
X150640476Y-86219380D01*
X150640476Y-86219380D02*
X150735714Y-86171761D01*
X150735714Y-86171761D02*
X150783333Y-86124142D01*
X150783333Y-86124142D02*
X150830952Y-86028904D01*
X150830952Y-86028904D02*
X150830952Y-85743190D01*
X150830952Y-85743190D02*
X150783333Y-85647952D01*
X150783333Y-85647952D02*
X150735714Y-85600333D01*
X150735714Y-85600333D02*
X150640476Y-85552714D01*
X150640476Y-85552714D02*
X150450000Y-85552714D01*
X150450000Y-85552714D02*
X150354762Y-85600333D01*
X149735714Y-86219380D02*
X149830952Y-86171761D01*
X149830952Y-86171761D02*
X149878571Y-86076523D01*
X149878571Y-86076523D02*
X149878571Y-85219380D01*
X149354761Y-86219380D02*
X149354761Y-85552714D01*
X149354761Y-85219380D02*
X149402380Y-85267000D01*
X149402380Y-85267000D02*
X149354761Y-85314619D01*
X149354761Y-85314619D02*
X149307142Y-85267000D01*
X149307142Y-85267000D02*
X149354761Y-85219380D01*
X149354761Y-85219380D02*
X149354761Y-85314619D01*
X148450000Y-85552714D02*
X148450000Y-86362238D01*
X148450000Y-86362238D02*
X148497619Y-86457476D01*
X148497619Y-86457476D02*
X148545238Y-86505095D01*
X148545238Y-86505095D02*
X148640476Y-86552714D01*
X148640476Y-86552714D02*
X148783333Y-86552714D01*
X148783333Y-86552714D02*
X148878571Y-86505095D01*
X148450000Y-86171761D02*
X148545238Y-86219380D01*
X148545238Y-86219380D02*
X148735714Y-86219380D01*
X148735714Y-86219380D02*
X148830952Y-86171761D01*
X148830952Y-86171761D02*
X148878571Y-86124142D01*
X148878571Y-86124142D02*
X148926190Y-86028904D01*
X148926190Y-86028904D02*
X148926190Y-85743190D01*
X148926190Y-85743190D02*
X148878571Y-85647952D01*
X148878571Y-85647952D02*
X148830952Y-85600333D01*
X148830952Y-85600333D02*
X148735714Y-85552714D01*
X148735714Y-85552714D02*
X148545238Y-85552714D01*
X148545238Y-85552714D02*
X148450000Y-85600333D01*
X147973809Y-86219380D02*
X147973809Y-85219380D01*
X147545238Y-86219380D02*
X147545238Y-85695571D01*
X147545238Y-85695571D02*
X147592857Y-85600333D01*
X147592857Y-85600333D02*
X147688095Y-85552714D01*
X147688095Y-85552714D02*
X147830952Y-85552714D01*
X147830952Y-85552714D02*
X147926190Y-85600333D01*
X147926190Y-85600333D02*
X147973809Y-85647952D01*
X147211904Y-85552714D02*
X146830952Y-85552714D01*
X147069047Y-85219380D02*
X147069047Y-86076523D01*
X147069047Y-86076523D02*
X147021428Y-86171761D01*
X147021428Y-86171761D02*
X146926190Y-86219380D01*
X146926190Y-86219380D02*
X146830952Y-86219380D01*
X146545237Y-86171761D02*
X146449999Y-86219380D01*
X146449999Y-86219380D02*
X146259523Y-86219380D01*
X146259523Y-86219380D02*
X146164285Y-86171761D01*
X146164285Y-86171761D02*
X146116666Y-86076523D01*
X146116666Y-86076523D02*
X146116666Y-86028904D01*
X146116666Y-86028904D02*
X146164285Y-85933666D01*
X146164285Y-85933666D02*
X146259523Y-85886047D01*
X146259523Y-85886047D02*
X146402380Y-85886047D01*
X146402380Y-85886047D02*
X146497618Y-85838428D01*
X146497618Y-85838428D02*
X146545237Y-85743190D01*
X146545237Y-85743190D02*
X146545237Y-85695571D01*
X146545237Y-85695571D02*
X146497618Y-85600333D01*
X146497618Y-85600333D02*
X146402380Y-85552714D01*
X146402380Y-85552714D02*
X146259523Y-85552714D01*
X146259523Y-85552714D02*
X146164285Y-85600333D01*
X145230951Y-85219380D02*
X144897618Y-86219380D01*
X144897618Y-86219380D02*
X144564285Y-85219380D01*
X144278570Y-85314619D02*
X144230951Y-85267000D01*
X144230951Y-85267000D02*
X144135713Y-85219380D01*
X144135713Y-85219380D02*
X143897618Y-85219380D01*
X143897618Y-85219380D02*
X143802380Y-85267000D01*
X143802380Y-85267000D02*
X143754761Y-85314619D01*
X143754761Y-85314619D02*
X143707142Y-85409857D01*
X143707142Y-85409857D02*
X143707142Y-85505095D01*
X143707142Y-85505095D02*
X143754761Y-85647952D01*
X143754761Y-85647952D02*
X144326189Y-86219380D01*
X144326189Y-86219380D02*
X143707142Y-86219380D01*
X142107142Y-86219380D02*
X142440475Y-85743190D01*
X142678570Y-86219380D02*
X142678570Y-85219380D01*
X142678570Y-85219380D02*
X142297618Y-85219380D01*
X142297618Y-85219380D02*
X142202380Y-85267000D01*
X142202380Y-85267000D02*
X142154761Y-85314619D01*
X142154761Y-85314619D02*
X142107142Y-85409857D01*
X142107142Y-85409857D02*
X142107142Y-85552714D01*
X142107142Y-85552714D02*
X142154761Y-85647952D01*
X142154761Y-85647952D02*
X142202380Y-85695571D01*
X142202380Y-85695571D02*
X142297618Y-85743190D01*
X142297618Y-85743190D02*
X142678570Y-85743190D01*
X141297618Y-86171761D02*
X141392856Y-86219380D01*
X141392856Y-86219380D02*
X141583332Y-86219380D01*
X141583332Y-86219380D02*
X141678570Y-86171761D01*
X141678570Y-86171761D02*
X141726189Y-86076523D01*
X141726189Y-86076523D02*
X141726189Y-85695571D01*
X141726189Y-85695571D02*
X141678570Y-85600333D01*
X141678570Y-85600333D02*
X141583332Y-85552714D01*
X141583332Y-85552714D02*
X141392856Y-85552714D01*
X141392856Y-85552714D02*
X141297618Y-85600333D01*
X141297618Y-85600333D02*
X141249999Y-85695571D01*
X141249999Y-85695571D02*
X141249999Y-85790809D01*
X141249999Y-85790809D02*
X141726189Y-85886047D01*
X140916665Y-85552714D02*
X140678570Y-86219380D01*
X140678570Y-86219380D02*
X140440475Y-85552714D01*
X140059522Y-86124142D02*
X140011903Y-86171761D01*
X140011903Y-86171761D02*
X140059522Y-86219380D01*
X140059522Y-86219380D02*
X140107141Y-86171761D01*
X140107141Y-86171761D02*
X140059522Y-86124142D01*
X140059522Y-86124142D02*
X140059522Y-86219380D01*
X139030951Y-85314619D02*
X138983332Y-85267000D01*
X138983332Y-85267000D02*
X138888094Y-85219380D01*
X138888094Y-85219380D02*
X138649999Y-85219380D01*
X138649999Y-85219380D02*
X138554761Y-85267000D01*
X138554761Y-85267000D02*
X138507142Y-85314619D01*
X138507142Y-85314619D02*
X138459523Y-85409857D01*
X138459523Y-85409857D02*
X138459523Y-85505095D01*
X138459523Y-85505095D02*
X138507142Y-85647952D01*
X138507142Y-85647952D02*
X139078570Y-86219380D01*
X139078570Y-86219380D02*
X138459523Y-86219380D01*
X134667619Y-84994761D02*
X133667619Y-84661428D01*
X133667619Y-84661428D02*
X134667619Y-84328095D01*
X133667619Y-83994761D02*
X134667619Y-83994761D01*
X134667619Y-83994761D02*
X134667619Y-83756666D01*
X134667619Y-83756666D02*
X134620000Y-83613809D01*
X134620000Y-83613809D02*
X134524761Y-83518571D01*
X134524761Y-83518571D02*
X134429523Y-83470952D01*
X134429523Y-83470952D02*
X134239047Y-83423333D01*
X134239047Y-83423333D02*
X134096190Y-83423333D01*
X134096190Y-83423333D02*
X133905714Y-83470952D01*
X133905714Y-83470952D02*
X133810476Y-83518571D01*
X133810476Y-83518571D02*
X133715238Y-83613809D01*
X133715238Y-83613809D02*
X133667619Y-83756666D01*
X133667619Y-83756666D02*
X133667619Y-83994761D01*
X133667619Y-82423333D02*
X134143809Y-82756666D01*
X133667619Y-82994761D02*
X134667619Y-82994761D01*
X134667619Y-82994761D02*
X134667619Y-82613809D01*
X134667619Y-82613809D02*
X134620000Y-82518571D01*
X134620000Y-82518571D02*
X134572380Y-82470952D01*
X134572380Y-82470952D02*
X134477142Y-82423333D01*
X134477142Y-82423333D02*
X134334285Y-82423333D01*
X134334285Y-82423333D02*
X134239047Y-82470952D01*
X134239047Y-82470952D02*
X134191428Y-82518571D01*
X134191428Y-82518571D02*
X134143809Y-82613809D01*
X134143809Y-82613809D02*
X134143809Y-82994761D01*
X134667619Y-82137618D02*
X133667619Y-81804285D01*
X133667619Y-81804285D02*
X134667619Y-81470952D01*
X128170000Y-83058095D02*
X128217619Y-83153333D01*
X128217619Y-83153333D02*
X128217619Y-83296190D01*
X128217619Y-83296190D02*
X128170000Y-83439047D01*
X128170000Y-83439047D02*
X128074761Y-83534285D01*
X128074761Y-83534285D02*
X127979523Y-83581904D01*
X127979523Y-83581904D02*
X127789047Y-83629523D01*
X127789047Y-83629523D02*
X127646190Y-83629523D01*
X127646190Y-83629523D02*
X127455714Y-83581904D01*
X127455714Y-83581904D02*
X127360476Y-83534285D01*
X127360476Y-83534285D02*
X127265238Y-83439047D01*
X127265238Y-83439047D02*
X127217619Y-83296190D01*
X127217619Y-83296190D02*
X127217619Y-83200952D01*
X127217619Y-83200952D02*
X127265238Y-83058095D01*
X127265238Y-83058095D02*
X127312857Y-83010476D01*
X127312857Y-83010476D02*
X127646190Y-83010476D01*
X127646190Y-83010476D02*
X127646190Y-83200952D01*
X127217619Y-82581904D02*
X128217619Y-82581904D01*
X128217619Y-82581904D02*
X127217619Y-82010476D01*
X127217619Y-82010476D02*
X128217619Y-82010476D01*
X127217619Y-81534285D02*
X128217619Y-81534285D01*
X128217619Y-81534285D02*
X128217619Y-81296190D01*
X128217619Y-81296190D02*
X128170000Y-81153333D01*
X128170000Y-81153333D02*
X128074761Y-81058095D01*
X128074761Y-81058095D02*
X127979523Y-81010476D01*
X127979523Y-81010476D02*
X127789047Y-80962857D01*
X127789047Y-80962857D02*
X127646190Y-80962857D01*
X127646190Y-80962857D02*
X127455714Y-81010476D01*
X127455714Y-81010476D02*
X127360476Y-81058095D01*
X127360476Y-81058095D02*
X127265238Y-81153333D01*
X127265238Y-81153333D02*
X127217619Y-81296190D01*
X127217619Y-81296190D02*
X127217619Y-81534285D01*
X131773619Y-69135523D02*
X130773619Y-68802190D01*
X130773619Y-68802190D02*
X131773619Y-68468857D01*
X130821238Y-68183142D02*
X130773619Y-68040285D01*
X130773619Y-68040285D02*
X130773619Y-67802190D01*
X130773619Y-67802190D02*
X130821238Y-67706952D01*
X130821238Y-67706952D02*
X130868857Y-67659333D01*
X130868857Y-67659333D02*
X130964095Y-67611714D01*
X130964095Y-67611714D02*
X131059333Y-67611714D01*
X131059333Y-67611714D02*
X131154571Y-67659333D01*
X131154571Y-67659333D02*
X131202190Y-67706952D01*
X131202190Y-67706952D02*
X131249809Y-67802190D01*
X131249809Y-67802190D02*
X131297428Y-67992666D01*
X131297428Y-67992666D02*
X131345047Y-68087904D01*
X131345047Y-68087904D02*
X131392666Y-68135523D01*
X131392666Y-68135523D02*
X131487904Y-68183142D01*
X131487904Y-68183142D02*
X131583142Y-68183142D01*
X131583142Y-68183142D02*
X131678380Y-68135523D01*
X131678380Y-68135523D02*
X131726000Y-68087904D01*
X131726000Y-68087904D02*
X131773619Y-67992666D01*
X131773619Y-67992666D02*
X131773619Y-67754571D01*
X131773619Y-67754571D02*
X131726000Y-67611714D01*
D11*
%TO.C,R14*%
X125883641Y-73786000D02*
X125576359Y-73786000D01*
X125883641Y-73026000D02*
X125576359Y-73026000D01*
%TO.C,C22*%
X142678000Y-82187748D02*
X142678000Y-79356252D01*
X147898000Y-82187748D02*
X147898000Y-79356252D01*
%TO.C,C19*%
X135198000Y-73768252D02*
X135198000Y-76599748D01*
X129978000Y-73768252D02*
X129978000Y-76599748D01*
%TO.C,C23*%
X142388000Y-72948748D02*
X142388000Y-74371252D01*
X140568000Y-72948748D02*
X140568000Y-74371252D01*
%TO.C,C21*%
X145182000Y-72948748D02*
X145182000Y-74371252D01*
X143362000Y-72948748D02*
X143362000Y-74371252D01*
%TO.C,D3*%
X126707000Y-75919000D02*
X124422000Y-75919000D01*
X126707000Y-74449000D02*
X126707000Y-75919000D01*
X124422000Y-74449000D02*
X126707000Y-74449000D01*
%TO.C,C20*%
X147976000Y-72948748D02*
X147976000Y-74371252D01*
X146156000Y-72948748D02*
X146156000Y-74371252D01*
%TO.C,C25*%
X139594000Y-72948748D02*
X139594000Y-74371252D01*
X137774000Y-72948748D02*
X137774000Y-74371252D01*
%TO.C,C24*%
X136328000Y-82939748D02*
X136328000Y-80108252D01*
X141548000Y-82939748D02*
X141548000Y-80108252D01*
%TO.C,G\u002A\u002A\u002A*%
G36*
X163888096Y-75967603D02*
G01*
X163888231Y-76007834D01*
X163888647Y-76123486D01*
X163889093Y-76235173D01*
X163889563Y-76342159D01*
X163890052Y-76443711D01*
X163890556Y-76539095D01*
X163891069Y-76627575D01*
X163891587Y-76708419D01*
X163892105Y-76780891D01*
X163892617Y-76844259D01*
X163893120Y-76897786D01*
X163893608Y-76940740D01*
X163894077Y-76972386D01*
X163894521Y-76991989D01*
X163894935Y-76998816D01*
X163900769Y-76996026D01*
X163917420Y-76986986D01*
X163943955Y-76972206D01*
X163979451Y-76952208D01*
X164022987Y-76927518D01*
X164073640Y-76898660D01*
X164130490Y-76866157D01*
X164192613Y-76830534D01*
X164259089Y-76792314D01*
X164328995Y-76752023D01*
X164395252Y-76713812D01*
X164462309Y-76675189D01*
X164525199Y-76639015D01*
X164582981Y-76605830D01*
X164634714Y-76576172D01*
X164679457Y-76550581D01*
X164716267Y-76529596D01*
X164744205Y-76513756D01*
X164762329Y-76503599D01*
X164769696Y-76499664D01*
X164770258Y-76499733D01*
X164771275Y-76501648D01*
X164772218Y-76506302D01*
X164773090Y-76514163D01*
X164773894Y-76525699D01*
X164774632Y-76541379D01*
X164775308Y-76561672D01*
X164775923Y-76587044D01*
X164776481Y-76617966D01*
X164776984Y-76654905D01*
X164777435Y-76698329D01*
X164777837Y-76748707D01*
X164778192Y-76806507D01*
X164778503Y-76872198D01*
X164778773Y-76946248D01*
X164779004Y-77029124D01*
X164779200Y-77121297D01*
X164779362Y-77223233D01*
X164779494Y-77335401D01*
X164779598Y-77458270D01*
X164779677Y-77592308D01*
X164779734Y-77737983D01*
X164779772Y-77895764D01*
X164779792Y-78066119D01*
X164779798Y-78249516D01*
X164779792Y-78360119D01*
X164779761Y-78510580D01*
X164779707Y-78657073D01*
X164779630Y-78799037D01*
X164779531Y-78935910D01*
X164779411Y-79067130D01*
X164779272Y-79192137D01*
X164779115Y-79310369D01*
X164778940Y-79421265D01*
X164778749Y-79524263D01*
X164778542Y-79618803D01*
X164778321Y-79704322D01*
X164778087Y-79780260D01*
X164777841Y-79846055D01*
X164777584Y-79901146D01*
X164777317Y-79944972D01*
X164777041Y-79976971D01*
X164776757Y-79996582D01*
X164776466Y-80003244D01*
X164775207Y-80002674D01*
X164764174Y-79996659D01*
X164742318Y-79984363D01*
X164710233Y-79966127D01*
X164668511Y-79942296D01*
X164617745Y-79913211D01*
X164558527Y-79879216D01*
X164491451Y-79840654D01*
X164417109Y-79797869D01*
X164336094Y-79751202D01*
X164248999Y-79700997D01*
X164156416Y-79647597D01*
X164058938Y-79591344D01*
X163957158Y-79532583D01*
X163851669Y-79471656D01*
X163743064Y-79408906D01*
X163631935Y-79344675D01*
X163518874Y-79279308D01*
X163404476Y-79213147D01*
X163289332Y-79146534D01*
X163174035Y-79079814D01*
X163059179Y-79013328D01*
X162945355Y-78947420D01*
X162833157Y-78882434D01*
X162723177Y-78818711D01*
X162616008Y-78756595D01*
X162512243Y-78696429D01*
X162412475Y-78638556D01*
X162317296Y-78583320D01*
X162227299Y-78531062D01*
X162143077Y-78482126D01*
X162065223Y-78436855D01*
X161994329Y-78395592D01*
X161930988Y-78358679D01*
X161875793Y-78326461D01*
X161829337Y-78299280D01*
X161792212Y-78277479D01*
X161765012Y-78261401D01*
X161748328Y-78251388D01*
X161742755Y-78247785D01*
X161742915Y-78247634D01*
X161750545Y-78242808D01*
X161768867Y-78231852D01*
X161796974Y-78215294D01*
X161833960Y-78193661D01*
X161878919Y-78167479D01*
X161930945Y-78137275D01*
X161989132Y-78103576D01*
X162052574Y-78066910D01*
X162120364Y-78027803D01*
X162191596Y-77986781D01*
X162201586Y-77981033D01*
X162272321Y-77940281D01*
X162339434Y-77901535D01*
X162402026Y-77865321D01*
X162459198Y-77832160D01*
X162510050Y-77802579D01*
X162553682Y-77777101D01*
X162589194Y-77756250D01*
X162615687Y-77740550D01*
X162632261Y-77730526D01*
X162638016Y-77726702D01*
X162637419Y-77726226D01*
X162635710Y-77725167D01*
X162653697Y-77725167D01*
X162654409Y-77725840D01*
X162664059Y-77732104D01*
X162684401Y-77744511D01*
X162714691Y-77762627D01*
X162754181Y-77786017D01*
X162802126Y-77814247D01*
X162857781Y-77846885D01*
X162920398Y-77883495D01*
X162989234Y-77923644D01*
X163063541Y-77966899D01*
X163142575Y-78012824D01*
X163225588Y-78060987D01*
X163311836Y-78110954D01*
X163400572Y-78162289D01*
X163491051Y-78214561D01*
X163582527Y-78267334D01*
X163674254Y-78320175D01*
X163765486Y-78372650D01*
X163855477Y-78424325D01*
X163888096Y-78443039D01*
X163888096Y-77726665D01*
X163888096Y-77010291D01*
X163869519Y-77020004D01*
X163866491Y-77021625D01*
X163850382Y-77030586D01*
X163824401Y-77045306D01*
X163789486Y-77065242D01*
X163746575Y-77089849D01*
X163696606Y-77118583D01*
X163640518Y-77150900D01*
X163579247Y-77186257D01*
X163513731Y-77224109D01*
X163444910Y-77263912D01*
X163373721Y-77305123D01*
X163301102Y-77347196D01*
X163227990Y-77389589D01*
X163155325Y-77431756D01*
X163084043Y-77473155D01*
X163015083Y-77513241D01*
X162949383Y-77551470D01*
X162887881Y-77587298D01*
X162831515Y-77620181D01*
X162781222Y-77649575D01*
X162737942Y-77674935D01*
X162702611Y-77695719D01*
X162676168Y-77711382D01*
X162659551Y-77721379D01*
X162653697Y-77725167D01*
X162635710Y-77725167D01*
X162628058Y-77720424D01*
X162607833Y-77708364D01*
X162577379Y-77690414D01*
X162537331Y-77666945D01*
X162488324Y-77638325D01*
X162430994Y-77604925D01*
X162365976Y-77567112D01*
X162293906Y-77525257D01*
X162215419Y-77479729D01*
X162131151Y-77430898D01*
X162041736Y-77379131D01*
X161947810Y-77324800D01*
X161850009Y-77268273D01*
X161748968Y-77209920D01*
X161716302Y-77191058D01*
X161616199Y-77133215D01*
X161519530Y-77077289D01*
X161426931Y-77023654D01*
X161339038Y-76972679D01*
X161256488Y-76924736D01*
X161179918Y-76880197D01*
X161109964Y-76839432D01*
X161047261Y-76802812D01*
X160992448Y-76770709D01*
X160946160Y-76743493D01*
X160909033Y-76721536D01*
X160881705Y-76705210D01*
X160864811Y-76694884D01*
X160858988Y-76690931D01*
X160861659Y-76689031D01*
X160875095Y-76680761D01*
X160899417Y-76666220D01*
X160934136Y-76645690D01*
X160978767Y-76619456D01*
X161032822Y-76587801D01*
X161095813Y-76551006D01*
X161167255Y-76509357D01*
X161246659Y-76463135D01*
X161333540Y-76412623D01*
X161427409Y-76358106D01*
X161527780Y-76299865D01*
X161634167Y-76238184D01*
X161746081Y-76173346D01*
X161863036Y-76105635D01*
X161984546Y-76035332D01*
X162110122Y-75962722D01*
X162239278Y-75888088D01*
X162371527Y-75811712D01*
X163884718Y-74938077D01*
X163888096Y-75967603D01*
G37*
%TO.C,L1*%
X157616000Y-79522000D02*
X157616000Y-82022000D01*
X149216000Y-82022000D02*
X149216000Y-79522000D01*
%TD*%
M02*
