%TF.GenerationSoftware,KiCad,Pcbnew,(7.0.0-0)*%
%TF.CreationDate,2023-08-11T18:05:37-07:00*%
%TF.ProjectId,Headlights_Driver,48656164-6c69-4676-9874-735f44726976,rev?*%
%TF.SameCoordinates,Original*%
%TF.FileFunction,Copper,L2,Inr*%
%TF.FilePolarity,Positive*%
%FSLAX46Y46*%
G04 Gerber Fmt 4.6, Leading zero omitted, Abs format (unit mm)*
G04 Created by KiCad (PCBNEW (7.0.0-0)) date 2023-08-11 18:05:37*
%MOMM*%
%LPD*%
G01*
G04 APERTURE LIST*
G04 Aperture macros list*
%AMRoundRect*
0 Rectangle with rounded corners*
0 $1 Rounding radius*
0 $2 $3 $4 $5 $6 $7 $8 $9 X,Y pos of 4 corners*
0 Add a 4 corners polygon primitive as box body*
4,1,4,$2,$3,$4,$5,$6,$7,$8,$9,$2,$3,0*
0 Add four circle primitives for the rounded corners*
1,1,$1+$1,$2,$3*
1,1,$1+$1,$4,$5*
1,1,$1+$1,$6,$7*
1,1,$1+$1,$8,$9*
0 Add four rect primitives between the rounded corners*
20,1,$1+$1,$2,$3,$4,$5,0*
20,1,$1+$1,$4,$5,$6,$7,0*
20,1,$1+$1,$6,$7,$8,$9,0*
20,1,$1+$1,$8,$9,$2,$3,0*%
G04 Aperture macros list end*
%TA.AperFunction,ComponentPad*%
%ADD10C,0.600000*%
%TD*%
%TA.AperFunction,ComponentPad*%
%ADD11C,0.800000*%
%TD*%
%TA.AperFunction,ComponentPad*%
%ADD12C,6.400000*%
%TD*%
%TA.AperFunction,ComponentPad*%
%ADD13RoundRect,0.250000X-0.675000X-0.675000X0.675000X-0.675000X0.675000X0.675000X-0.675000X0.675000X0*%
%TD*%
%TA.AperFunction,ComponentPad*%
%ADD14C,1.850000*%
%TD*%
%TA.AperFunction,ComponentPad*%
%ADD15RoundRect,0.250000X0.675000X-0.675000X0.675000X0.675000X-0.675000X0.675000X-0.675000X-0.675000X0*%
%TD*%
%TA.AperFunction,ViaPad*%
%ADD16C,0.450000*%
%TD*%
%TA.AperFunction,ViaPad*%
%ADD17C,0.762000*%
%TD*%
G04 APERTURE END LIST*
D10*
%TO.N,GND*%
%TO.C,U3*%
X141380000Y-78458000D03*
X143100000Y-78458000D03*
X142240000Y-77978000D03*
X141380000Y-77498000D03*
X143100000Y-77498000D03*
%TD*%
D11*
%TO.N,GND*%
%TO.C,H2*%
X143650000Y-91440000D03*
X144352944Y-89742944D03*
X144352944Y-93137056D03*
X146050000Y-89040000D03*
D12*
X146050000Y-91440000D03*
D11*
X146050000Y-93840000D03*
X147747056Y-89742944D03*
X147747056Y-93137056D03*
X148450000Y-91440000D03*
%TD*%
%TO.N,GND*%
%TO.C,H1*%
X143650000Y-63500000D03*
X144352944Y-61802944D03*
X144352944Y-65197056D03*
X146050000Y-61100000D03*
D12*
X146050000Y-63500000D03*
D11*
X146050000Y-65900000D03*
X147747056Y-61802944D03*
X147747056Y-65197056D03*
X148450000Y-63500000D03*
%TD*%
D13*
%TO.N,GND*%
%TO.C,J7*%
X132266000Y-87376000D03*
D14*
%TO.N,Vdrive*%
X136466000Y-87376000D03*
%TD*%
D15*
%TO.N,GND*%
%TO.C,J4*%
X124968000Y-82110000D03*
D14*
%TO.N,VDD*%
X124968000Y-77910000D03*
%TD*%
D16*
%TO.N,GND*%
X165608000Y-83058000D03*
D17*
X162560000Y-81026000D03*
D16*
X130810000Y-75227500D03*
D17*
X134620000Y-69850000D03*
X161798000Y-80264000D03*
X124206000Y-72898000D03*
D16*
X133096000Y-67056000D03*
X135128000Y-67056000D03*
X143764000Y-67056000D03*
D17*
X147574000Y-77216000D03*
D16*
X134112000Y-67056000D03*
D17*
X124206000Y-71882000D03*
X161036000Y-81026000D03*
X162560000Y-82550000D03*
D16*
X127508000Y-72898000D03*
D17*
X161798000Y-81788000D03*
D16*
X166370000Y-83058000D03*
X141732000Y-67056000D03*
D17*
X147574000Y-75946000D03*
X163322000Y-81788000D03*
D16*
X127508000Y-73660000D03*
D17*
X133350000Y-69850000D03*
X147574000Y-74676000D03*
D16*
X139192000Y-73914000D03*
X161290000Y-73660000D03*
X127508000Y-75692000D03*
D17*
X164084000Y-82550000D03*
X163322000Y-83312000D03*
X132080000Y-69850000D03*
%TO.N,VDD*%
X140970000Y-88392000D03*
X139192000Y-88392000D03*
X140970000Y-86868000D03*
D16*
%TO.N,/SWDIO*%
X138938000Y-66040000D03*
X136144000Y-75946000D03*
%TO.N,/SWCLK*%
X136906000Y-75946000D03*
X138176000Y-67056000D03*
%TO.N,/DRVR_EN*%
X146050000Y-76454000D03*
X139700000Y-67056000D03*
D17*
%TO.N,Net-(Q2-D)*%
X156718000Y-74168000D03*
X153416000Y-78232000D03*
X151892000Y-76708000D03*
X151892000Y-75184000D03*
X156718000Y-72644000D03*
X153416000Y-75184000D03*
X156718000Y-77216000D03*
X156718000Y-71120000D03*
X156718000Y-75692000D03*
X156718000Y-78740000D03*
X153416000Y-76708000D03*
X151892000Y-78232000D03*
D16*
%TO.N,/STATUS*%
X126238000Y-72644000D03*
X133604000Y-75184000D03*
D17*
%TO.N,/LED-*%
X163322000Y-67056000D03*
X167386000Y-67056000D03*
X165354000Y-68326000D03*
X163322000Y-69596000D03*
X167386000Y-69596000D03*
%TO.N,VS*%
X152908000Y-70612000D03*
X152908000Y-69088000D03*
X151384000Y-70612000D03*
X151384000Y-69088000D03*
X151384000Y-72136000D03*
X152908000Y-72136000D03*
%TO.N,Net-(D1-K)*%
X159004000Y-68834000D03*
X143764000Y-80772000D03*
D16*
%TO.N,/LOW*%
X140970000Y-73914000D03*
X134384646Y-75184000D03*
D17*
%TO.N,Net-(D2-K)*%
X140462000Y-76454000D03*
X146812000Y-80010000D03*
D16*
%TO.N,Net-(R3-Pad2)*%
X165608000Y-80772000D03*
X127508000Y-74676000D03*
%TO.N,Net-(R15-Pad1)*%
X130556000Y-75946000D03*
X161290000Y-75184000D03*
%TD*%
%TA.AperFunction,Conductor*%
%TO.N,GND*%
G36*
X149338889Y-59700889D02*
G01*
X149521089Y-59715235D01*
X149540609Y-59718327D01*
X149713510Y-59759843D01*
X149732308Y-59765952D01*
X149896580Y-59834002D01*
X149914185Y-59842973D01*
X149949863Y-59864838D01*
X150065792Y-59935885D01*
X150081786Y-59947506D01*
X150221104Y-60066501D01*
X150228366Y-60073215D01*
X155832077Y-65676926D01*
X155832131Y-65676948D01*
X155832223Y-65677023D01*
X155901882Y-65746687D01*
X155905881Y-65749592D01*
X155905885Y-65749596D01*
X155905928Y-65749627D01*
X156064937Y-65865161D01*
X156244519Y-65956670D01*
X156436205Y-66018960D01*
X156635274Y-66050497D01*
X156733962Y-66050499D01*
X156733963Y-66050500D01*
X156736051Y-66050500D01*
X167381044Y-66050500D01*
X167390929Y-66050887D01*
X167573154Y-66065229D01*
X167592661Y-66068319D01*
X167765571Y-66109830D01*
X167784365Y-66115937D01*
X167943755Y-66181959D01*
X167948637Y-66183981D01*
X167966254Y-66192957D01*
X168117861Y-66285862D01*
X168133857Y-66297484D01*
X168269060Y-66412959D01*
X168283040Y-66426939D01*
X168398515Y-66562142D01*
X168410137Y-66578138D01*
X168503042Y-66729745D01*
X168512018Y-66747362D01*
X168580060Y-66911629D01*
X168586170Y-66930433D01*
X168627678Y-67103328D01*
X168630771Y-67122856D01*
X168645112Y-67305070D01*
X168645500Y-67314956D01*
X168645500Y-87625044D01*
X168645112Y-87634930D01*
X168630771Y-87817143D01*
X168627678Y-87836671D01*
X168586170Y-88009566D01*
X168580060Y-88028370D01*
X168512018Y-88192637D01*
X168503042Y-88210254D01*
X168410137Y-88361861D01*
X168398515Y-88377857D01*
X168283040Y-88513060D01*
X168269060Y-88527040D01*
X168133857Y-88642515D01*
X168117861Y-88654137D01*
X167966254Y-88747042D01*
X167948637Y-88756018D01*
X167784370Y-88824060D01*
X167765566Y-88830170D01*
X167592671Y-88871678D01*
X167573143Y-88874771D01*
X167390930Y-88889112D01*
X167381044Y-88889500D01*
X165226000Y-88889500D01*
X165163000Y-88872619D01*
X165116881Y-88826500D01*
X165100000Y-88763500D01*
X165100000Y-81169938D01*
X165113733Y-81112735D01*
X165151939Y-81068002D01*
X165206289Y-81045489D01*
X165264936Y-81050105D01*
X165315095Y-81080842D01*
X165354780Y-81120528D01*
X165363612Y-81125028D01*
X165451752Y-81169938D01*
X165474874Y-81181719D01*
X165608000Y-81202804D01*
X165741126Y-81181719D01*
X165861220Y-81120528D01*
X165956528Y-81025220D01*
X166017719Y-80905126D01*
X166038804Y-80772000D01*
X166017719Y-80638874D01*
X165956528Y-80518780D01*
X165861220Y-80423472D01*
X165852388Y-80418972D01*
X165852387Y-80418971D01*
X165749959Y-80366781D01*
X165749955Y-80366779D01*
X165741126Y-80362281D01*
X165731334Y-80360730D01*
X165617793Y-80342747D01*
X165608000Y-80341196D01*
X165598207Y-80342747D01*
X165484665Y-80360730D01*
X165484663Y-80360730D01*
X165474874Y-80362281D01*
X165466046Y-80366778D01*
X165466040Y-80366781D01*
X165363612Y-80418971D01*
X165363608Y-80418973D01*
X165354780Y-80423472D01*
X165347771Y-80430480D01*
X165347768Y-80430483D01*
X165315095Y-80463157D01*
X165264936Y-80493895D01*
X165206289Y-80498511D01*
X165151939Y-80475998D01*
X165113733Y-80431265D01*
X165100000Y-80374062D01*
X165100000Y-79264590D01*
X165100000Y-79248000D01*
X165083410Y-79248000D01*
X159638000Y-79248000D01*
X159575000Y-79231119D01*
X159528881Y-79185000D01*
X159512000Y-79122000D01*
X159512000Y-75184000D01*
X160859196Y-75184000D01*
X160880281Y-75317126D01*
X160884779Y-75325955D01*
X160884781Y-75325959D01*
X160936971Y-75428387D01*
X160941472Y-75437220D01*
X161036780Y-75532528D01*
X161156874Y-75593719D01*
X161290000Y-75614804D01*
X161423126Y-75593719D01*
X161543220Y-75532528D01*
X161638528Y-75437220D01*
X161699719Y-75317126D01*
X161720804Y-75184000D01*
X161699719Y-75050874D01*
X161638528Y-74930780D01*
X161543220Y-74835472D01*
X161534388Y-74830972D01*
X161534387Y-74830971D01*
X161431959Y-74778781D01*
X161431955Y-74778779D01*
X161423126Y-74774281D01*
X161413334Y-74772730D01*
X161299793Y-74754747D01*
X161290000Y-74753196D01*
X161280207Y-74754747D01*
X161166665Y-74772730D01*
X161166663Y-74772730D01*
X161156874Y-74774281D01*
X161148046Y-74778778D01*
X161148040Y-74778781D01*
X161045612Y-74830971D01*
X161045608Y-74830973D01*
X161036780Y-74835472D01*
X161029771Y-74842480D01*
X161029768Y-74842483D01*
X160948483Y-74923768D01*
X160948480Y-74923771D01*
X160941472Y-74930780D01*
X160936973Y-74939608D01*
X160936971Y-74939612D01*
X160884781Y-75042040D01*
X160884778Y-75042046D01*
X160880281Y-75050874D01*
X160878730Y-75060663D01*
X160878730Y-75060665D01*
X160860747Y-75174207D01*
X160859196Y-75184000D01*
X159512000Y-75184000D01*
X159512000Y-70659456D01*
X159521670Y-70611047D01*
X159549197Y-70570069D01*
X160018391Y-70103939D01*
X160274000Y-69850000D01*
X160274000Y-69596000D01*
X162735482Y-69596000D01*
X162755467Y-69747802D01*
X162758623Y-69755422D01*
X162758625Y-69755428D01*
X162790807Y-69833119D01*
X162814061Y-69889259D01*
X162819084Y-69895806D01*
X162819087Y-69895810D01*
X162902246Y-70004185D01*
X162907269Y-70010731D01*
X162913814Y-70015753D01*
X163022189Y-70098912D01*
X163022191Y-70098913D01*
X163028741Y-70103939D01*
X163128780Y-70145377D01*
X163162571Y-70159374D01*
X163162572Y-70159374D01*
X163170198Y-70162533D01*
X163322000Y-70182518D01*
X163473802Y-70162533D01*
X163615259Y-70103939D01*
X163736731Y-70010731D01*
X163829939Y-69889259D01*
X163888533Y-69747802D01*
X163908518Y-69596000D01*
X166799482Y-69596000D01*
X166819467Y-69747802D01*
X166822623Y-69755422D01*
X166822625Y-69755428D01*
X166854807Y-69833119D01*
X166878061Y-69889259D01*
X166883084Y-69895806D01*
X166883087Y-69895810D01*
X166966246Y-70004185D01*
X166971269Y-70010731D01*
X166977814Y-70015753D01*
X167086189Y-70098912D01*
X167086191Y-70098913D01*
X167092741Y-70103939D01*
X167192780Y-70145377D01*
X167226571Y-70159374D01*
X167226572Y-70159374D01*
X167234198Y-70162533D01*
X167386000Y-70182518D01*
X167537802Y-70162533D01*
X167679259Y-70103939D01*
X167800731Y-70010731D01*
X167893939Y-69889259D01*
X167952533Y-69747802D01*
X167972518Y-69596000D01*
X167952533Y-69444198D01*
X167893939Y-69302741D01*
X167800731Y-69181269D01*
X167794185Y-69176246D01*
X167685810Y-69093087D01*
X167685806Y-69093084D01*
X167679259Y-69088061D01*
X167662119Y-69080961D01*
X167545428Y-69032625D01*
X167545422Y-69032623D01*
X167537802Y-69029467D01*
X167529618Y-69028389D01*
X167529616Y-69028389D01*
X167394188Y-69010560D01*
X167386000Y-69009482D01*
X167377812Y-69010560D01*
X167242383Y-69028389D01*
X167242379Y-69028389D01*
X167234198Y-69029467D01*
X167226579Y-69032622D01*
X167226571Y-69032625D01*
X167100369Y-69084901D01*
X167100366Y-69084902D01*
X167092741Y-69088061D01*
X167086196Y-69093082D01*
X167086189Y-69093087D01*
X166977814Y-69176246D01*
X166977810Y-69176249D01*
X166971269Y-69181269D01*
X166966249Y-69187810D01*
X166966246Y-69187814D01*
X166883087Y-69296189D01*
X166883082Y-69296196D01*
X166878061Y-69302741D01*
X166874902Y-69310366D01*
X166874901Y-69310369D01*
X166822625Y-69436571D01*
X166822622Y-69436579D01*
X166819467Y-69444198D01*
X166799482Y-69596000D01*
X163908518Y-69596000D01*
X163888533Y-69444198D01*
X163829939Y-69302741D01*
X163736731Y-69181269D01*
X163730185Y-69176246D01*
X163621810Y-69093087D01*
X163621806Y-69093084D01*
X163615259Y-69088061D01*
X163598119Y-69080961D01*
X163481428Y-69032625D01*
X163481422Y-69032623D01*
X163473802Y-69029467D01*
X163465618Y-69028389D01*
X163465616Y-69028389D01*
X163330188Y-69010560D01*
X163322000Y-69009482D01*
X163313812Y-69010560D01*
X163178383Y-69028389D01*
X163178379Y-69028389D01*
X163170198Y-69029467D01*
X163162579Y-69032622D01*
X163162571Y-69032625D01*
X163036369Y-69084901D01*
X163036366Y-69084902D01*
X163028741Y-69088061D01*
X163022196Y-69093082D01*
X163022189Y-69093087D01*
X162913814Y-69176246D01*
X162913810Y-69176249D01*
X162907269Y-69181269D01*
X162902249Y-69187810D01*
X162902246Y-69187814D01*
X162819087Y-69296189D01*
X162819082Y-69296196D01*
X162814061Y-69302741D01*
X162810902Y-69310366D01*
X162810901Y-69310369D01*
X162758625Y-69436571D01*
X162758622Y-69436579D01*
X162755467Y-69444198D01*
X162735482Y-69596000D01*
X160274000Y-69596000D01*
X160274000Y-68834000D01*
X159766000Y-68326000D01*
X164767482Y-68326000D01*
X164787467Y-68477802D01*
X164790623Y-68485422D01*
X164790625Y-68485428D01*
X164838961Y-68602119D01*
X164846061Y-68619259D01*
X164851084Y-68625806D01*
X164851087Y-68625810D01*
X164934246Y-68734185D01*
X164939269Y-68740731D01*
X164945814Y-68745753D01*
X165054189Y-68828912D01*
X165054191Y-68828913D01*
X165060741Y-68833939D01*
X165160780Y-68875377D01*
X165194571Y-68889374D01*
X165194572Y-68889374D01*
X165202198Y-68892533D01*
X165354000Y-68912518D01*
X165505802Y-68892533D01*
X165647259Y-68833939D01*
X165768731Y-68740731D01*
X165861939Y-68619259D01*
X165920533Y-68477802D01*
X165940518Y-68326000D01*
X165920533Y-68174198D01*
X165861939Y-68032741D01*
X165768731Y-67911269D01*
X165762185Y-67906246D01*
X165653810Y-67823087D01*
X165653806Y-67823084D01*
X165647259Y-67818061D01*
X165630119Y-67810961D01*
X165513428Y-67762625D01*
X165513422Y-67762623D01*
X165505802Y-67759467D01*
X165497618Y-67758389D01*
X165497616Y-67758389D01*
X165362188Y-67740560D01*
X165354000Y-67739482D01*
X165345812Y-67740560D01*
X165210383Y-67758389D01*
X165210379Y-67758389D01*
X165202198Y-67759467D01*
X165194579Y-67762622D01*
X165194571Y-67762625D01*
X165068369Y-67814901D01*
X165068366Y-67814902D01*
X165060741Y-67818061D01*
X165054196Y-67823082D01*
X165054189Y-67823087D01*
X164945814Y-67906246D01*
X164945810Y-67906249D01*
X164939269Y-67911269D01*
X164934249Y-67917810D01*
X164934246Y-67917814D01*
X164851087Y-68026189D01*
X164851082Y-68026196D01*
X164846061Y-68032741D01*
X164842902Y-68040366D01*
X164842901Y-68040369D01*
X164790625Y-68166571D01*
X164790622Y-68166579D01*
X164787467Y-68174198D01*
X164767482Y-68326000D01*
X159766000Y-68326000D01*
X159258000Y-67818000D01*
X158750000Y-67818000D01*
X158741227Y-67826772D01*
X158741224Y-67826775D01*
X157742775Y-68825224D01*
X157742772Y-68825227D01*
X157734000Y-68834000D01*
X157734000Y-68846410D01*
X157734000Y-69724000D01*
X157717119Y-69787000D01*
X157671000Y-69833119D01*
X157608000Y-69850000D01*
X154304000Y-69850000D01*
X154241000Y-69833119D01*
X154194881Y-69787000D01*
X154178000Y-69724000D01*
X154178000Y-68846410D01*
X154178000Y-68834000D01*
X153162000Y-67818000D01*
X151130000Y-67818000D01*
X151121227Y-67826772D01*
X151121224Y-67826775D01*
X150122775Y-68825224D01*
X150122772Y-68825227D01*
X150114000Y-68834000D01*
X150114000Y-80264000D01*
X159495410Y-80264000D01*
X159512000Y-80264000D01*
X159512000Y-79882000D01*
X159528881Y-79819000D01*
X159575000Y-79772881D01*
X159638000Y-79756000D01*
X164466000Y-79756000D01*
X164529000Y-79772881D01*
X164575119Y-79819000D01*
X164592000Y-79882000D01*
X164592000Y-88763500D01*
X164575119Y-88826500D01*
X164529000Y-88872619D01*
X164466000Y-88889500D01*
X156736137Y-88889500D01*
X156736051Y-88889488D01*
X156736051Y-88889478D01*
X156735977Y-88889477D01*
X156735970Y-88889477D01*
X156640225Y-88889475D01*
X156640223Y-88889475D01*
X156635272Y-88889475D01*
X156630390Y-88890248D01*
X156630379Y-88890249D01*
X156441085Y-88920228D01*
X156441079Y-88920229D01*
X156436194Y-88921003D01*
X156431486Y-88922532D01*
X156431485Y-88922533D01*
X156249207Y-88981760D01*
X156249197Y-88981764D01*
X156244501Y-88983290D01*
X156240099Y-88985532D01*
X156240092Y-88985536D01*
X156069317Y-89072557D01*
X156069303Y-89072565D01*
X156064914Y-89074802D01*
X156060921Y-89077702D01*
X156060915Y-89077707D01*
X155905863Y-89190372D01*
X155905854Y-89190379D01*
X155901857Y-89193284D01*
X155898363Y-89196777D01*
X155898354Y-89196786D01*
X155832076Y-89263074D01*
X155832075Y-89263073D01*
X155832066Y-89263084D01*
X150228048Y-94867101D01*
X150220790Y-94873811D01*
X150081811Y-94992527D01*
X150065813Y-95004152D01*
X149914212Y-95097062D01*
X149896594Y-95106040D01*
X149732326Y-95174087D01*
X149713519Y-95180198D01*
X149540624Y-95221706D01*
X149521092Y-95224799D01*
X149339161Y-95239112D01*
X149329279Y-95239500D01*
X142770999Y-95239500D01*
X142761111Y-95239111D01*
X142730250Y-95236681D01*
X142578909Y-95224766D01*
X142559384Y-95221674D01*
X142386481Y-95180163D01*
X142367681Y-95174054D01*
X142203410Y-95106016D01*
X142185795Y-95097041D01*
X142034177Y-95004138D01*
X142018184Y-94992520D01*
X141879429Y-94874030D01*
X141872157Y-94867308D01*
X136269456Y-89264607D01*
X136269405Y-89264541D01*
X136269415Y-89264532D01*
X136198149Y-89193277D01*
X136194148Y-89190370D01*
X136194144Y-89190367D01*
X136039083Y-89077722D01*
X136039080Y-89077720D01*
X136035081Y-89074815D01*
X135855491Y-88983318D01*
X135850794Y-88981792D01*
X135850792Y-88981791D01*
X135668506Y-88922565D01*
X135668505Y-88922564D01*
X135663800Y-88921036D01*
X135597285Y-88910500D01*
X135469617Y-88890277D01*
X135469609Y-88890276D01*
X135464727Y-88889503D01*
X135459788Y-88889502D01*
X135459778Y-88889502D01*
X135366037Y-88889500D01*
X124718956Y-88889500D01*
X124709070Y-88889112D01*
X124526856Y-88874771D01*
X124507328Y-88871678D01*
X124334433Y-88830170D01*
X124315629Y-88824060D01*
X124151362Y-88756018D01*
X124133745Y-88747042D01*
X123982138Y-88654137D01*
X123966142Y-88642515D01*
X123830939Y-88527040D01*
X123816959Y-88513060D01*
X123701484Y-88377857D01*
X123689862Y-88361861D01*
X123596957Y-88210254D01*
X123587981Y-88192637D01*
X123566766Y-88141420D01*
X123519937Y-88028365D01*
X123513829Y-88009566D01*
X123507647Y-87983814D01*
X123472319Y-87836661D01*
X123469229Y-87817154D01*
X123454887Y-87634929D01*
X123454500Y-87625044D01*
X123454500Y-87376000D01*
X135335678Y-87376000D01*
X135354924Y-87583696D01*
X135412006Y-87784319D01*
X135504981Y-87971038D01*
X135508489Y-87975684D01*
X135508492Y-87975688D01*
X135627169Y-88132842D01*
X135627173Y-88132846D01*
X135630682Y-88137493D01*
X135784829Y-88278016D01*
X135962172Y-88387823D01*
X135967602Y-88389926D01*
X135967605Y-88389928D01*
X136023034Y-88411401D01*
X136156673Y-88463173D01*
X136361707Y-88501500D01*
X136564465Y-88501500D01*
X136570293Y-88501500D01*
X136775327Y-88463173D01*
X136959046Y-88392000D01*
X138605482Y-88392000D01*
X138606560Y-88400188D01*
X138622412Y-88520601D01*
X138625467Y-88543802D01*
X138628623Y-88551422D01*
X138628625Y-88551428D01*
X138669024Y-88648957D01*
X138684061Y-88685259D01*
X138689084Y-88691806D01*
X138689087Y-88691810D01*
X138744097Y-88763500D01*
X138777269Y-88806731D01*
X138783814Y-88811753D01*
X138892189Y-88894912D01*
X138892191Y-88894913D01*
X138898741Y-88899939D01*
X138998780Y-88941377D01*
X139032571Y-88955374D01*
X139032572Y-88955374D01*
X139040198Y-88958533D01*
X139192000Y-88978518D01*
X139343802Y-88958533D01*
X139485259Y-88899939D01*
X139606731Y-88806731D01*
X139699939Y-88685259D01*
X139758533Y-88543802D01*
X139778518Y-88392000D01*
X140383482Y-88392000D01*
X140384560Y-88400188D01*
X140400412Y-88520601D01*
X140403467Y-88543802D01*
X140406623Y-88551422D01*
X140406625Y-88551428D01*
X140447024Y-88648957D01*
X140462061Y-88685259D01*
X140467084Y-88691806D01*
X140467087Y-88691810D01*
X140522097Y-88763500D01*
X140555269Y-88806731D01*
X140561814Y-88811753D01*
X140670189Y-88894912D01*
X140670191Y-88894913D01*
X140676741Y-88899939D01*
X140776780Y-88941377D01*
X140810571Y-88955374D01*
X140810572Y-88955374D01*
X140818198Y-88958533D01*
X140970000Y-88978518D01*
X141121802Y-88958533D01*
X141263259Y-88899939D01*
X141384731Y-88806731D01*
X141477939Y-88685259D01*
X141536533Y-88543802D01*
X141556518Y-88392000D01*
X141536533Y-88240198D01*
X141477939Y-88098741D01*
X141384731Y-87977269D01*
X141369814Y-87965823D01*
X141269810Y-87889087D01*
X141269806Y-87889084D01*
X141263259Y-87884061D01*
X141246119Y-87876961D01*
X141129428Y-87828625D01*
X141129422Y-87828623D01*
X141121802Y-87825467D01*
X141113618Y-87824389D01*
X141113616Y-87824389D01*
X140978188Y-87806560D01*
X140970000Y-87805482D01*
X140961812Y-87806560D01*
X140826383Y-87824389D01*
X140826379Y-87824389D01*
X140818198Y-87825467D01*
X140810579Y-87828622D01*
X140810571Y-87828625D01*
X140684369Y-87880901D01*
X140684366Y-87880902D01*
X140676741Y-87884061D01*
X140670196Y-87889082D01*
X140670189Y-87889087D01*
X140561814Y-87972246D01*
X140561810Y-87972249D01*
X140555269Y-87977269D01*
X140550249Y-87983810D01*
X140550246Y-87983814D01*
X140467087Y-88092189D01*
X140467082Y-88092196D01*
X140462061Y-88098741D01*
X140458902Y-88106366D01*
X140458901Y-88106369D01*
X140406625Y-88232571D01*
X140406622Y-88232579D01*
X140403467Y-88240198D01*
X140402389Y-88248379D01*
X140402389Y-88248383D01*
X140395445Y-88301129D01*
X140383482Y-88392000D01*
X139778518Y-88392000D01*
X139758533Y-88240198D01*
X139699939Y-88098741D01*
X139606731Y-87977269D01*
X139591814Y-87965823D01*
X139491810Y-87889087D01*
X139491806Y-87889084D01*
X139485259Y-87884061D01*
X139468119Y-87876961D01*
X139351428Y-87828625D01*
X139351422Y-87828623D01*
X139343802Y-87825467D01*
X139335618Y-87824389D01*
X139335616Y-87824389D01*
X139200188Y-87806560D01*
X139192000Y-87805482D01*
X139183812Y-87806560D01*
X139048383Y-87824389D01*
X139048379Y-87824389D01*
X139040198Y-87825467D01*
X139032579Y-87828622D01*
X139032571Y-87828625D01*
X138906369Y-87880901D01*
X138906366Y-87880902D01*
X138898741Y-87884061D01*
X138892196Y-87889082D01*
X138892189Y-87889087D01*
X138783814Y-87972246D01*
X138783810Y-87972249D01*
X138777269Y-87977269D01*
X138772249Y-87983810D01*
X138772246Y-87983814D01*
X138689087Y-88092189D01*
X138689082Y-88092196D01*
X138684061Y-88098741D01*
X138680902Y-88106366D01*
X138680901Y-88106369D01*
X138628625Y-88232571D01*
X138628622Y-88232579D01*
X138625467Y-88240198D01*
X138624389Y-88248379D01*
X138624389Y-88248383D01*
X138617445Y-88301129D01*
X138605482Y-88392000D01*
X136959046Y-88392000D01*
X136969828Y-88387823D01*
X137147171Y-88278016D01*
X137301318Y-88137493D01*
X137427019Y-87971038D01*
X137519994Y-87784319D01*
X137577076Y-87583696D01*
X137596322Y-87376000D01*
X137577076Y-87168304D01*
X137519994Y-86967681D01*
X137470359Y-86868000D01*
X140383482Y-86868000D01*
X140403467Y-87019802D01*
X140406623Y-87027422D01*
X140406625Y-87027428D01*
X140454961Y-87144119D01*
X140462061Y-87161259D01*
X140467084Y-87167806D01*
X140467087Y-87167810D01*
X140550246Y-87276185D01*
X140555269Y-87282731D01*
X140561814Y-87287753D01*
X140670189Y-87370912D01*
X140670191Y-87370913D01*
X140676741Y-87375939D01*
X140776780Y-87417377D01*
X140810571Y-87431374D01*
X140810572Y-87431374D01*
X140818198Y-87434533D01*
X140970000Y-87454518D01*
X141121802Y-87434533D01*
X141263259Y-87375939D01*
X141384731Y-87282731D01*
X141477939Y-87161259D01*
X141536533Y-87019802D01*
X141556518Y-86868000D01*
X141536533Y-86716198D01*
X141477939Y-86574741D01*
X141384731Y-86453269D01*
X141378185Y-86448246D01*
X141269810Y-86365087D01*
X141269806Y-86365084D01*
X141263259Y-86360061D01*
X141246119Y-86352961D01*
X141129428Y-86304625D01*
X141129422Y-86304623D01*
X141121802Y-86301467D01*
X141113618Y-86300389D01*
X141113616Y-86300389D01*
X140978188Y-86282560D01*
X140970000Y-86281482D01*
X140961812Y-86282560D01*
X140826383Y-86300389D01*
X140826379Y-86300389D01*
X140818198Y-86301467D01*
X140810579Y-86304622D01*
X140810571Y-86304625D01*
X140684369Y-86356901D01*
X140684366Y-86356902D01*
X140676741Y-86360061D01*
X140670196Y-86365082D01*
X140670189Y-86365087D01*
X140561814Y-86448246D01*
X140561810Y-86448249D01*
X140555269Y-86453269D01*
X140550249Y-86459810D01*
X140550246Y-86459814D01*
X140467087Y-86568189D01*
X140467082Y-86568196D01*
X140462061Y-86574741D01*
X140458902Y-86582366D01*
X140458901Y-86582369D01*
X140406625Y-86708571D01*
X140406622Y-86708579D01*
X140403467Y-86716198D01*
X140402389Y-86724379D01*
X140402389Y-86724383D01*
X140394254Y-86786176D01*
X140383482Y-86868000D01*
X137470359Y-86868000D01*
X137427019Y-86780962D01*
X137384293Y-86724383D01*
X137304830Y-86619157D01*
X137304827Y-86619153D01*
X137301318Y-86614507D01*
X137147171Y-86473984D01*
X136969828Y-86364177D01*
X136964401Y-86362074D01*
X136964394Y-86362071D01*
X136780753Y-86290929D01*
X136780752Y-86290928D01*
X136775327Y-86288827D01*
X136769608Y-86287758D01*
X136769605Y-86287757D01*
X136576019Y-86251570D01*
X136576015Y-86251569D01*
X136570293Y-86250500D01*
X136361707Y-86250500D01*
X136355985Y-86251569D01*
X136355980Y-86251570D01*
X136162394Y-86287757D01*
X136162388Y-86287758D01*
X136156673Y-86288827D01*
X136151250Y-86290927D01*
X136151246Y-86290929D01*
X135967605Y-86362071D01*
X135967593Y-86362076D01*
X135962172Y-86364177D01*
X135957221Y-86367242D01*
X135957216Y-86367245D01*
X135789778Y-86470919D01*
X135789772Y-86470922D01*
X135784829Y-86473984D01*
X135780528Y-86477904D01*
X135780525Y-86477907D01*
X135634990Y-86610579D01*
X135634985Y-86610583D01*
X135630682Y-86614507D01*
X135627177Y-86619147D01*
X135627169Y-86619157D01*
X135508492Y-86776311D01*
X135508486Y-86776320D01*
X135504981Y-86780962D01*
X135502387Y-86786169D01*
X135502384Y-86786176D01*
X135465718Y-86859812D01*
X135412006Y-86967681D01*
X135410411Y-86973283D01*
X135410411Y-86973286D01*
X135395007Y-87027428D01*
X135354924Y-87168304D01*
X135335678Y-87376000D01*
X123454500Y-87376000D01*
X123454500Y-79248000D01*
X142240000Y-79248000D01*
X142240000Y-82296000D01*
X145271410Y-82296000D01*
X145288000Y-82296000D01*
X145288000Y-80010000D01*
X146225482Y-80010000D01*
X146245467Y-80161802D01*
X146248623Y-80169422D01*
X146248625Y-80169428D01*
X146287799Y-80264000D01*
X146304061Y-80303259D01*
X146309084Y-80309806D01*
X146309087Y-80309810D01*
X146392246Y-80418185D01*
X146397269Y-80424731D01*
X146403814Y-80429753D01*
X146512189Y-80512912D01*
X146512191Y-80512913D01*
X146518741Y-80517939D01*
X146618780Y-80559377D01*
X146652571Y-80573374D01*
X146652572Y-80573374D01*
X146660198Y-80576533D01*
X146812000Y-80596518D01*
X146963802Y-80576533D01*
X147105259Y-80517939D01*
X147226731Y-80424731D01*
X147319939Y-80303259D01*
X147378533Y-80161802D01*
X147398518Y-80010000D01*
X147378533Y-79858198D01*
X147362296Y-79819000D01*
X147343193Y-79772881D01*
X147319939Y-79716741D01*
X147226731Y-79595269D01*
X147220185Y-79590246D01*
X147111810Y-79507087D01*
X147111806Y-79507084D01*
X147105259Y-79502061D01*
X147088119Y-79494961D01*
X146971428Y-79446625D01*
X146971422Y-79446623D01*
X146963802Y-79443467D01*
X146955618Y-79442389D01*
X146955616Y-79442389D01*
X146820188Y-79424560D01*
X146812000Y-79423482D01*
X146803812Y-79424560D01*
X146668383Y-79442389D01*
X146668379Y-79442389D01*
X146660198Y-79443467D01*
X146652579Y-79446622D01*
X146652571Y-79446625D01*
X146526369Y-79498901D01*
X146526366Y-79498902D01*
X146518741Y-79502061D01*
X146512196Y-79507082D01*
X146512189Y-79507087D01*
X146403814Y-79590246D01*
X146403810Y-79590249D01*
X146397269Y-79595269D01*
X146392249Y-79601810D01*
X146392246Y-79601814D01*
X146309087Y-79710189D01*
X146309082Y-79710196D01*
X146304061Y-79716741D01*
X146300902Y-79724366D01*
X146300901Y-79724369D01*
X146248625Y-79850571D01*
X146248622Y-79850579D01*
X146245467Y-79858198D01*
X146225482Y-80010000D01*
X145288000Y-80010000D01*
X145288000Y-79248000D01*
X142240000Y-79248000D01*
X123454500Y-79248000D01*
X123454500Y-77910000D01*
X123837678Y-77910000D01*
X123856924Y-78117696D01*
X123914006Y-78318319D01*
X124006981Y-78505038D01*
X124010489Y-78509684D01*
X124010492Y-78509688D01*
X124129169Y-78666842D01*
X124129173Y-78666846D01*
X124132682Y-78671493D01*
X124286829Y-78812016D01*
X124464172Y-78921823D01*
X124469602Y-78923926D01*
X124469605Y-78923928D01*
X124525034Y-78945401D01*
X124658673Y-78997173D01*
X124863707Y-79035500D01*
X125066465Y-79035500D01*
X125072293Y-79035500D01*
X125277327Y-78997173D01*
X125471828Y-78921823D01*
X125649171Y-78812016D01*
X125803318Y-78671493D01*
X125929019Y-78505038D01*
X126021994Y-78318319D01*
X126079076Y-78117696D01*
X126098322Y-77910000D01*
X126079076Y-77702304D01*
X126021994Y-77501681D01*
X125929019Y-77314962D01*
X125803318Y-77148507D01*
X125649171Y-77007984D01*
X125471828Y-76898177D01*
X125466401Y-76896074D01*
X125466394Y-76896071D01*
X125282753Y-76824929D01*
X125282752Y-76824928D01*
X125277327Y-76822827D01*
X125271608Y-76821758D01*
X125271605Y-76821757D01*
X125078019Y-76785570D01*
X125078015Y-76785569D01*
X125072293Y-76784500D01*
X124863707Y-76784500D01*
X124857985Y-76785569D01*
X124857980Y-76785570D01*
X124664394Y-76821757D01*
X124664388Y-76821758D01*
X124658673Y-76822827D01*
X124653250Y-76824927D01*
X124653246Y-76824929D01*
X124469605Y-76896071D01*
X124469593Y-76896076D01*
X124464172Y-76898177D01*
X124459221Y-76901242D01*
X124459216Y-76901245D01*
X124291778Y-77004919D01*
X124291772Y-77004922D01*
X124286829Y-77007984D01*
X124282528Y-77011904D01*
X124282525Y-77011907D01*
X124136990Y-77144579D01*
X124136985Y-77144583D01*
X124132682Y-77148507D01*
X124129177Y-77153147D01*
X124129169Y-77153157D01*
X124010492Y-77310311D01*
X124010486Y-77310320D01*
X124006981Y-77314962D01*
X124004387Y-77320169D01*
X124004384Y-77320176D01*
X123916602Y-77496467D01*
X123914006Y-77501681D01*
X123856924Y-77702304D01*
X123837678Y-77910000D01*
X123454500Y-77910000D01*
X123454500Y-76454000D01*
X139875482Y-76454000D01*
X139895467Y-76605802D01*
X139898623Y-76613422D01*
X139898625Y-76613428D01*
X139933817Y-76698387D01*
X139954061Y-76747259D01*
X139959084Y-76753806D01*
X139959087Y-76753810D01*
X140039969Y-76859218D01*
X140047269Y-76868731D01*
X140053814Y-76873753D01*
X140162189Y-76956912D01*
X140162191Y-76956913D01*
X140168741Y-76961939D01*
X140268780Y-77003377D01*
X140302571Y-77017374D01*
X140302572Y-77017374D01*
X140310198Y-77020533D01*
X140462000Y-77040518D01*
X140613802Y-77020533D01*
X140755259Y-76961939D01*
X140876731Y-76868731D01*
X140969939Y-76747259D01*
X141028533Y-76605802D01*
X141048518Y-76454000D01*
X145619196Y-76454000D01*
X145640281Y-76587126D01*
X145644779Y-76595955D01*
X145644781Y-76595959D01*
X145696971Y-76698387D01*
X145701472Y-76707220D01*
X145796780Y-76802528D01*
X145916874Y-76863719D01*
X146050000Y-76884804D01*
X146183126Y-76863719D01*
X146303220Y-76802528D01*
X146398528Y-76707220D01*
X146459719Y-76587126D01*
X146480804Y-76454000D01*
X146459719Y-76320874D01*
X146398528Y-76200780D01*
X146303220Y-76105472D01*
X146294388Y-76100972D01*
X146294387Y-76100971D01*
X146191959Y-76048781D01*
X146191955Y-76048779D01*
X146183126Y-76044281D01*
X146173334Y-76042730D01*
X146059793Y-76024747D01*
X146050000Y-76023196D01*
X146040207Y-76024747D01*
X145926665Y-76042730D01*
X145926663Y-76042730D01*
X145916874Y-76044281D01*
X145908046Y-76048778D01*
X145908040Y-76048781D01*
X145805612Y-76100971D01*
X145805608Y-76100973D01*
X145796780Y-76105472D01*
X145789771Y-76112480D01*
X145789768Y-76112483D01*
X145708483Y-76193768D01*
X145708480Y-76193771D01*
X145701472Y-76200780D01*
X145696973Y-76209608D01*
X145696971Y-76209612D01*
X145644781Y-76312040D01*
X145644778Y-76312046D01*
X145640281Y-76320874D01*
X145638730Y-76330663D01*
X145638730Y-76330665D01*
X145620747Y-76444207D01*
X145619196Y-76454000D01*
X141048518Y-76454000D01*
X141028533Y-76302198D01*
X141022451Y-76287516D01*
X140990182Y-76209612D01*
X140969939Y-76160741D01*
X140950563Y-76135490D01*
X140881753Y-76045814D01*
X140876731Y-76039269D01*
X140870185Y-76034246D01*
X140761810Y-75951087D01*
X140761806Y-75951084D01*
X140755259Y-75946061D01*
X140731470Y-75936207D01*
X140621428Y-75890625D01*
X140621422Y-75890623D01*
X140613802Y-75887467D01*
X140605618Y-75886389D01*
X140605616Y-75886389D01*
X140470188Y-75868560D01*
X140462000Y-75867482D01*
X140453812Y-75868560D01*
X140318383Y-75886389D01*
X140318379Y-75886389D01*
X140310198Y-75887467D01*
X140302579Y-75890622D01*
X140302571Y-75890625D01*
X140176369Y-75942901D01*
X140176366Y-75942902D01*
X140168741Y-75946061D01*
X140162196Y-75951082D01*
X140162189Y-75951087D01*
X140053814Y-76034246D01*
X140053810Y-76034249D01*
X140047269Y-76039269D01*
X140042249Y-76045810D01*
X140042246Y-76045814D01*
X139959087Y-76154189D01*
X139959082Y-76154196D01*
X139954061Y-76160741D01*
X139950902Y-76168366D01*
X139950901Y-76168369D01*
X139898625Y-76294571D01*
X139898622Y-76294579D01*
X139895467Y-76302198D01*
X139875482Y-76454000D01*
X123454500Y-76454000D01*
X123454500Y-75946000D01*
X130125196Y-75946000D01*
X130146281Y-76079126D01*
X130150779Y-76087955D01*
X130150781Y-76087959D01*
X130202971Y-76190387D01*
X130207472Y-76199220D01*
X130302780Y-76294528D01*
X130422874Y-76355719D01*
X130556000Y-76376804D01*
X130689126Y-76355719D01*
X130809220Y-76294528D01*
X130904528Y-76199220D01*
X130965719Y-76079126D01*
X130986804Y-75946000D01*
X135713196Y-75946000D01*
X135734281Y-76079126D01*
X135738779Y-76087955D01*
X135738781Y-76087959D01*
X135790971Y-76190387D01*
X135795472Y-76199220D01*
X135890780Y-76294528D01*
X136010874Y-76355719D01*
X136144000Y-76376804D01*
X136277126Y-76355719D01*
X136397220Y-76294528D01*
X136435905Y-76255842D01*
X136492389Y-76223231D01*
X136557611Y-76223231D01*
X136614095Y-76255843D01*
X136652780Y-76294528D01*
X136772874Y-76355719D01*
X136906000Y-76376804D01*
X137039126Y-76355719D01*
X137159220Y-76294528D01*
X137254528Y-76199220D01*
X137315719Y-76079126D01*
X137336804Y-75946000D01*
X137315719Y-75812874D01*
X137254528Y-75692780D01*
X137159220Y-75597472D01*
X137150388Y-75592972D01*
X137150387Y-75592971D01*
X137047959Y-75540781D01*
X137047955Y-75540779D01*
X137039126Y-75536281D01*
X137029334Y-75534730D01*
X136915793Y-75516747D01*
X136906000Y-75515196D01*
X136896207Y-75516747D01*
X136782665Y-75534730D01*
X136782663Y-75534730D01*
X136772874Y-75536281D01*
X136764046Y-75540778D01*
X136764040Y-75540781D01*
X136661612Y-75592971D01*
X136661608Y-75592973D01*
X136652780Y-75597472D01*
X136645771Y-75604480D01*
X136645768Y-75604483D01*
X136614095Y-75636157D01*
X136557611Y-75668769D01*
X136492389Y-75668769D01*
X136435905Y-75636157D01*
X136404231Y-75604483D01*
X136397220Y-75597472D01*
X136388388Y-75592972D01*
X136388387Y-75592971D01*
X136285959Y-75540781D01*
X136285955Y-75540779D01*
X136277126Y-75536281D01*
X136267334Y-75534730D01*
X136153793Y-75516747D01*
X136144000Y-75515196D01*
X136134207Y-75516747D01*
X136020665Y-75534730D01*
X136020663Y-75534730D01*
X136010874Y-75536281D01*
X136002046Y-75540778D01*
X136002040Y-75540781D01*
X135899612Y-75592971D01*
X135899608Y-75592973D01*
X135890780Y-75597472D01*
X135883771Y-75604480D01*
X135883768Y-75604483D01*
X135802483Y-75685768D01*
X135802480Y-75685771D01*
X135795472Y-75692780D01*
X135790973Y-75701608D01*
X135790971Y-75701612D01*
X135738781Y-75804040D01*
X135738778Y-75804046D01*
X135734281Y-75812874D01*
X135732730Y-75822663D01*
X135732730Y-75822665D01*
X135714747Y-75936207D01*
X135713196Y-75946000D01*
X130986804Y-75946000D01*
X130965719Y-75812874D01*
X130904528Y-75692780D01*
X130809220Y-75597472D01*
X130800388Y-75592972D01*
X130800387Y-75592971D01*
X130697959Y-75540781D01*
X130697955Y-75540779D01*
X130689126Y-75536281D01*
X130679334Y-75534730D01*
X130565793Y-75516747D01*
X130556000Y-75515196D01*
X130546207Y-75516747D01*
X130432665Y-75534730D01*
X130432663Y-75534730D01*
X130422874Y-75536281D01*
X130414046Y-75540778D01*
X130414040Y-75540781D01*
X130311612Y-75592971D01*
X130311608Y-75592973D01*
X130302780Y-75597472D01*
X130295771Y-75604480D01*
X130295768Y-75604483D01*
X130214483Y-75685768D01*
X130214480Y-75685771D01*
X130207472Y-75692780D01*
X130202973Y-75701608D01*
X130202971Y-75701612D01*
X130150781Y-75804040D01*
X130150778Y-75804046D01*
X130146281Y-75812874D01*
X130144730Y-75822663D01*
X130144730Y-75822665D01*
X130126747Y-75936207D01*
X130125196Y-75946000D01*
X123454500Y-75946000D01*
X123454500Y-75184000D01*
X133173196Y-75184000D01*
X133194281Y-75317126D01*
X133198779Y-75325955D01*
X133198781Y-75325959D01*
X133250971Y-75428387D01*
X133255472Y-75437220D01*
X133350780Y-75532528D01*
X133470874Y-75593719D01*
X133604000Y-75614804D01*
X133737126Y-75593719D01*
X133857220Y-75532528D01*
X133905228Y-75484520D01*
X133961712Y-75451908D01*
X134026934Y-75451908D01*
X134083418Y-75484520D01*
X134131426Y-75532528D01*
X134251520Y-75593719D01*
X134384646Y-75614804D01*
X134517772Y-75593719D01*
X134637866Y-75532528D01*
X134733174Y-75437220D01*
X134794365Y-75317126D01*
X134815450Y-75184000D01*
X134794365Y-75050874D01*
X134733174Y-74930780D01*
X134637866Y-74835472D01*
X134629034Y-74830972D01*
X134629033Y-74830971D01*
X134526605Y-74778781D01*
X134526601Y-74778779D01*
X134517772Y-74774281D01*
X134507980Y-74772730D01*
X134394439Y-74754747D01*
X134384646Y-74753196D01*
X134374853Y-74754747D01*
X134261311Y-74772730D01*
X134261309Y-74772730D01*
X134251520Y-74774281D01*
X134242692Y-74778778D01*
X134242686Y-74778781D01*
X134140258Y-74830971D01*
X134140254Y-74830973D01*
X134131426Y-74835472D01*
X134124417Y-74842480D01*
X134124414Y-74842483D01*
X134083418Y-74883480D01*
X134026934Y-74916092D01*
X133961712Y-74916092D01*
X133905228Y-74883480D01*
X133864231Y-74842483D01*
X133857220Y-74835472D01*
X133848388Y-74830972D01*
X133848387Y-74830971D01*
X133745959Y-74778781D01*
X133745955Y-74778779D01*
X133737126Y-74774281D01*
X133727334Y-74772730D01*
X133613793Y-74754747D01*
X133604000Y-74753196D01*
X133594207Y-74754747D01*
X133480665Y-74772730D01*
X133480663Y-74772730D01*
X133470874Y-74774281D01*
X133462046Y-74778778D01*
X133462040Y-74778781D01*
X133359612Y-74830971D01*
X133359608Y-74830973D01*
X133350780Y-74835472D01*
X133343771Y-74842480D01*
X133343768Y-74842483D01*
X133262483Y-74923768D01*
X133262480Y-74923771D01*
X133255472Y-74930780D01*
X133250973Y-74939608D01*
X133250971Y-74939612D01*
X133198781Y-75042040D01*
X133198778Y-75042046D01*
X133194281Y-75050874D01*
X133192730Y-75060663D01*
X133192730Y-75060665D01*
X133174747Y-75174207D01*
X133173196Y-75184000D01*
X123454500Y-75184000D01*
X123454500Y-74676000D01*
X127077196Y-74676000D01*
X127098281Y-74809126D01*
X127102779Y-74817955D01*
X127102781Y-74817959D01*
X127115277Y-74842483D01*
X127159472Y-74929220D01*
X127254780Y-75024528D01*
X127374874Y-75085719D01*
X127508000Y-75106804D01*
X127641126Y-75085719D01*
X127761220Y-75024528D01*
X127856528Y-74929220D01*
X127917719Y-74809126D01*
X127938804Y-74676000D01*
X127917719Y-74542874D01*
X127856528Y-74422780D01*
X127761220Y-74327472D01*
X127752388Y-74322972D01*
X127752387Y-74322971D01*
X127649959Y-74270781D01*
X127649955Y-74270779D01*
X127641126Y-74266281D01*
X127631334Y-74264730D01*
X127517793Y-74246747D01*
X127508000Y-74245196D01*
X127498207Y-74246747D01*
X127384665Y-74264730D01*
X127384663Y-74264730D01*
X127374874Y-74266281D01*
X127366046Y-74270778D01*
X127366040Y-74270781D01*
X127263612Y-74322971D01*
X127263608Y-74322973D01*
X127254780Y-74327472D01*
X127247771Y-74334480D01*
X127247768Y-74334483D01*
X127166483Y-74415768D01*
X127166480Y-74415771D01*
X127159472Y-74422780D01*
X127154973Y-74431608D01*
X127154971Y-74431612D01*
X127102781Y-74534040D01*
X127102778Y-74534046D01*
X127098281Y-74542874D01*
X127077196Y-74676000D01*
X123454500Y-74676000D01*
X123454500Y-73914000D01*
X140539196Y-73914000D01*
X140560281Y-74047126D01*
X140564779Y-74055955D01*
X140564781Y-74055959D01*
X140616971Y-74158387D01*
X140621472Y-74167220D01*
X140716780Y-74262528D01*
X140836874Y-74323719D01*
X140970000Y-74344804D01*
X141103126Y-74323719D01*
X141223220Y-74262528D01*
X141318528Y-74167220D01*
X141379719Y-74047126D01*
X141400804Y-73914000D01*
X141379719Y-73780874D01*
X141318528Y-73660780D01*
X141223220Y-73565472D01*
X141214388Y-73560972D01*
X141214387Y-73560971D01*
X141111959Y-73508781D01*
X141111955Y-73508779D01*
X141103126Y-73504281D01*
X141093334Y-73502730D01*
X140979793Y-73484747D01*
X140970000Y-73483196D01*
X140960207Y-73484747D01*
X140846665Y-73502730D01*
X140846663Y-73502730D01*
X140836874Y-73504281D01*
X140828046Y-73508778D01*
X140828040Y-73508781D01*
X140725612Y-73560971D01*
X140725608Y-73560973D01*
X140716780Y-73565472D01*
X140709771Y-73572480D01*
X140709768Y-73572483D01*
X140628483Y-73653768D01*
X140628480Y-73653771D01*
X140621472Y-73660780D01*
X140616973Y-73669608D01*
X140616971Y-73669612D01*
X140564781Y-73772040D01*
X140564778Y-73772046D01*
X140560281Y-73780874D01*
X140539196Y-73914000D01*
X123454500Y-73914000D01*
X123454500Y-72644000D01*
X125807196Y-72644000D01*
X125828281Y-72777126D01*
X125832779Y-72785955D01*
X125832781Y-72785959D01*
X125884971Y-72888387D01*
X125889472Y-72897220D01*
X125984780Y-72992528D01*
X126104874Y-73053719D01*
X126238000Y-73074804D01*
X126371126Y-73053719D01*
X126491220Y-72992528D01*
X126586528Y-72897220D01*
X126647719Y-72777126D01*
X126668804Y-72644000D01*
X126647719Y-72510874D01*
X126586528Y-72390780D01*
X126491220Y-72295472D01*
X126482388Y-72290972D01*
X126482387Y-72290971D01*
X126379959Y-72238781D01*
X126379955Y-72238779D01*
X126371126Y-72234281D01*
X126361334Y-72232730D01*
X126247793Y-72214747D01*
X126238000Y-72213196D01*
X126228207Y-72214747D01*
X126114665Y-72232730D01*
X126114663Y-72232730D01*
X126104874Y-72234281D01*
X126096046Y-72238778D01*
X126096040Y-72238781D01*
X125993612Y-72290971D01*
X125993608Y-72290973D01*
X125984780Y-72295472D01*
X125977771Y-72302480D01*
X125977768Y-72302483D01*
X125896483Y-72383768D01*
X125896480Y-72383771D01*
X125889472Y-72390780D01*
X125884973Y-72399608D01*
X125884971Y-72399612D01*
X125832781Y-72502040D01*
X125832778Y-72502046D01*
X125828281Y-72510874D01*
X125807196Y-72644000D01*
X123454500Y-72644000D01*
X123454500Y-67314956D01*
X123454888Y-67305071D01*
X123461943Y-67215428D01*
X123469229Y-67122845D01*
X123472318Y-67103340D01*
X123483683Y-67056000D01*
X137745196Y-67056000D01*
X137766281Y-67189126D01*
X137770779Y-67197955D01*
X137770781Y-67197959D01*
X137822971Y-67300387D01*
X137827472Y-67309220D01*
X137922780Y-67404528D01*
X138042874Y-67465719D01*
X138176000Y-67486804D01*
X138309126Y-67465719D01*
X138429220Y-67404528D01*
X138524528Y-67309220D01*
X138585719Y-67189126D01*
X138606804Y-67056000D01*
X139269196Y-67056000D01*
X139290281Y-67189126D01*
X139294779Y-67197955D01*
X139294781Y-67197959D01*
X139346971Y-67300387D01*
X139351472Y-67309220D01*
X139446780Y-67404528D01*
X139566874Y-67465719D01*
X139700000Y-67486804D01*
X139833126Y-67465719D01*
X139953220Y-67404528D01*
X140048528Y-67309220D01*
X140109719Y-67189126D01*
X140130804Y-67056000D01*
X162735482Y-67056000D01*
X162755467Y-67207802D01*
X162758623Y-67215422D01*
X162758625Y-67215428D01*
X162796934Y-67307912D01*
X162814061Y-67349259D01*
X162819084Y-67355806D01*
X162819087Y-67355810D01*
X162856470Y-67404528D01*
X162907269Y-67470731D01*
X162913814Y-67475753D01*
X163022189Y-67558912D01*
X163022191Y-67558913D01*
X163028741Y-67563939D01*
X163128780Y-67605377D01*
X163162571Y-67619374D01*
X163162572Y-67619374D01*
X163170198Y-67622533D01*
X163322000Y-67642518D01*
X163473802Y-67622533D01*
X163615259Y-67563939D01*
X163736731Y-67470731D01*
X163829939Y-67349259D01*
X163888533Y-67207802D01*
X163908518Y-67056000D01*
X166799482Y-67056000D01*
X166819467Y-67207802D01*
X166822623Y-67215422D01*
X166822625Y-67215428D01*
X166860934Y-67307912D01*
X166878061Y-67349259D01*
X166883084Y-67355806D01*
X166883087Y-67355810D01*
X166920470Y-67404528D01*
X166971269Y-67470731D01*
X166977814Y-67475753D01*
X167086189Y-67558912D01*
X167086191Y-67558913D01*
X167092741Y-67563939D01*
X167192780Y-67605377D01*
X167226571Y-67619374D01*
X167226572Y-67619374D01*
X167234198Y-67622533D01*
X167386000Y-67642518D01*
X167537802Y-67622533D01*
X167679259Y-67563939D01*
X167800731Y-67470731D01*
X167893939Y-67349259D01*
X167952533Y-67207802D01*
X167972518Y-67056000D01*
X167952533Y-66904198D01*
X167893939Y-66762741D01*
X167882138Y-66747362D01*
X167805753Y-66647814D01*
X167800731Y-66641269D01*
X167794185Y-66636246D01*
X167685810Y-66553087D01*
X167685806Y-66553084D01*
X167679259Y-66548061D01*
X167662119Y-66540961D01*
X167545428Y-66492625D01*
X167545422Y-66492623D01*
X167537802Y-66489467D01*
X167529618Y-66488389D01*
X167529616Y-66488389D01*
X167408541Y-66472449D01*
X167386000Y-66469482D01*
X167367515Y-66471915D01*
X167242383Y-66488389D01*
X167242379Y-66488389D01*
X167234198Y-66489467D01*
X167226579Y-66492622D01*
X167226571Y-66492625D01*
X167100369Y-66544901D01*
X167100366Y-66544902D01*
X167092741Y-66548061D01*
X167086196Y-66553082D01*
X167086189Y-66553087D01*
X166977814Y-66636246D01*
X166977810Y-66636249D01*
X166971269Y-66641269D01*
X166966249Y-66647810D01*
X166966246Y-66647814D01*
X166883087Y-66756189D01*
X166883082Y-66756196D01*
X166878061Y-66762741D01*
X166874902Y-66770366D01*
X166874901Y-66770369D01*
X166822625Y-66896571D01*
X166822622Y-66896579D01*
X166819467Y-66904198D01*
X166799482Y-67056000D01*
X163908518Y-67056000D01*
X163888533Y-66904198D01*
X163829939Y-66762741D01*
X163818138Y-66747362D01*
X163741753Y-66647814D01*
X163736731Y-66641269D01*
X163730185Y-66636246D01*
X163621810Y-66553087D01*
X163621806Y-66553084D01*
X163615259Y-66548061D01*
X163598119Y-66540961D01*
X163481428Y-66492625D01*
X163481422Y-66492623D01*
X163473802Y-66489467D01*
X163465618Y-66488389D01*
X163465616Y-66488389D01*
X163344541Y-66472449D01*
X163322000Y-66469482D01*
X163303515Y-66471915D01*
X163178383Y-66488389D01*
X163178379Y-66488389D01*
X163170198Y-66489467D01*
X163162579Y-66492622D01*
X163162571Y-66492625D01*
X163036369Y-66544901D01*
X163036366Y-66544902D01*
X163028741Y-66548061D01*
X163022196Y-66553082D01*
X163022189Y-66553087D01*
X162913814Y-66636246D01*
X162913810Y-66636249D01*
X162907269Y-66641269D01*
X162902249Y-66647810D01*
X162902246Y-66647814D01*
X162819087Y-66756189D01*
X162819082Y-66756196D01*
X162814061Y-66762741D01*
X162810902Y-66770366D01*
X162810901Y-66770369D01*
X162758625Y-66896571D01*
X162758622Y-66896579D01*
X162755467Y-66904198D01*
X162735482Y-67056000D01*
X140130804Y-67056000D01*
X140109719Y-66922874D01*
X140103989Y-66911629D01*
X140053028Y-66811612D01*
X140048528Y-66802780D01*
X139953220Y-66707472D01*
X139944388Y-66702972D01*
X139944387Y-66702971D01*
X139841959Y-66650781D01*
X139841955Y-66650779D01*
X139833126Y-66646281D01*
X139823334Y-66644730D01*
X139709793Y-66626747D01*
X139700000Y-66625196D01*
X139690207Y-66626747D01*
X139576665Y-66644730D01*
X139576663Y-66644730D01*
X139566874Y-66646281D01*
X139558046Y-66650778D01*
X139558040Y-66650781D01*
X139455612Y-66702971D01*
X139455608Y-66702973D01*
X139446780Y-66707472D01*
X139439771Y-66714480D01*
X139439768Y-66714483D01*
X139358483Y-66795768D01*
X139358480Y-66795771D01*
X139351472Y-66802780D01*
X139346973Y-66811608D01*
X139346971Y-66811612D01*
X139294781Y-66914040D01*
X139294778Y-66914046D01*
X139290281Y-66922874D01*
X139269196Y-67056000D01*
X138606804Y-67056000D01*
X138585719Y-66922874D01*
X138579989Y-66911629D01*
X138529028Y-66811612D01*
X138524528Y-66802780D01*
X138429220Y-66707472D01*
X138420388Y-66702972D01*
X138420387Y-66702971D01*
X138317959Y-66650781D01*
X138317955Y-66650779D01*
X138309126Y-66646281D01*
X138299334Y-66644730D01*
X138185793Y-66626747D01*
X138176000Y-66625196D01*
X138166207Y-66626747D01*
X138052665Y-66644730D01*
X138052663Y-66644730D01*
X138042874Y-66646281D01*
X138034046Y-66650778D01*
X138034040Y-66650781D01*
X137931612Y-66702971D01*
X137931608Y-66702973D01*
X137922780Y-66707472D01*
X137915771Y-66714480D01*
X137915768Y-66714483D01*
X137834483Y-66795768D01*
X137834480Y-66795771D01*
X137827472Y-66802780D01*
X137822973Y-66811608D01*
X137822971Y-66811612D01*
X137770781Y-66914040D01*
X137770778Y-66914046D01*
X137766281Y-66922874D01*
X137745196Y-67056000D01*
X123483683Y-67056000D01*
X123513831Y-66930424D01*
X123519935Y-66911638D01*
X123587983Y-66747356D01*
X123596953Y-66729750D01*
X123689864Y-66578134D01*
X123701481Y-66562145D01*
X123816960Y-66426937D01*
X123830939Y-66412959D01*
X123962926Y-66300231D01*
X123966145Y-66297481D01*
X123982134Y-66285864D01*
X124133750Y-66192953D01*
X124151356Y-66183983D01*
X124315638Y-66115935D01*
X124334424Y-66109831D01*
X124507340Y-66068318D01*
X124526845Y-66065229D01*
X124696793Y-66051854D01*
X124709071Y-66050888D01*
X124718956Y-66050500D01*
X135360537Y-66050500D01*
X135363863Y-66050500D01*
X135363949Y-66050511D01*
X135363949Y-66050522D01*
X135464728Y-66050525D01*
X135531186Y-66040000D01*
X138507196Y-66040000D01*
X138508747Y-66049793D01*
X138520391Y-66123314D01*
X138528281Y-66173126D01*
X138532779Y-66181955D01*
X138532781Y-66181959D01*
X138538385Y-66192957D01*
X138589472Y-66293220D01*
X138684780Y-66388528D01*
X138804874Y-66449719D01*
X138938000Y-66470804D01*
X139071126Y-66449719D01*
X139191220Y-66388528D01*
X139286528Y-66293220D01*
X139347719Y-66173126D01*
X139367137Y-66050524D01*
X139367253Y-66049793D01*
X139368804Y-66040000D01*
X139347719Y-65906874D01*
X139286528Y-65786780D01*
X139191220Y-65691472D01*
X139182388Y-65686972D01*
X139182387Y-65686971D01*
X139079959Y-65634781D01*
X139079955Y-65634779D01*
X139071126Y-65630281D01*
X139061334Y-65628730D01*
X138947793Y-65610747D01*
X138938000Y-65609196D01*
X138928207Y-65610747D01*
X138814665Y-65628730D01*
X138814663Y-65628730D01*
X138804874Y-65630281D01*
X138796046Y-65634778D01*
X138796040Y-65634781D01*
X138693612Y-65686971D01*
X138693608Y-65686973D01*
X138684780Y-65691472D01*
X138677771Y-65698480D01*
X138677768Y-65698483D01*
X138596483Y-65779768D01*
X138596480Y-65779771D01*
X138589472Y-65786780D01*
X138584973Y-65795608D01*
X138584971Y-65795612D01*
X138532781Y-65898040D01*
X138532778Y-65898046D01*
X138528281Y-65906874D01*
X138526730Y-65916663D01*
X138526730Y-65916665D01*
X138510406Y-66019734D01*
X138507196Y-66040000D01*
X135531186Y-66040000D01*
X135663805Y-66018997D01*
X135855498Y-65956711D01*
X136035085Y-65865199D01*
X136198142Y-65746716D01*
X136269399Y-65675450D01*
X136269424Y-65675425D01*
X141871956Y-60072891D01*
X141879187Y-60066205D01*
X142018197Y-59947464D01*
X142034173Y-59935855D01*
X142185789Y-59842935D01*
X142203401Y-59833960D01*
X142367685Y-59765908D01*
X142386468Y-59759804D01*
X142559387Y-59718290D01*
X142578896Y-59715201D01*
X142748604Y-59701850D01*
X142760840Y-59700888D01*
X142770721Y-59700500D01*
X149328998Y-59700500D01*
X149338889Y-59700889D01*
G37*
%TD.AperFunction*%
%TD*%
M02*
