%TF.GenerationSoftware,KiCad,Pcbnew,(7.0.0-0)*%
%TF.CreationDate,2023-07-09T10:24:43-07:00*%
%TF.ProjectId,Headlights_LEDs,48656164-6c69-4676-9874-735f4c454473,rev?*%
%TF.SameCoordinates,Original*%
%TF.FileFunction,Legend,Bot*%
%TF.FilePolarity,Positive*%
%FSLAX46Y46*%
G04 Gerber Fmt 4.6, Leading zero omitted, Abs format (unit mm)*
G04 Created by KiCad (PCBNEW (7.0.0-0)) date 2023-07-09 10:24:43*
%MOMM*%
%LPD*%
G01*
G04 APERTURE LIST*
%ADD10C,0.150000*%
G04 APERTURE END LIST*
D10*
X227091904Y-101586428D02*
X226330000Y-101586428D01*
X162214286Y-99347380D02*
X161880953Y-100347380D01*
X161880953Y-100347380D02*
X161547620Y-99347380D01*
X161214286Y-99823571D02*
X160880953Y-99823571D01*
X160738096Y-100347380D02*
X161214286Y-100347380D01*
X161214286Y-100347380D02*
X161214286Y-99347380D01*
X161214286Y-99347380D02*
X160738096Y-99347380D01*
X160357143Y-100299761D02*
X160214286Y-100347380D01*
X160214286Y-100347380D02*
X159976191Y-100347380D01*
X159976191Y-100347380D02*
X159880953Y-100299761D01*
X159880953Y-100299761D02*
X159833334Y-100252142D01*
X159833334Y-100252142D02*
X159785715Y-100156904D01*
X159785715Y-100156904D02*
X159785715Y-100061666D01*
X159785715Y-100061666D02*
X159833334Y-99966428D01*
X159833334Y-99966428D02*
X159880953Y-99918809D01*
X159880953Y-99918809D02*
X159976191Y-99871190D01*
X159976191Y-99871190D02*
X160166667Y-99823571D01*
X160166667Y-99823571D02*
X160261905Y-99775952D01*
X160261905Y-99775952D02*
X160309524Y-99728333D01*
X160309524Y-99728333D02*
X160357143Y-99633095D01*
X160357143Y-99633095D02*
X160357143Y-99537857D01*
X160357143Y-99537857D02*
X160309524Y-99442619D01*
X160309524Y-99442619D02*
X160261905Y-99395000D01*
X160261905Y-99395000D02*
X160166667Y-99347380D01*
X160166667Y-99347380D02*
X159928572Y-99347380D01*
X159928572Y-99347380D02*
X159785715Y-99395000D01*
X158785715Y-100252142D02*
X158833334Y-100299761D01*
X158833334Y-100299761D02*
X158976191Y-100347380D01*
X158976191Y-100347380D02*
X159071429Y-100347380D01*
X159071429Y-100347380D02*
X159214286Y-100299761D01*
X159214286Y-100299761D02*
X159309524Y-100204523D01*
X159309524Y-100204523D02*
X159357143Y-100109285D01*
X159357143Y-100109285D02*
X159404762Y-99918809D01*
X159404762Y-99918809D02*
X159404762Y-99775952D01*
X159404762Y-99775952D02*
X159357143Y-99585476D01*
X159357143Y-99585476D02*
X159309524Y-99490238D01*
X159309524Y-99490238D02*
X159214286Y-99395000D01*
X159214286Y-99395000D02*
X159071429Y-99347380D01*
X159071429Y-99347380D02*
X158976191Y-99347380D01*
X158976191Y-99347380D02*
X158833334Y-99395000D01*
X158833334Y-99395000D02*
X158785715Y-99442619D01*
X157566667Y-99347380D02*
X157376191Y-99347380D01*
X157376191Y-99347380D02*
X157280953Y-99395000D01*
X157280953Y-99395000D02*
X157185715Y-99490238D01*
X157185715Y-99490238D02*
X157138096Y-99680714D01*
X157138096Y-99680714D02*
X157138096Y-100014047D01*
X157138096Y-100014047D02*
X157185715Y-100204523D01*
X157185715Y-100204523D02*
X157280953Y-100299761D01*
X157280953Y-100299761D02*
X157376191Y-100347380D01*
X157376191Y-100347380D02*
X157566667Y-100347380D01*
X157566667Y-100347380D02*
X157661905Y-100299761D01*
X157661905Y-100299761D02*
X157757143Y-100204523D01*
X157757143Y-100204523D02*
X157804762Y-100014047D01*
X157804762Y-100014047D02*
X157804762Y-99680714D01*
X157804762Y-99680714D02*
X157757143Y-99490238D01*
X157757143Y-99490238D02*
X157661905Y-99395000D01*
X157661905Y-99395000D02*
X157566667Y-99347380D01*
X156709524Y-99680714D02*
X156709524Y-100347380D01*
X156709524Y-99775952D02*
X156661905Y-99728333D01*
X156661905Y-99728333D02*
X156566667Y-99680714D01*
X156566667Y-99680714D02*
X156423810Y-99680714D01*
X156423810Y-99680714D02*
X156328572Y-99728333D01*
X156328572Y-99728333D02*
X156280953Y-99823571D01*
X156280953Y-99823571D02*
X156280953Y-100347380D01*
X155423810Y-100299761D02*
X155519048Y-100347380D01*
X155519048Y-100347380D02*
X155709524Y-100347380D01*
X155709524Y-100347380D02*
X155804762Y-100299761D01*
X155804762Y-100299761D02*
X155852381Y-100204523D01*
X155852381Y-100204523D02*
X155852381Y-99823571D01*
X155852381Y-99823571D02*
X155804762Y-99728333D01*
X155804762Y-99728333D02*
X155709524Y-99680714D01*
X155709524Y-99680714D02*
X155519048Y-99680714D01*
X155519048Y-99680714D02*
X155423810Y-99728333D01*
X155423810Y-99728333D02*
X155376191Y-99823571D01*
X155376191Y-99823571D02*
X155376191Y-99918809D01*
X155376191Y-99918809D02*
X155852381Y-100014047D01*
X155042857Y-99680714D02*
X154852381Y-100347380D01*
X154852381Y-100347380D02*
X154661905Y-99871190D01*
X154661905Y-99871190D02*
X154471429Y-100347380D01*
X154471429Y-100347380D02*
X154280953Y-99680714D01*
X153900000Y-100347380D02*
X153900000Y-99347380D01*
X153471429Y-100347380D02*
X153471429Y-99823571D01*
X153471429Y-99823571D02*
X153519048Y-99728333D01*
X153519048Y-99728333D02*
X153614286Y-99680714D01*
X153614286Y-99680714D02*
X153757143Y-99680714D01*
X153757143Y-99680714D02*
X153852381Y-99728333D01*
X153852381Y-99728333D02*
X153900000Y-99775952D01*
X152614286Y-100299761D02*
X152709524Y-100347380D01*
X152709524Y-100347380D02*
X152900000Y-100347380D01*
X152900000Y-100347380D02*
X152995238Y-100299761D01*
X152995238Y-100299761D02*
X153042857Y-100204523D01*
X153042857Y-100204523D02*
X153042857Y-99823571D01*
X153042857Y-99823571D02*
X152995238Y-99728333D01*
X152995238Y-99728333D02*
X152900000Y-99680714D01*
X152900000Y-99680714D02*
X152709524Y-99680714D01*
X152709524Y-99680714D02*
X152614286Y-99728333D01*
X152614286Y-99728333D02*
X152566667Y-99823571D01*
X152566667Y-99823571D02*
X152566667Y-99918809D01*
X152566667Y-99918809D02*
X153042857Y-100014047D01*
X151757143Y-100299761D02*
X151852381Y-100347380D01*
X151852381Y-100347380D02*
X152042857Y-100347380D01*
X152042857Y-100347380D02*
X152138095Y-100299761D01*
X152138095Y-100299761D02*
X152185714Y-100204523D01*
X152185714Y-100204523D02*
X152185714Y-99823571D01*
X152185714Y-99823571D02*
X152138095Y-99728333D01*
X152138095Y-99728333D02*
X152042857Y-99680714D01*
X152042857Y-99680714D02*
X151852381Y-99680714D01*
X151852381Y-99680714D02*
X151757143Y-99728333D01*
X151757143Y-99728333D02*
X151709524Y-99823571D01*
X151709524Y-99823571D02*
X151709524Y-99918809D01*
X151709524Y-99918809D02*
X152185714Y-100014047D01*
X151138095Y-100347380D02*
X151233333Y-100299761D01*
X151233333Y-100299761D02*
X151280952Y-100204523D01*
X151280952Y-100204523D02*
X151280952Y-99347380D01*
X150157142Y-100347380D02*
X150157142Y-99347380D01*
X150157142Y-99823571D02*
X149585714Y-99823571D01*
X149585714Y-100347380D02*
X149585714Y-99347380D01*
X148728571Y-100299761D02*
X148823809Y-100347380D01*
X148823809Y-100347380D02*
X149014285Y-100347380D01*
X149014285Y-100347380D02*
X149109523Y-100299761D01*
X149109523Y-100299761D02*
X149157142Y-100204523D01*
X149157142Y-100204523D02*
X149157142Y-99823571D01*
X149157142Y-99823571D02*
X149109523Y-99728333D01*
X149109523Y-99728333D02*
X149014285Y-99680714D01*
X149014285Y-99680714D02*
X148823809Y-99680714D01*
X148823809Y-99680714D02*
X148728571Y-99728333D01*
X148728571Y-99728333D02*
X148680952Y-99823571D01*
X148680952Y-99823571D02*
X148680952Y-99918809D01*
X148680952Y-99918809D02*
X149157142Y-100014047D01*
X147823809Y-100347380D02*
X147823809Y-99823571D01*
X147823809Y-99823571D02*
X147871428Y-99728333D01*
X147871428Y-99728333D02*
X147966666Y-99680714D01*
X147966666Y-99680714D02*
X148157142Y-99680714D01*
X148157142Y-99680714D02*
X148252380Y-99728333D01*
X147823809Y-100299761D02*
X147919047Y-100347380D01*
X147919047Y-100347380D02*
X148157142Y-100347380D01*
X148157142Y-100347380D02*
X148252380Y-100299761D01*
X148252380Y-100299761D02*
X148299999Y-100204523D01*
X148299999Y-100204523D02*
X148299999Y-100109285D01*
X148299999Y-100109285D02*
X148252380Y-100014047D01*
X148252380Y-100014047D02*
X148157142Y-99966428D01*
X148157142Y-99966428D02*
X147919047Y-99966428D01*
X147919047Y-99966428D02*
X147823809Y-99918809D01*
X146919047Y-100347380D02*
X146919047Y-99347380D01*
X146919047Y-100299761D02*
X147014285Y-100347380D01*
X147014285Y-100347380D02*
X147204761Y-100347380D01*
X147204761Y-100347380D02*
X147299999Y-100299761D01*
X147299999Y-100299761D02*
X147347618Y-100252142D01*
X147347618Y-100252142D02*
X147395237Y-100156904D01*
X147395237Y-100156904D02*
X147395237Y-99871190D01*
X147395237Y-99871190D02*
X147347618Y-99775952D01*
X147347618Y-99775952D02*
X147299999Y-99728333D01*
X147299999Y-99728333D02*
X147204761Y-99680714D01*
X147204761Y-99680714D02*
X147014285Y-99680714D01*
X147014285Y-99680714D02*
X146919047Y-99728333D01*
X146299999Y-100347380D02*
X146395237Y-100299761D01*
X146395237Y-100299761D02*
X146442856Y-100204523D01*
X146442856Y-100204523D02*
X146442856Y-99347380D01*
X145919046Y-100347380D02*
X145919046Y-99680714D01*
X145919046Y-99347380D02*
X145966665Y-99395000D01*
X145966665Y-99395000D02*
X145919046Y-99442619D01*
X145919046Y-99442619D02*
X145871427Y-99395000D01*
X145871427Y-99395000D02*
X145919046Y-99347380D01*
X145919046Y-99347380D02*
X145919046Y-99442619D01*
X145014285Y-99680714D02*
X145014285Y-100490238D01*
X145014285Y-100490238D02*
X145061904Y-100585476D01*
X145061904Y-100585476D02*
X145109523Y-100633095D01*
X145109523Y-100633095D02*
X145204761Y-100680714D01*
X145204761Y-100680714D02*
X145347618Y-100680714D01*
X145347618Y-100680714D02*
X145442856Y-100633095D01*
X145014285Y-100299761D02*
X145109523Y-100347380D01*
X145109523Y-100347380D02*
X145299999Y-100347380D01*
X145299999Y-100347380D02*
X145395237Y-100299761D01*
X145395237Y-100299761D02*
X145442856Y-100252142D01*
X145442856Y-100252142D02*
X145490475Y-100156904D01*
X145490475Y-100156904D02*
X145490475Y-99871190D01*
X145490475Y-99871190D02*
X145442856Y-99775952D01*
X145442856Y-99775952D02*
X145395237Y-99728333D01*
X145395237Y-99728333D02*
X145299999Y-99680714D01*
X145299999Y-99680714D02*
X145109523Y-99680714D01*
X145109523Y-99680714D02*
X145014285Y-99728333D01*
X144538094Y-100347380D02*
X144538094Y-99347380D01*
X144109523Y-100347380D02*
X144109523Y-99823571D01*
X144109523Y-99823571D02*
X144157142Y-99728333D01*
X144157142Y-99728333D02*
X144252380Y-99680714D01*
X144252380Y-99680714D02*
X144395237Y-99680714D01*
X144395237Y-99680714D02*
X144490475Y-99728333D01*
X144490475Y-99728333D02*
X144538094Y-99775952D01*
X143776189Y-99680714D02*
X143395237Y-99680714D01*
X143633332Y-99347380D02*
X143633332Y-100204523D01*
X143633332Y-100204523D02*
X143585713Y-100299761D01*
X143585713Y-100299761D02*
X143490475Y-100347380D01*
X143490475Y-100347380D02*
X143395237Y-100347380D01*
X143109522Y-100299761D02*
X143014284Y-100347380D01*
X143014284Y-100347380D02*
X142823808Y-100347380D01*
X142823808Y-100347380D02*
X142728570Y-100299761D01*
X142728570Y-100299761D02*
X142680951Y-100204523D01*
X142680951Y-100204523D02*
X142680951Y-100156904D01*
X142680951Y-100156904D02*
X142728570Y-100061666D01*
X142728570Y-100061666D02*
X142823808Y-100014047D01*
X142823808Y-100014047D02*
X142966665Y-100014047D01*
X142966665Y-100014047D02*
X143061903Y-99966428D01*
X143061903Y-99966428D02*
X143109522Y-99871190D01*
X143109522Y-99871190D02*
X143109522Y-99823571D01*
X143109522Y-99823571D02*
X143061903Y-99728333D01*
X143061903Y-99728333D02*
X142966665Y-99680714D01*
X142966665Y-99680714D02*
X142823808Y-99680714D01*
X142823808Y-99680714D02*
X142728570Y-99728333D01*
X156366667Y-101967380D02*
X156842857Y-101967380D01*
X156842857Y-101967380D02*
X156842857Y-100967380D01*
X156033333Y-101443571D02*
X155700000Y-101443571D01*
X155557143Y-101967380D02*
X156033333Y-101967380D01*
X156033333Y-101967380D02*
X156033333Y-100967380D01*
X156033333Y-100967380D02*
X155557143Y-100967380D01*
X155128571Y-101967380D02*
X155128571Y-100967380D01*
X155128571Y-100967380D02*
X154890476Y-100967380D01*
X154890476Y-100967380D02*
X154747619Y-101015000D01*
X154747619Y-101015000D02*
X154652381Y-101110238D01*
X154652381Y-101110238D02*
X154604762Y-101205476D01*
X154604762Y-101205476D02*
X154557143Y-101395952D01*
X154557143Y-101395952D02*
X154557143Y-101538809D01*
X154557143Y-101538809D02*
X154604762Y-101729285D01*
X154604762Y-101729285D02*
X154652381Y-101824523D01*
X154652381Y-101824523D02*
X154747619Y-101919761D01*
X154747619Y-101919761D02*
X154890476Y-101967380D01*
X154890476Y-101967380D02*
X155128571Y-101967380D01*
X153528571Y-101967380D02*
X153528571Y-100967380D01*
X153528571Y-100967380D02*
X153195238Y-101681666D01*
X153195238Y-101681666D02*
X152861905Y-100967380D01*
X152861905Y-100967380D02*
X152861905Y-101967380D01*
X152242857Y-101967380D02*
X152338095Y-101919761D01*
X152338095Y-101919761D02*
X152385714Y-101872142D01*
X152385714Y-101872142D02*
X152433333Y-101776904D01*
X152433333Y-101776904D02*
X152433333Y-101491190D01*
X152433333Y-101491190D02*
X152385714Y-101395952D01*
X152385714Y-101395952D02*
X152338095Y-101348333D01*
X152338095Y-101348333D02*
X152242857Y-101300714D01*
X152242857Y-101300714D02*
X152100000Y-101300714D01*
X152100000Y-101300714D02*
X152004762Y-101348333D01*
X152004762Y-101348333D02*
X151957143Y-101395952D01*
X151957143Y-101395952D02*
X151909524Y-101491190D01*
X151909524Y-101491190D02*
X151909524Y-101776904D01*
X151909524Y-101776904D02*
X151957143Y-101872142D01*
X151957143Y-101872142D02*
X152004762Y-101919761D01*
X152004762Y-101919761D02*
X152100000Y-101967380D01*
X152100000Y-101967380D02*
X152242857Y-101967380D01*
X151052381Y-101967380D02*
X151052381Y-100967380D01*
X151052381Y-101919761D02*
X151147619Y-101967380D01*
X151147619Y-101967380D02*
X151338095Y-101967380D01*
X151338095Y-101967380D02*
X151433333Y-101919761D01*
X151433333Y-101919761D02*
X151480952Y-101872142D01*
X151480952Y-101872142D02*
X151528571Y-101776904D01*
X151528571Y-101776904D02*
X151528571Y-101491190D01*
X151528571Y-101491190D02*
X151480952Y-101395952D01*
X151480952Y-101395952D02*
X151433333Y-101348333D01*
X151433333Y-101348333D02*
X151338095Y-101300714D01*
X151338095Y-101300714D02*
X151147619Y-101300714D01*
X151147619Y-101300714D02*
X151052381Y-101348333D01*
X150147619Y-101300714D02*
X150147619Y-101967380D01*
X150576190Y-101300714D02*
X150576190Y-101824523D01*
X150576190Y-101824523D02*
X150528571Y-101919761D01*
X150528571Y-101919761D02*
X150433333Y-101967380D01*
X150433333Y-101967380D02*
X150290476Y-101967380D01*
X150290476Y-101967380D02*
X150195238Y-101919761D01*
X150195238Y-101919761D02*
X150147619Y-101872142D01*
X149528571Y-101967380D02*
X149623809Y-101919761D01*
X149623809Y-101919761D02*
X149671428Y-101824523D01*
X149671428Y-101824523D02*
X149671428Y-100967380D01*
X148766666Y-101919761D02*
X148861904Y-101967380D01*
X148861904Y-101967380D02*
X149052380Y-101967380D01*
X149052380Y-101967380D02*
X149147618Y-101919761D01*
X149147618Y-101919761D02*
X149195237Y-101824523D01*
X149195237Y-101824523D02*
X149195237Y-101443571D01*
X149195237Y-101443571D02*
X149147618Y-101348333D01*
X149147618Y-101348333D02*
X149052380Y-101300714D01*
X149052380Y-101300714D02*
X148861904Y-101300714D01*
X148861904Y-101300714D02*
X148766666Y-101348333D01*
X148766666Y-101348333D02*
X148719047Y-101443571D01*
X148719047Y-101443571D02*
X148719047Y-101538809D01*
X148719047Y-101538809D02*
X149195237Y-101634047D01*
X148338094Y-101919761D02*
X148242856Y-101967380D01*
X148242856Y-101967380D02*
X148052380Y-101967380D01*
X148052380Y-101967380D02*
X147957142Y-101919761D01*
X147957142Y-101919761D02*
X147909523Y-101824523D01*
X147909523Y-101824523D02*
X147909523Y-101776904D01*
X147909523Y-101776904D02*
X147957142Y-101681666D01*
X147957142Y-101681666D02*
X148052380Y-101634047D01*
X148052380Y-101634047D02*
X148195237Y-101634047D01*
X148195237Y-101634047D02*
X148290475Y-101586428D01*
X148290475Y-101586428D02*
X148338094Y-101491190D01*
X148338094Y-101491190D02*
X148338094Y-101443571D01*
X148338094Y-101443571D02*
X148290475Y-101348333D01*
X148290475Y-101348333D02*
X148195237Y-101300714D01*
X148195237Y-101300714D02*
X148052380Y-101300714D01*
X148052380Y-101300714D02*
X147957142Y-101348333D01*
X153828570Y-102920714D02*
X153590475Y-103587380D01*
X153590475Y-103587380D02*
X153352380Y-102920714D01*
X152447618Y-103587380D02*
X153019046Y-103587380D01*
X152733332Y-103587380D02*
X152733332Y-102587380D01*
X152733332Y-102587380D02*
X152828570Y-102730238D01*
X152828570Y-102730238D02*
X152923808Y-102825476D01*
X152923808Y-102825476D02*
X153019046Y-102873095D01*
X152019046Y-103492142D02*
X151971427Y-103539761D01*
X151971427Y-103539761D02*
X152019046Y-103587380D01*
X152019046Y-103587380D02*
X152066665Y-103539761D01*
X152066665Y-103539761D02*
X152019046Y-103492142D01*
X152019046Y-103492142D02*
X152019046Y-103587380D01*
X151352380Y-102587380D02*
X151257142Y-102587380D01*
X151257142Y-102587380D02*
X151161904Y-102635000D01*
X151161904Y-102635000D02*
X151114285Y-102682619D01*
X151114285Y-102682619D02*
X151066666Y-102777857D01*
X151066666Y-102777857D02*
X151019047Y-102968333D01*
X151019047Y-102968333D02*
X151019047Y-103206428D01*
X151019047Y-103206428D02*
X151066666Y-103396904D01*
X151066666Y-103396904D02*
X151114285Y-103492142D01*
X151114285Y-103492142D02*
X151161904Y-103539761D01*
X151161904Y-103539761D02*
X151257142Y-103587380D01*
X151257142Y-103587380D02*
X151352380Y-103587380D01*
X151352380Y-103587380D02*
X151447618Y-103539761D01*
X151447618Y-103539761D02*
X151495237Y-103492142D01*
X151495237Y-103492142D02*
X151542856Y-103396904D01*
X151542856Y-103396904D02*
X151590475Y-103206428D01*
X151590475Y-103206428D02*
X151590475Y-102968333D01*
X151590475Y-102968333D02*
X151542856Y-102777857D01*
X151542856Y-102777857D02*
X151495237Y-102682619D01*
X151495237Y-102682619D02*
X151447618Y-102635000D01*
X151447618Y-102635000D02*
X151352380Y-102587380D01*
X78469999Y-101586428D02*
X77708095Y-101586428D01*
X78089047Y-101967380D02*
X78089047Y-101205476D01*
M02*
