%TF.GenerationSoftware,KiCad,Pcbnew,(7.0.0-0)*%
%TF.CreationDate,2023-07-09T10:24:43-07:00*%
%TF.ProjectId,Headlights_LEDs,48656164-6c69-4676-9874-735f4c454473,rev?*%
%TF.SameCoordinates,Original*%
%TF.FileFunction,Legend,Top*%
%TF.FilePolarity,Positive*%
%FSLAX46Y46*%
G04 Gerber Fmt 4.6, Leading zero omitted, Abs format (unit mm)*
G04 Created by KiCad (PCBNEW (7.0.0-0)) date 2023-07-09 10:24:43*
%MOMM*%
%LPD*%
G01*
G04 APERTURE LIST*
%ADD10C,0.120000*%
%ADD11C,0.100000*%
G04 APERTURE END LIST*
D10*
%TO.C,D4*%
X118640000Y-103800000D02*
X118840000Y-103600000D01*
X118840000Y-103600000D02*
X118640000Y-103400000D01*
X118840000Y-99600000D02*
X118640000Y-99400000D01*
X116840000Y-103800000D02*
X116840000Y-99400000D01*
X118640000Y-99800000D02*
X118840000Y-99600000D01*
D11*
X119340000Y-104100000D02*
X114340000Y-104100000D01*
X114340000Y-104100000D02*
X114340000Y-99100000D01*
X114340000Y-99100000D02*
X119340000Y-99100000D01*
X119340000Y-99100000D02*
X119340000Y-104100000D01*
D10*
%TO.C,D10*%
X223520000Y-103800000D02*
X223520000Y-99400000D01*
X225520000Y-103600000D02*
X225320000Y-103400000D01*
X225320000Y-99800000D02*
X225520000Y-99600000D01*
X225320000Y-103800000D02*
X225520000Y-103600000D01*
X225520000Y-99600000D02*
X225320000Y-99400000D01*
D11*
X226020000Y-104100000D02*
X221020000Y-104100000D01*
X221020000Y-104100000D02*
X221020000Y-99100000D01*
X221020000Y-99100000D02*
X226020000Y-99100000D01*
X226020000Y-99100000D02*
X226020000Y-104100000D01*
D10*
%TO.C,D5*%
X136420000Y-99800000D02*
X136620000Y-99600000D01*
X136420000Y-103800000D02*
X136620000Y-103600000D01*
X134620000Y-103800000D02*
X134620000Y-99400000D01*
X136620000Y-99600000D02*
X136420000Y-99400000D01*
X136620000Y-103600000D02*
X136420000Y-103400000D01*
D11*
X137120000Y-104100000D02*
X132120000Y-104100000D01*
X132120000Y-104100000D02*
X132120000Y-99100000D01*
X132120000Y-99100000D02*
X137120000Y-99100000D01*
X137120000Y-99100000D02*
X137120000Y-104100000D01*
D10*
%TO.C,D7*%
X171980000Y-103800000D02*
X172180000Y-103600000D01*
X171980000Y-99800000D02*
X172180000Y-99600000D01*
X172180000Y-103600000D02*
X171980000Y-103400000D01*
X170180000Y-103800000D02*
X170180000Y-99400000D01*
X172180000Y-99600000D02*
X171980000Y-99400000D01*
D11*
X172680000Y-104100000D02*
X167680000Y-104100000D01*
X167680000Y-104100000D02*
X167680000Y-99100000D01*
X167680000Y-99100000D02*
X172680000Y-99100000D01*
X172680000Y-99100000D02*
X172680000Y-104100000D01*
D10*
%TO.C,D9*%
X207540000Y-99800000D02*
X207740000Y-99600000D01*
X205740000Y-103800000D02*
X205740000Y-99400000D01*
X207540000Y-103800000D02*
X207740000Y-103600000D01*
X207740000Y-99600000D02*
X207540000Y-99400000D01*
X207740000Y-103600000D02*
X207540000Y-103400000D01*
D11*
X208240000Y-104100000D02*
X203240000Y-104100000D01*
X203240000Y-104100000D02*
X203240000Y-99100000D01*
X203240000Y-99100000D02*
X208240000Y-99100000D01*
X208240000Y-99100000D02*
X208240000Y-104100000D01*
D10*
%TO.C,D3*%
X101060000Y-99600000D02*
X100860000Y-99400000D01*
X100860000Y-103800000D02*
X101060000Y-103600000D01*
X99060000Y-103800000D02*
X99060000Y-99400000D01*
X100860000Y-99800000D02*
X101060000Y-99600000D01*
X101060000Y-103600000D02*
X100860000Y-103400000D01*
D11*
X101560000Y-104100000D02*
X96560000Y-104100000D01*
X96560000Y-104100000D02*
X96560000Y-99100000D01*
X96560000Y-99100000D02*
X101560000Y-99100000D01*
X101560000Y-99100000D02*
X101560000Y-104100000D01*
D10*
%TO.C,D2*%
X83280000Y-99600000D02*
X83080000Y-99400000D01*
X81280000Y-103800000D02*
X81280000Y-99400000D01*
X83080000Y-103800000D02*
X83280000Y-103600000D01*
X83280000Y-103600000D02*
X83080000Y-103400000D01*
X83080000Y-99800000D02*
X83280000Y-99600000D01*
D11*
X83780000Y-104100000D02*
X78780000Y-104100000D01*
X78780000Y-104100000D02*
X78780000Y-99100000D01*
X78780000Y-99100000D02*
X83780000Y-99100000D01*
X83780000Y-99100000D02*
X83780000Y-104100000D01*
D10*
%TO.C,D8*%
X189760000Y-99800000D02*
X189960000Y-99600000D01*
X189960000Y-99600000D02*
X189760000Y-99400000D01*
X189960000Y-103600000D02*
X189760000Y-103400000D01*
X187960000Y-103800000D02*
X187960000Y-99400000D01*
X189760000Y-103800000D02*
X189960000Y-103600000D01*
D11*
X190460000Y-104100000D02*
X185460000Y-104100000D01*
X185460000Y-104100000D02*
X185460000Y-99100000D01*
X185460000Y-99100000D02*
X190460000Y-99100000D01*
X190460000Y-99100000D02*
X190460000Y-104100000D01*
D10*
%TO.C,D6*%
X154400000Y-99600000D02*
X154200000Y-99400000D01*
X154200000Y-99800000D02*
X154400000Y-99600000D01*
X154400000Y-103600000D02*
X154200000Y-103400000D01*
X152400000Y-103800000D02*
X152400000Y-99400000D01*
X154200000Y-103800000D02*
X154400000Y-103600000D01*
D11*
X154900000Y-104100000D02*
X149900000Y-104100000D01*
X149900000Y-104100000D02*
X149900000Y-99100000D01*
X149900000Y-99100000D02*
X154900000Y-99100000D01*
X154900000Y-99100000D02*
X154900000Y-104100000D01*
%TD*%
M02*
