M48
; DRILL file {KiCad (7.0.0-0)} date Sunday, July 09, 2023 at 10:24:53 AM
; FORMAT={-:-/ absolute / inch / decimal}
; #@! TF.CreationDate,2023-07-09T10:24:53-07:00
; #@! TF.GenerationSoftware,Kicad,Pcbnew,(7.0.0-0)
; #@! TF.FileFunction,Plated,1,2,PTH
FMAT,2
INCH
; #@! TA.AperFunction,Plated,PTH,ViaDrill
T1C0.0079
%
G90
G05
T1
X2.81Y-3.9
X2.81Y-4.1
X2.91Y-4.0
X3.01Y-3.9
X3.01Y-4.1
X3.33Y-3.9
X3.33Y-3.95
X3.33Y-4.0
X3.33Y-4.05
X3.33Y-4.1
X3.77Y-3.9
X3.77Y-3.95
X3.77Y-4.0
X3.77Y-4.05
X3.77Y-4.1
X4.03Y-3.9
X4.03Y-3.95
X4.03Y-4.0
X4.03Y-4.05
X4.03Y-4.1
X4.47Y-3.9
X4.47Y-3.95
X4.47Y-4.0
X4.47Y-4.05
X4.47Y-4.1
X4.73Y-3.9
X4.73Y-3.95
X4.73Y-4.0
X4.73Y-4.05
X4.73Y-4.1
X5.17Y-3.9
X5.17Y-3.95
X5.17Y-4.0
X5.17Y-4.05
X5.17Y-4.1
X5.43Y-3.9
X5.43Y-3.95
X5.43Y-4.0
X5.43Y-4.05
X5.43Y-4.1
X5.87Y-3.9
X5.87Y-3.95
X5.87Y-4.0
X5.87Y-4.05
X5.87Y-4.1
X6.13Y-3.9
X6.13Y-3.95
X6.13Y-4.0
X6.13Y-4.05
X6.13Y-4.1
X6.57Y-3.9
X6.57Y-3.95
X6.57Y-4.0
X6.57Y-4.05
X6.57Y-4.1
X6.83Y-3.9
X6.83Y-3.95
X6.83Y-4.0
X6.83Y-4.05
X6.83Y-4.1
X7.27Y-3.9
X7.27Y-3.95
X7.27Y-4.0
X7.27Y-4.05
X7.27Y-4.1
X7.53Y-3.9
X7.53Y-3.95
X7.53Y-4.0
X7.53Y-4.05
X7.53Y-4.1
X7.97Y-3.9
X7.97Y-3.95
X7.97Y-4.0
X7.97Y-4.05
X7.97Y-4.1
X8.23Y-3.9
X8.23Y-3.95
X8.23Y-4.0
X8.23Y-4.05
X8.23Y-4.1
X8.67Y-3.9
X8.67Y-3.95
X8.67Y-4.0
X8.67Y-4.05
X8.67Y-4.1
X8.99Y-3.9
X8.99Y-4.1
X9.09Y-4.0
X9.19Y-3.9
X9.19Y-4.1
T0
M30
